<svg width="33" height="53" viewBox="0 0 33 53" fill="none" xmlns="http://www.w3.org/2000/svg">
<g clip-path="url(#clip0_102_369)">
<path d="M24.6228 29.8189H6.45243L5.79437 31.9731H10.6391L11.5581 34.9428H19.5172L20.4419 31.9731H25.2809L24.6228 29.8189ZM9.41937 17.7263C8.75091 18.6401 8.47579 19.7796 8.65451 20.8945C8.83322 22.0093 9.45114 23.0081 10.3724 23.6714L14.7236 26.8042C14.8384 26.8862 14.9356 26.9899 15.0098 27.1094C15.084 27.2289 15.1336 27.3617 15.1557 27.5003C15.1779 27.6388 15.1721 27.7803 15.1389 27.9167C15.1056 28.053 15.0454 28.1815 14.9618 28.2947L15.6142 28.7615L17.9117 25.6231C18.4452 24.8999 18.7332 24.0274 18.7343 23.1314C18.7323 22.9035 18.7134 22.676 18.6776 22.4509C18.5038 21.3378 17.8918 20.3385 16.9757 19.6724L12.6302 16.5452C12.5106 16.4657 12.4086 16.3629 12.3306 16.243C12.2525 16.123 12.2001 15.9885 12.1764 15.8477C12.1707 15.7915 12.1707 15.7352 12.1764 15.679C12.1779 15.455 12.2492 15.2369 12.3806 15.0547L11.7283 14.5822L9.41937 17.7263ZM12.0403 5.1387C11.2697 6.18764 10.8545 7.45192 10.8546 8.74962C10.8529 9.07922 10.8796 9.40881 10.934 9.7339C11.0596 10.5352 11.3444 11.3038 11.7719 11.9951C12.1994 12.6864 12.7611 13.2866 13.4245 13.761L18.8932 17.6982C19.2478 17.9522 19.5482 18.2733 19.7771 18.643C20.0059 19.0128 20.1586 19.4238 20.2263 19.8524C20.2554 20.0271 20.2706 20.2039 20.2717 20.3811C20.2689 21.0734 20.0444 21.747 19.6306 22.3046L20.1582 22.6815L24.464 16.7814C26.4744 14.0181 25.8527 10.1636 23.0741 8.15905L16.4765 3.40636C16.2722 3.2597 16.0994 3.07432 15.9679 2.86095C15.8365 2.64758 15.749 2.41047 15.7106 2.16335C15.669 1.91653 15.6777 1.66395 15.7361 1.42051C15.7946 1.17706 15.9017 0.947708 16.051 0.745981L15.5291 0.369141L12.0403 5.1387ZM0.87595 36.7427H5.85678C6.87953 36.6754 7.88744 37.0132 8.6592 37.682C8.89897 37.9175 9.08759 38.1992 9.21345 38.5096C9.3393 38.8201 9.39973 39.1529 9.39101 39.4874V39.5212C9.40445 39.9967 9.27876 40.4659 9.0291 40.8721C8.77945 41.2783 8.41651 41.6042 7.98412 41.8103C9.22082 42.2828 9.98666 42.9971 9.98666 44.4257C9.98666 46.3718 8.39825 47.3448 5.97591 47.3448H0.870277L0.87595 36.7427ZM5.36891 41.0398C6.40705 41.0398 7.07078 40.7023 7.07078 39.9149C7.07078 39.2118 6.50349 38.79 5.52207 38.79H3.17348V41.0398H5.36891ZM5.99293 45.32C7.03674 45.32 7.66077 44.9544 7.66077 44.1951V44.1614C7.66077 43.4527 7.12751 43.0365 5.91918 43.0365H3.17348V45.3763L5.99293 45.32ZM11.0418 36.7427H16.0227C17.0454 36.6754 18.0533 37.0132 18.8251 37.682C19.0638 37.9179 19.2514 38.1998 19.3763 38.5103C19.5011 38.8208 19.5607 39.1533 19.5512 39.4874V39.5212C19.5647 39.9967 19.439 40.4659 19.1893 40.8721C18.9397 41.2783 18.5767 41.6042 18.1443 41.8103C19.3867 42.2828 20.1525 42.9971 20.1525 44.4257C20.1525 46.3718 18.5585 47.3448 16.1361 47.3448H11.0418V36.7427ZM15.5178 41.0398C16.5559 41.0398 17.2196 40.7023 17.2196 39.9149C17.2196 39.2118 16.6523 38.79 15.6766 38.79H13.311V41.0398H15.5178ZM16.1418 45.32C17.1856 45.32 17.8096 44.9544 17.8096 44.1951V44.1614C17.8096 43.4527 17.2764 43.0365 16.068 43.0365H13.311V45.3763L16.1418 45.32ZM21.151 36.7427H26.1318C27.1546 36.6754 28.1625 37.0132 28.9342 37.682C29.174 37.9175 29.3626 38.1992 29.4885 38.5096C29.6143 38.8201 29.6748 39.1529 29.666 39.4874V39.5212C29.6795 39.9967 29.5538 40.4659 29.3041 40.8721C29.0545 41.2783 28.6915 41.6042 28.2591 41.8103C29.5015 42.2828 30.2674 42.9971 30.2674 44.4257C30.2674 46.3718 28.6733 47.3448 26.2509 47.3448H21.1453L21.151 36.7427ZM25.6269 41.0398C26.6651 41.0398 27.3288 40.7023 27.3288 39.9149C27.3288 39.2118 26.7615 38.79 25.7858 38.79H23.4485V41.0398H25.6269ZM26.2509 45.32C27.2948 45.32 27.9244 44.9544 27.9244 44.1951V44.1614C27.9244 43.4527 27.3855 43.0365 26.1772 43.0365H23.4485V45.3763L26.2509 45.32ZM0.830566 51.8894L1.01777 51.6757C1.14297 51.7964 1.29134 51.8909 1.45407 51.9537C1.61681 52.0165 1.7906 52.0463 1.96515 52.0413C2.32822 52.0413 2.57215 51.8557 2.57215 51.6026C2.57215 51.3607 2.436 51.2257 1.86304 51.1076C1.29007 50.9895 0.955371 50.7814 0.955371 50.3539C0.964466 50.2482 0.995005 50.1455 1.04516 50.0518C1.09531 49.9581 1.16404 49.8754 1.24722 49.8087C1.3304 49.7419 1.42632 49.6926 1.52921 49.6635C1.63211 49.6345 1.73987 49.6263 1.84602 49.6396C2.19232 49.6289 2.53083 49.7428 2.79907 49.9602L2.61754 50.1852C2.40182 49.9847 2.11891 49.8705 1.82333 49.8646C1.47161 49.8646 1.25604 50.0502 1.25604 50.2864C1.25604 50.5339 1.39786 50.6745 1.99352 50.7983C2.58917 50.922 2.87282 51.1357 2.87282 51.5351C2.87282 51.985 2.48706 52.2775 1.94813 52.2775C1.53926 52.2946 1.13931 52.1557 0.830566 51.8894ZM3.42309 51.76V50.5958H3.14512V50.3427H3.42309V49.7802H3.71808V50.3427H4.35345V50.5958H3.71808V51.7207C3.71808 51.9569 3.85423 52.0413 4.05846 52.0413C4.15908 52.0431 4.25855 52.0199 4.34778 51.9738V52.2213C4.23819 52.28 4.11492 52.3091 3.99038 52.3056C3.91505 52.3153 3.83848 52.308 3.76639 52.2842C3.6943 52.2605 3.62854 52.2209 3.57401 52.1685C3.51948 52.1161 3.47759 52.0521 3.45146 51.9814C3.42533 51.9107 3.41564 51.835 3.42309 51.76ZM4.61441 51.7094C4.61441 51.3045 4.96045 51.0851 5.47102 51.0851C5.67835 51.0827 5.88488 51.1111 6.08369 51.1695V51.102C6.08369 50.7533 5.86245 50.5733 5.5164 50.5733C5.30557 50.5763 5.09812 50.6263 4.9094 50.7195L4.80161 50.4777C5.03028 50.37 5.28028 50.3143 5.53342 50.3146C5.76881 50.2998 6.00076 50.3764 6.18013 50.5283C6.32196 50.6807 6.3957 50.8838 6.38436 51.0907V52.2719H6.08369V51.9794C5.99887 52.0861 5.89007 52.1717 5.76596 52.2293C5.64186 52.2869 5.50589 52.315 5.36891 52.3112C4.98882 52.3112 4.61441 52.1144 4.61441 51.7094ZM6.08937 51.5519V51.3663C5.90533 51.3114 5.71428 51.2829 5.52207 51.282C5.14766 51.282 4.95478 51.4394 4.95478 51.6813C4.95478 51.9288 5.18737 52.0694 5.45967 52.0694C5.6111 52.0778 5.76014 52.0291 5.87691 51.9331C5.99368 51.8372 6.06957 51.701 6.08937 51.5519ZM6.88925 50.3427H7.18991V50.8489C7.24758 50.682 7.35723 50.5376 7.50303 50.4365C7.64883 50.3354 7.82326 50.2829 8.00114 50.2864V50.5958C7.88841 50.5948 7.77678 50.6179 7.67379 50.6633C7.5708 50.7088 7.47883 50.7756 7.4041 50.8593C7.32937 50.943 7.27361 51.0416 7.24057 51.1485C7.20754 51.2553 7.198 51.368 7.2126 51.4788V52.2494H6.91194L6.88925 50.3427ZM8.44363 51.76V50.5958H8.16566V50.3427H8.44363V49.7802H8.77266V50.3427H9.40803V50.5958H8.77266V51.7207C8.77266 51.9569 8.90881 52.0413 9.10736 52.0413C9.20798 52.0431 9.30746 52.0199 9.39668 51.9738V52.2213C9.28709 52.28 9.16383 52.3091 9.03929 52.3056C8.96183 52.3201 8.88203 52.3164 8.80627 52.2949C8.73052 52.2733 8.6609 52.2345 8.603 52.1814C8.54511 52.1284 8.50054 52.0627 8.47286 51.9895C8.44519 51.9163 8.43518 51.8377 8.44363 51.76ZM10.6731 49.6621H11.0078L11.7793 51.8332L12.5225 49.6509H12.7721L13.5152 51.8332L14.2924 49.6621H14.6101L13.6457 52.2887H13.3847L12.6416 50.1683L11.8984 52.2887H11.6432L10.6731 49.6621ZM15.0129 49.6059H15.3533V49.9208H15.0129V49.6059ZM15.0129 50.3427H15.3135V52.2719H15.0129V50.3427ZM16.0056 51.76V50.5958H15.7277V50.3427H16.0056V49.7802H16.3006V50.3427H16.936V50.5958H16.3006V51.7207C16.3006 51.9569 16.4368 52.0413 16.641 52.0413C16.7414 52.0418 16.8407 52.0188 16.9303 51.9738V52.2213C16.8187 52.28 16.6936 52.3091 16.5673 52.3056C16.4921 52.3155 16.4158 52.3082 16.3439 52.2845C16.272 52.2607 16.2065 52.2211 16.1524 52.1685C16.0983 52.1159 16.0569 52.0518 16.0315 51.981C16.0061 51.9103 15.9972 51.8347 16.0056 51.76ZM17.3444 49.5496H17.6451V50.6745C17.7141 50.5558 17.8145 50.4579 17.9355 50.3915C18.0564 50.3251 18.1934 50.2927 18.3315 50.2977C18.4349 50.2909 18.5385 50.3062 18.6352 50.3427C18.732 50.3792 18.8198 50.4359 18.8925 50.5091C18.9651 50.5822 19.0211 50.67 19.0564 50.7665C19.0918 50.863 19.1058 50.9659 19.0974 51.0682V52.2662H18.7967V51.1413C18.8037 51.0658 18.7938 50.9896 18.7678 50.9182C18.7417 50.8468 18.7002 50.782 18.646 50.7283C18.5919 50.6746 18.5265 50.6334 18.4545 50.6076C18.3825 50.5818 18.3057 50.572 18.2294 50.5789C18.1481 50.5738 18.0667 50.5861 17.9906 50.615C17.9146 50.6438 17.8457 50.6886 17.7886 50.7462C17.7316 50.8039 17.6877 50.873 17.66 50.949C17.6323 51.0249 17.6214 51.1059 17.6281 51.1863V52.3112H17.3274L17.3444 49.5496ZM21.4233 49.9321H20.5156V49.6621H22.643V49.9321H21.7353V52.2719H21.4233V49.9321ZM23.0514 50.3427H23.3464V50.8489C23.4059 50.682 23.5167 50.5379 23.6633 50.437C23.8099 50.3361 23.9848 50.2834 24.1633 50.2864V50.5958C24.0504 50.5949 23.9386 50.618 23.8353 50.6634C23.7321 50.7088 23.6398 50.7755 23.5647 50.8591C23.4895 50.9427 23.4332 51.0412 23.3994 51.1481C23.3657 51.2549 23.3554 51.3677 23.3691 51.4788V52.2494H23.0741L23.0514 50.3427ZM24.4696 51.5519V50.3427H24.7646V51.4676C24.7587 51.5429 24.7692 51.6187 24.7956 51.6896C24.822 51.7606 24.8636 51.825 24.9175 51.8784C24.9715 51.9319 25.0364 51.9731 25.108 51.9993C25.1795 52.0255 25.2559 52.0359 25.3319 52.03C25.4132 52.0351 25.4947 52.0228 25.5707 51.994C25.6468 51.9651 25.7157 51.9203 25.7727 51.8627C25.8298 51.805 25.8737 51.7359 25.9014 51.66C25.9291 51.584 25.9399 51.5031 25.9333 51.4226V50.2977H26.2282V52.2269H25.9333V51.8894C25.8633 52.0073 25.7627 52.1045 25.642 52.1708C25.5212 52.2371 25.3848 52.27 25.2468 52.2662C25.1476 52.274 25.0477 52.2613 24.9537 52.2289C24.8596 52.1965 24.7733 52.1451 24.7003 52.078C24.6273 52.0109 24.5691 51.9295 24.5294 51.8389C24.4897 51.7484 24.4693 51.6507 24.4696 51.5519ZM26.6027 52.0244L26.7502 51.8219C26.9503 51.9711 27.192 52.0555 27.4422 52.0638C27.6862 52.0638 27.8564 51.9457 27.8564 51.76C27.8564 51.5632 27.6238 51.4901 27.3572 51.417C27.0905 51.3438 26.6991 51.2313 26.6991 50.8545C26.6991 50.5227 26.9827 50.2921 27.3798 50.2921C27.6351 50.2977 27.8842 50.3708 28.1003 50.5058L27.9642 50.7195C27.7941 50.6107 27.5988 50.5468 27.3969 50.5339C27.1643 50.5339 27.0111 50.652 27.0111 50.8151C27.0111 51.0007 27.2607 51.0682 27.5273 51.147C27.794 51.2257 28.1684 51.3551 28.1684 51.7094C28.1684 52.075 27.8564 52.2719 27.4593 52.2719C27.1541 52.2845 26.8532 52.1976 26.6027 52.0244ZM28.6846 51.76V50.5958H28.401V50.3427H28.6846V49.7802H28.9796V50.3427H29.615V50.5958H28.9796V51.7207C28.9796 51.9569 29.1158 52.0413 29.3143 52.0413C29.4164 52.0424 29.518 52.0188 29.6093 51.9738V52.2213C29.4974 52.2793 29.3725 52.3083 29.2462 52.3056C29.1711 52.3155 29.0947 52.3082 29.0229 52.2845C28.951 52.2607 28.8855 52.2211 28.8314 52.1685C28.7773 52.1159 28.7359 52.0518 28.7105 51.981C28.6851 51.9103 28.6762 51.8347 28.6846 51.76ZM30.0234 52.1144L30.1426 51.9794C30.2148 52.0468 30.31 52.0849 30.4092 52.0863C30.4886 52.0863 30.5397 52.0525 30.5397 52.0019C30.5397 51.9513 30.5056 51.9232 30.3581 51.8838C30.2106 51.8444 30.0575 51.7882 30.0575 51.6138C30.0595 51.5753 30.0695 51.5376 30.0869 51.5031C30.1042 51.4686 30.1286 51.438 30.1584 51.4132C30.1882 51.3884 30.2228 51.3699 30.2601 51.359C30.2974 51.348 30.3365 51.3448 30.3752 51.3495C30.4965 51.3472 30.6149 51.387 30.7099 51.4619L30.6077 51.6082C30.5393 51.5551 30.4562 51.5237 30.3695 51.5182C30.2957 51.5182 30.256 51.5576 30.256 51.5969C30.256 51.6532 30.2957 51.6757 30.4489 51.715C30.6021 51.7544 30.7325 51.8275 30.7325 51.9794C30.7325 52.1538 30.5964 52.255 30.4035 52.255C30.2637 52.2562 30.1283 52.2061 30.0234 52.1144ZM30.8971 51.372H31.107L31.3452 51.7488L31.5835 51.372H31.7934V52.2662H31.6005V51.7038L31.3452 52.0863L31.0956 51.7094V52.2719H30.8971V51.372Z" fill="#005F86"/>
</g>
<defs>
<clipPath id="clip0_102_369">
<rect width="31.2011" height="52.3077" fill="white" transform="translate(0.830566 0.369141)"/>
</clipPath>
</defs>
</svg>
