<svg width="513" height="282" viewBox="0 0 513 282" fill="none" xmlns="http://www.w3.org/2000/svg">
<g filter="url(#filter0_d_94_3224)">
<rect x="9" y="5" width="494.606" height="263.258" fill="white"/>
<path d="M274 5H11V130H195C234.6 130 227.5 43.0747 274 5Z" fill="#3188D8"/>
<path d="M105.141 5H9V267.861H339.084C342.988 268.053 346.653 268.04 350 267.861H339.084C299.375 265.908 234.843 242.814 226.819 159.506C218.006 68.0063 142.028 18.3771 105.141 5Z" fill="#0C5AA1"/>
<path d="M108.058 67.052C117.623 67.3723 126.726 71.2412 133.594 77.9051C140.463 84.569 144.605 93.5508 145.215 103.101" stroke="white" stroke-width="5"/>
<path d="M145.272 106.845C144.951 116.41 141.083 125.513 134.419 132.381C127.755 139.25 118.773 143.392 109.222 144.002" stroke="white" stroke-width="5"/>
<path d="M105.478 144.059C95.9137 143.738 86.8107 139.87 79.942 133.206C73.0734 126.542 68.9309 117.56 68.3213 108.009" stroke="white" stroke-width="5"/>
<path d="M68.2647 104.265C68.5851 94.7007 72.454 85.5977 79.1179 78.729C85.7817 71.8604 94.7636 67.7179 104.314 67.1083" stroke="white" stroke-width="5"/>
<path d="M89.2429 122.284V88.8267H114.734V93.2239H93.6242V101.54H102.387L101.398 105.986H93.6242V117.839H114.734V122.284H89.2429Z" fill="white"/>
<path d="M116.328 122.284V88.8267H120.709V122.284H116.328Z" fill="white"/>
<path d="M106.388 115.115C105.83 115.115 105.355 114.923 104.965 114.541C104.574 114.159 104.378 113.694 104.378 113.148V109.598L106.835 106.866L104.378 104.299V97.9626C104.378 97.8715 104.388 97.7987 104.406 97.7441C104.444 97.2525 104.648 96.8428 105.02 96.515C105.411 96.1691 105.867 95.9961 106.388 95.9961H112.752C113.273 95.9961 113.72 96.1691 114.092 96.515C114.464 96.8428 114.678 97.2525 114.734 97.7441V101.513L110.24 106.593L114.734 111.236V115.115L108.482 108.56L106.974 110.253V111.591C106.974 111.864 107.067 112.101 107.253 112.301C107.458 112.484 107.7 112.575 107.979 112.575H109.542L111.915 115.115H106.388ZM108.593 104.9L112.166 100.94V99.4921C112.166 99.2371 112.064 99.0186 111.859 98.8366C111.673 98.6363 111.441 98.5361 111.161 98.5361H107.979C107.7 98.5361 107.458 98.6363 107.253 98.8366C107.067 99.0186 106.974 99.2371 106.974 99.4921V103.261L108.593 104.9Z" fill="white"/>
<path d="M158.043 160.707V164.878C158.043 165.276 158.146 165.592 158.352 165.827C158.572 166.048 158.867 166.158 159.235 166.158C159.573 166.158 159.926 165.974 160.294 165.607L161 166.842C160.382 167.387 159.713 167.659 158.992 167.659C158.241 167.659 157.609 167.402 157.094 166.887C156.579 166.357 156.321 165.673 156.321 164.834V160.707H155.284V159.317H156.321V156.735H158.043V159.317H160.206V160.707H158.043Z" fill="white"/>
<path d="M147.674 167.527H145.952V159.317H147.674V160.796C147.953 160.295 148.336 159.905 148.821 159.626C149.322 159.332 149.851 159.185 150.41 159.185C151.367 159.185 152.124 159.471 152.683 160.045C153.242 160.619 153.522 161.436 153.522 162.495V167.527H151.779V163.025C151.779 161.509 151.153 160.751 149.903 160.751C149.27 160.751 148.74 160.957 148.314 161.369C147.887 161.767 147.674 162.333 147.674 163.069V167.527Z" fill="white"/>
<path d="M143.522 167.527H141.955V166.423C141.264 167.247 140.352 167.659 139.219 167.659C138.351 167.659 137.637 167.416 137.078 166.931C136.534 166.431 136.262 165.783 136.262 164.989C136.262 164.194 136.556 163.591 137.144 163.179C137.733 162.767 138.542 162.561 139.572 162.561H141.823V162.252C141.823 161.163 141.212 160.619 139.991 160.619C139.226 160.619 138.432 160.899 137.608 161.458L136.835 160.376C137.851 159.582 138.983 159.185 140.234 159.185C141.249 159.185 142.051 159.442 142.64 159.957C143.228 160.457 143.522 161.215 143.522 162.23V167.527ZM141.801 163.775H139.859C138.608 163.775 137.983 164.165 137.983 164.945C137.983 165.342 138.137 165.651 138.446 165.871C138.755 166.077 139.189 166.18 139.748 166.18C140.322 166.18 140.808 166.026 141.205 165.717C141.602 165.393 141.801 164.974 141.801 164.459V163.775Z" fill="white"/>
<path d="M132.539 160.707V164.878C132.539 165.276 132.642 165.592 132.847 165.827C133.068 166.048 133.362 166.158 133.73 166.158C134.069 166.158 134.422 165.974 134.79 165.607L135.496 166.842C134.878 167.387 134.208 167.659 133.487 167.659C132.737 167.659 132.105 167.402 131.59 166.887C131.075 166.357 130.817 165.673 130.817 164.834V160.707H129.78V159.317H130.817V156.735H132.539V159.317H134.701V160.707H132.539Z" fill="white"/>
<path d="M125.426 167.659C124.102 167.659 122.91 167.247 121.851 166.423L122.69 165.077C123.631 165.798 124.558 166.158 125.47 166.158C125.853 166.158 126.154 166.07 126.375 165.894C126.61 165.702 126.728 165.467 126.728 165.187C126.728 164.775 126.184 164.408 125.095 164.084C125.066 164.069 125.029 164.054 124.985 164.04C124.955 164.025 124.933 164.018 124.919 164.018C123.212 163.562 122.359 162.789 122.359 161.7C122.359 160.935 122.645 160.325 123.219 159.869C123.808 159.413 124.58 159.185 125.536 159.185C126.478 159.185 127.376 159.464 128.229 160.023L127.589 161.303C126.927 160.862 126.199 160.641 125.404 160.641C124.477 160.641 124.014 160.935 124.014 161.524C124.014 161.774 124.102 161.958 124.279 162.076C124.47 162.179 124.779 162.282 125.205 162.385C125.853 162.561 126.397 162.738 126.839 162.914C127.133 163.047 127.39 163.186 127.611 163.334C128.17 163.716 128.45 164.297 128.45 165.077C128.45 165.842 128.163 166.467 127.589 166.953C127.03 167.424 126.309 167.659 125.426 167.659Z" fill="white"/>
<path d="M114.351 167.527H112.63V159.317H114.351V160.796C114.631 160.295 115.013 159.905 115.499 159.626C115.999 159.332 116.528 159.185 117.088 159.185C118.044 159.185 118.802 159.471 119.361 160.045C119.92 160.619 120.199 161.436 120.199 162.495V167.527H118.456V163.025C118.456 161.509 117.831 160.751 116.58 160.751C115.947 160.751 115.418 160.957 114.991 161.369C114.564 161.767 114.351 162.333 114.351 163.069V167.527Z" fill="white"/>
<path d="M108.064 156.735H109.896V167.527H108.064V156.735Z" fill="white"/>
<path d="M92.3457 164.503C92.3457 163.341 93.1917 162.304 94.8836 161.392C94.4275 160.862 94.1186 160.45 93.9567 160.156C93.8096 159.861 93.736 159.486 93.736 159.03C93.736 158.236 94.0303 157.61 94.6188 157.154C95.2073 156.698 95.9356 156.47 96.8036 156.47C97.657 156.47 98.3632 156.691 98.9222 157.132C99.4813 157.559 99.7609 158.14 99.7609 158.876C99.7609 159.906 98.937 160.869 97.2891 161.767C97.9806 162.605 98.6501 163.378 99.2974 164.084C99.6211 163.598 99.8712 163.047 100.048 162.429L101.306 163.334C101.056 164.01 100.754 164.628 100.401 165.187C100.519 165.305 100.754 165.541 101.107 165.894C101.46 166.232 101.747 166.512 101.968 166.732L100.82 167.814L99.4078 166.401C98.4809 167.24 97.348 167.659 96.0091 167.659C94.9645 167.659 94.0891 167.372 93.3829 166.798C92.6914 166.225 92.3457 165.46 92.3457 164.503ZM96.2078 166.158C96.8551 166.158 97.5466 165.857 98.2822 165.254C97.0905 163.974 96.2666 163.061 95.8105 162.517C94.6482 163.15 94.0671 163.834 94.0671 164.57C94.0671 165.04 94.2657 165.423 94.6629 165.717C95.0602 166.011 95.5751 166.158 96.2078 166.158ZM95.4574 158.92C95.4574 159.199 95.5163 159.45 95.634 159.67C95.7664 159.891 96.0165 160.222 96.3843 160.663C97.5466 160.09 98.1278 159.553 98.1278 159.052C98.1278 158.67 97.9954 158.376 97.7305 158.17C97.4804 157.949 97.1714 157.838 96.8036 157.838C96.4505 157.838 96.1342 157.949 95.8547 158.17C95.5898 158.39 95.4574 158.64 95.4574 158.92Z" fill="white"/>
<path d="M78.7306 169.976L79.5251 168.586C79.8929 168.924 80.2681 169.093 80.6506 169.093C81.0184 169.093 81.3274 168.954 81.5775 168.674C81.8276 168.409 81.9527 168.108 81.9527 167.769C81.9527 167.637 80.8418 164.819 78.6202 159.317H80.474L82.9458 165.364L85.3954 159.317H87.2492L83.2547 169.071C83.0193 169.601 82.6809 170.02 82.2395 170.329C81.7982 170.638 81.3127 170.793 80.783 170.793C80.0179 170.793 79.3338 170.521 78.7306 169.976Z" fill="white"/>
<path d="M74.752 167.659C73.4279 167.659 72.2362 167.247 71.1769 166.423L72.0155 165.077C72.9571 165.798 73.884 166.158 74.7962 166.158C75.1787 166.158 75.4803 166.07 75.701 165.894C75.9364 165.702 76.0541 165.467 76.0541 165.187C76.0541 164.775 75.5097 164.408 74.421 164.084C74.3916 164.069 74.3548 164.054 74.3107 164.04C74.2812 164.025 74.2592 164.018 74.2445 164.018C72.5378 163.562 71.6845 162.789 71.6845 161.7C71.6845 160.935 71.9714 160.325 72.5452 159.869C73.1337 159.413 73.9061 159.185 74.8624 159.185C75.804 159.185 76.7015 159.464 77.5548 160.023L76.9148 161.303C76.2527 160.862 75.5245 160.641 74.73 160.641C73.8031 160.641 73.3396 160.935 73.3396 161.524C73.3396 161.774 73.4279 161.958 73.6045 162.076C73.7957 162.179 74.1047 162.282 74.5314 162.385C75.1787 162.561 75.7231 162.738 76.1645 162.914C76.4587 163.047 76.7162 163.186 76.9369 163.334C77.496 163.716 77.7755 164.297 77.7755 165.077C77.7755 165.842 77.4886 166.467 76.9148 166.953C76.3557 167.424 75.6348 167.659 74.752 167.659Z" fill="white"/>
<path d="M69.4971 167.527H67.9302V166.423C67.2387 167.247 66.3266 167.659 65.1937 167.659C64.3256 167.659 63.6121 167.416 63.053 166.931C62.5086 166.431 62.2365 165.783 62.2365 164.989C62.2365 164.194 62.5307 163.591 63.1192 163.179C63.7077 162.767 64.5169 162.561 65.5468 162.561H67.7978V162.252C67.7978 161.163 67.1873 160.619 65.9661 160.619C65.201 160.619 64.4066 160.899 63.5827 161.458L62.8102 160.376C63.8254 159.582 64.9583 159.185 66.2089 159.185C67.224 159.185 68.0259 159.442 68.6144 159.957C69.2029 160.457 69.4971 161.215 69.4971 162.23V167.527ZM67.7758 163.775H65.8337C64.5831 163.775 63.9578 164.165 63.9578 164.945C63.9578 165.342 64.1123 165.651 64.4213 165.871C64.7302 166.077 65.1643 166.18 65.7233 166.18C66.2971 166.18 66.7827 166.026 67.1799 165.717C67.5771 165.393 67.7758 164.974 67.7758 164.459V163.775Z" fill="white"/>
<path d="M60.5917 156.735V158.434H54.8317V161.303H59.9959V162.914H54.8317V165.805H60.7683V167.527H53V156.735H60.5917Z" fill="white"/>
<path d="M21.1772 210.177H22.8892V211.889H21.1772V210.177ZM22.8892 210.177H24.6011V211.889H22.8892V210.177ZM24.6011 210.177H26.313V211.889H24.6011V210.177ZM26.313 210.177H28.0249V211.889H26.313V210.177ZM28.0249 210.177H29.7368V211.889H28.0249V210.177ZM29.7368 210.177H31.4487V211.889H29.7368V210.177ZM31.4487 210.177H33.1606V211.889H31.4487V210.177ZM34.8725 210.177H36.5844V211.889H34.8725V210.177ZM43.4321 210.177H45.144V211.889H43.4321V210.177ZM45.144 210.177H46.8559V211.889H45.144V210.177ZM46.8559 210.177H48.5678V211.889H46.8559V210.177ZM50.2797 210.177H51.9916V211.889H50.2797V210.177ZM51.9916 210.177H53.7035V211.889H51.9916V210.177ZM53.7035 210.177H55.4154V211.889H53.7035V210.177ZM58.8393 210.177H60.5512V211.889H58.8393V210.177ZM60.5512 210.177H62.2631V211.889H60.5512V210.177ZM62.2631 210.177H63.975V211.889H62.2631V210.177ZM63.975 210.177H65.6869V211.889H63.975V210.177ZM65.6869 210.177H67.3988V211.889H65.6869V210.177ZM67.3988 210.177H69.1107V211.889H67.3988V210.177ZM69.1107 210.177H70.8226V211.889H69.1107V210.177ZM21.1772 211.889H22.8892V213.601H21.1772V211.889ZM31.4487 211.889H33.1606V213.601H31.4487V211.889ZM34.8725 211.889H36.5844V213.601H34.8725V211.889ZM36.5844 211.889H38.2963V213.601H36.5844V211.889ZM43.4321 211.889H45.144V213.601H43.4321V211.889ZM50.2797 211.889H51.9916V213.601H50.2797V211.889ZM53.7035 211.889H55.4154V213.601H53.7035V211.889ZM58.8393 211.889H60.5512V213.601H58.8393V211.889ZM69.1107 211.889H70.8226V213.601H69.1107V211.889ZM21.1772 213.601H22.8892V215.313H21.1772V213.601ZM24.6011 213.601H26.313V215.313H24.6011V213.601ZM26.313 213.601H28.0249V215.313H26.313V213.601ZM28.0249 213.601H29.7368V215.313H28.0249V213.601ZM31.4487 213.601H33.1606V215.313H31.4487V213.601ZM40.0083 213.601H41.7202V215.313H40.0083V213.601ZM43.4321 213.601H45.144V215.313H43.4321V213.601ZM53.7035 213.601H55.4154V215.313H53.7035V213.601ZM55.4154 213.601H57.1274V215.313H55.4154V213.601ZM58.8393 213.601H60.5512V215.313H58.8393V213.601ZM62.2631 213.601H63.975V215.313H62.2631V213.601ZM63.975 213.601H65.6869V215.313H63.975V213.601ZM65.6869 213.601H67.3988V215.313H65.6869V213.601ZM69.1107 213.601H70.8226V215.313H69.1107V213.601ZM21.1772 215.313H22.8892V217.025H21.1772V215.313ZM24.6011 215.313H26.313V217.025H24.6011V215.313ZM26.313 215.313H28.0249V217.025H26.313V215.313ZM28.0249 215.313H29.7368V217.025H28.0249V215.313ZM31.4487 215.313H33.1606V217.025H31.4487V215.313ZM36.5844 215.313H38.2963V217.025H36.5844V215.313ZM41.7202 215.313H43.4321V217.025H41.7202V215.313ZM45.144 215.313H46.8559V217.025H45.144V215.313ZM50.2797 215.313H51.9916V217.025H50.2797V215.313ZM51.9916 215.313H53.7035V217.025H51.9916V215.313ZM53.7035 215.313H55.4154V217.025H53.7035V215.313ZM58.8393 215.313H60.5512V217.025H58.8393V215.313ZM62.2631 215.313H63.975V217.025H62.2631V215.313ZM63.975 215.313H65.6869V217.025H63.975V215.313ZM65.6869 215.313H67.3988V217.025H65.6869V215.313ZM69.1107 215.313H70.8226V217.025H69.1107V215.313ZM21.1772 217.025H22.8892V218.737H21.1772V217.025ZM24.6011 217.025H26.313V218.737H24.6011V217.025ZM26.313 217.025H28.0249V218.737H26.313V217.025ZM28.0249 217.025H29.7368V218.737H28.0249V217.025ZM31.4487 217.025H33.1606V218.737H31.4487V217.025ZM36.5844 217.025H38.2963V218.737H36.5844V217.025ZM41.7202 217.025H43.4321V218.737H41.7202V217.025ZM43.4321 217.025H45.144V218.737H43.4321V217.025ZM45.144 217.025H46.8559V218.737H45.144V217.025ZM48.5678 217.025H50.2797V218.737H48.5678V217.025ZM51.9916 217.025H53.7035V218.737H51.9916V217.025ZM53.7035 217.025H55.4154V218.737H53.7035V217.025ZM55.4154 217.025H57.1274V218.737H55.4154V217.025ZM58.8393 217.025H60.5512V218.737H58.8393V217.025ZM62.2631 217.025H63.975V218.737H62.2631V217.025ZM63.975 217.025H65.6869V218.737H63.975V217.025ZM65.6869 217.025H67.3988V218.737H65.6869V217.025ZM69.1107 217.025H70.8226V218.737H69.1107V217.025ZM21.1772 218.737H22.8892V220.449H21.1772V218.737ZM31.4487 218.737H33.1606V220.449H31.4487V218.737ZM36.5844 218.737H38.2963V220.449H36.5844V218.737ZM43.4321 218.737H45.144V220.449H43.4321V218.737ZM46.8559 218.737H48.5678V220.449H46.8559V218.737ZM48.5678 218.737H50.2797V220.449H48.5678V218.737ZM51.9916 218.737H53.7035V220.449H51.9916V218.737ZM55.4154 218.737H57.1274V220.449H55.4154V218.737ZM58.8393 218.737H60.5512V220.449H58.8393V218.737ZM69.1107 218.737H70.8226V220.449H69.1107V218.737ZM21.1772 220.449H22.8892V222.161H21.1772V220.449ZM22.8892 220.449H24.6011V222.161H22.8892V220.449ZM24.6011 220.449H26.313V222.161H24.6011V220.449ZM26.313 220.449H28.0249V222.161H26.313V220.449ZM28.0249 220.449H29.7368V222.161H28.0249V220.449ZM29.7368 220.449H31.4487V222.161H29.7368V220.449ZM31.4487 220.449H33.1606V222.161H31.4487V220.449ZM34.8725 220.449H36.5844V222.161H34.8725V220.449ZM38.2963 220.449H40.0083V222.161H38.2963V220.449ZM41.7202 220.449H43.4321V222.161H41.7202V220.449ZM45.144 220.449H46.8559V222.161H45.144V220.449ZM48.5678 220.449H50.2797V222.161H48.5678V220.449ZM51.9916 220.449H53.7035V222.161H51.9916V220.449ZM55.4154 220.449H57.1274V222.161H55.4154V220.449ZM58.8393 220.449H60.5512V222.161H58.8393V220.449ZM60.5512 220.449H62.2631V222.161H60.5512V220.449ZM62.2631 220.449H63.975V222.161H62.2631V220.449ZM63.975 220.449H65.6869V222.161H63.975V220.449ZM65.6869 220.449H67.3988V222.161H65.6869V220.449ZM67.3988 220.449H69.1107V222.161H67.3988V220.449ZM69.1107 220.449H70.8226V222.161H69.1107V220.449ZM38.2963 222.161H40.0083V223.873H38.2963V222.161ZM40.0083 222.161H41.7202V223.873H40.0083V222.161ZM43.4321 222.161H45.144V223.873H43.4321V222.161ZM45.144 222.161H46.8559V223.873H45.144V222.161ZM48.5678 222.161H50.2797V223.873H48.5678V222.161ZM53.7035 222.161H55.4154V223.873H53.7035V222.161ZM55.4154 222.161H57.1274V223.873H55.4154V222.161ZM22.8892 223.873H24.6011V225.584H22.8892V223.873ZM31.4487 223.873H33.1606V225.584H31.4487V223.873ZM33.1606 223.873H34.8725V225.584H33.1606V223.873ZM34.8725 223.873H36.5844V225.584H34.8725V223.873ZM36.5844 223.873H38.2963V225.584H36.5844V223.873ZM38.2963 223.873H40.0083V225.584H38.2963V223.873ZM48.5678 223.873H50.2797V225.584H48.5678V223.873ZM51.9916 223.873H53.7035V225.584H51.9916V223.873ZM55.4154 223.873H57.1274V225.584H55.4154V223.873ZM57.1274 223.873H58.8393V225.584H57.1274V223.873ZM67.3988 223.873H69.1107V225.584H67.3988V223.873ZM69.1107 223.873H70.8226V225.584H69.1107V223.873ZM21.1772 225.584H22.8892V227.296H21.1772V225.584ZM22.8892 225.584H24.6011V227.296H22.8892V225.584ZM26.313 225.584H28.0249V227.296H26.313V225.584ZM28.0249 225.584H29.7368V227.296H28.0249V225.584ZM29.7368 225.584H31.4487V227.296H29.7368V225.584ZM33.1606 225.584H34.8725V227.296H33.1606V225.584ZM34.8725 225.584H36.5844V227.296H34.8725V225.584ZM41.7202 225.584H43.4321V227.296H41.7202V225.584ZM43.4321 225.584H45.144V227.296H43.4321V225.584ZM46.8559 225.584H48.5678V227.296H46.8559V225.584ZM50.2797 225.584H51.9916V227.296H50.2797V225.584ZM55.4154 225.584H57.1274V227.296H55.4154V225.584ZM60.5512 225.584H62.2631V227.296H60.5512V225.584ZM62.2631 225.584H63.975V227.296H62.2631V225.584ZM63.975 225.584H65.6869V227.296H63.975V225.584ZM67.3988 225.584H69.1107V227.296H67.3988V225.584ZM22.8892 227.296H24.6011V229.008H22.8892V227.296ZM28.0249 227.296H29.7368V229.008H28.0249V227.296ZM29.7368 227.296H31.4487V229.008H29.7368V227.296ZM31.4487 227.296H33.1606V229.008H31.4487V227.296ZM34.8725 227.296H36.5844V229.008H34.8725V227.296ZM36.5844 227.296H38.2963V229.008H36.5844V227.296ZM41.7202 227.296H43.4321V229.008H41.7202V227.296ZM46.8559 227.296H48.5678V229.008H46.8559V227.296ZM48.5678 227.296H50.2797V229.008H48.5678V227.296ZM50.2797 227.296H51.9916V229.008H50.2797V227.296ZM55.4154 227.296H57.1274V229.008H55.4154V227.296ZM57.1274 227.296H58.8393V229.008H57.1274V227.296ZM58.8393 227.296H60.5512V229.008H58.8393V227.296ZM60.5512 227.296H62.2631V229.008H60.5512V227.296ZM65.6869 227.296H67.3988V229.008H65.6869V227.296ZM21.1772 229.008H22.8892V230.72H21.1772V229.008ZM24.6011 229.008H26.313V230.72H24.6011V229.008ZM26.313 229.008H28.0249V230.72H26.313V229.008ZM28.0249 229.008H29.7368V230.72H28.0249V229.008ZM34.8725 229.008H36.5844V230.72H34.8725V229.008ZM38.2963 229.008H40.0083V230.72H38.2963V229.008ZM45.144 229.008H46.8559V230.72H45.144V229.008ZM51.9916 229.008H53.7035V230.72H51.9916V229.008ZM58.8393 229.008H60.5512V230.72H58.8393V229.008ZM60.5512 229.008H62.2631V230.72H60.5512V229.008ZM63.975 229.008H65.6869V230.72H63.975V229.008ZM28.0249 230.72H29.7368V232.432H28.0249V230.72ZM29.7368 230.72H31.4487V232.432H29.7368V230.72ZM31.4487 230.72H33.1606V232.432H31.4487V230.72ZM33.1606 230.72H34.8725V232.432H33.1606V230.72ZM34.8725 230.72H36.5844V232.432H34.8725V230.72ZM36.5844 230.72H38.2963V232.432H36.5844V230.72ZM38.2963 230.72H40.0083V232.432H38.2963V230.72ZM41.7202 230.72H43.4321V232.432H41.7202V230.72ZM45.144 230.72H46.8559V232.432H45.144V230.72ZM48.5678 230.72H50.2797V232.432H48.5678V230.72ZM53.7035 230.72H55.4154V232.432H53.7035V230.72ZM57.1274 230.72H58.8393V232.432H57.1274V230.72ZM58.8393 230.72H60.5512V232.432H58.8393V230.72ZM67.3988 230.72H69.1107V232.432H67.3988V230.72ZM21.1772 232.432H22.8892V234.144H21.1772V232.432ZM28.0249 232.432H29.7368V234.144H28.0249V232.432ZM29.7368 232.432H31.4487V234.144H29.7368V232.432ZM33.1606 232.432H34.8725V234.144H33.1606V232.432ZM34.8725 232.432H36.5844V234.144H34.8725V232.432ZM38.2963 232.432H40.0083V234.144H38.2963V232.432ZM40.0083 232.432H41.7202V234.144H40.0083V232.432ZM41.7202 232.432H43.4321V234.144H41.7202V232.432ZM50.2797 232.432H51.9916V234.144H50.2797V232.432ZM51.9916 232.432H53.7035V234.144H51.9916V232.432ZM53.7035 232.432H55.4154V234.144H53.7035V232.432ZM55.4154 232.432H57.1274V234.144H55.4154V232.432ZM58.8393 232.432H60.5512V234.144H58.8393V232.432ZM62.2631 232.432H63.975V234.144H62.2631V232.432ZM63.975 232.432H65.6869V234.144H63.975V232.432ZM69.1107 232.432H70.8226V234.144H69.1107V232.432ZM22.8892 234.144H24.6011V235.856H22.8892V234.144ZM26.313 234.144H28.0249V235.856H26.313V234.144ZM29.7368 234.144H31.4487V235.856H29.7368V234.144ZM31.4487 234.144H33.1606V235.856H31.4487V234.144ZM36.5844 234.144H38.2963V235.856H36.5844V234.144ZM50.2797 234.144H51.9916V235.856H50.2797V234.144ZM55.4154 234.144H57.1274V235.856H55.4154V234.144ZM58.8393 234.144H60.5512V235.856H58.8393V234.144ZM60.5512 234.144H62.2631V235.856H60.5512V234.144ZM21.1772 235.856H22.8892V237.568H21.1772V235.856ZM22.8892 235.856H24.6011V237.568H22.8892V235.856ZM29.7368 235.856H31.4487V237.568H29.7368V235.856ZM46.8559 235.856H48.5678V237.568H46.8559V235.856ZM48.5678 235.856H50.2797V237.568H48.5678V235.856ZM50.2797 235.856H51.9916V237.568H50.2797V235.856ZM51.9916 235.856H53.7035V237.568H51.9916V235.856ZM53.7035 235.856H55.4154V237.568H53.7035V235.856ZM57.1274 235.856H58.8393V237.568H57.1274V235.856ZM58.8393 235.856H60.5512V237.568H58.8393V235.856ZM62.2631 235.856H63.975V237.568H62.2631V235.856ZM63.975 235.856H65.6869V237.568H63.975V235.856ZM65.6869 235.856H67.3988V237.568H65.6869V235.856ZM67.3988 235.856H69.1107V237.568H67.3988V235.856ZM69.1107 235.856H70.8226V237.568H69.1107V235.856ZM21.1772 237.568H22.8892V239.28H21.1772V237.568ZM22.8892 237.568H24.6011V239.28H22.8892V237.568ZM26.313 237.568H28.0249V239.28H26.313V237.568ZM31.4487 237.568H33.1606V239.28H31.4487V237.568ZM33.1606 237.568H34.8725V239.28H33.1606V237.568ZM34.8725 237.568H36.5844V239.28H34.8725V237.568ZM43.4321 237.568H45.144V239.28H43.4321V237.568ZM48.5678 237.568H50.2797V239.28H48.5678V237.568ZM57.1274 237.568H58.8393V239.28H57.1274V237.568ZM63.975 237.568H65.6869V239.28H63.975V237.568ZM65.6869 237.568H67.3988V239.28H65.6869V237.568ZM67.3988 237.568H69.1107V239.28H67.3988V237.568ZM21.1772 239.28H22.8892V240.992H21.1772V239.28ZM33.1606 239.28H34.8725V240.992H33.1606V239.28ZM40.0083 239.28H41.7202V240.992H40.0083V239.28ZM43.4321 239.28H45.144V240.992H43.4321V239.28ZM51.9916 239.28H53.7035V240.992H51.9916V239.28ZM55.4154 239.28H57.1274V240.992H55.4154V239.28ZM58.8393 239.28H60.5512V240.992H58.8393V239.28ZM60.5512 239.28H62.2631V240.992H60.5512V239.28ZM62.2631 239.28H63.975V240.992H62.2631V239.28ZM63.975 239.28H65.6869V240.992H63.975V239.28ZM69.1107 239.28H70.8226V240.992H69.1107V239.28ZM21.1772 240.992H22.8892V242.704H21.1772V240.992ZM22.8892 240.992H24.6011V242.704H22.8892V240.992ZM24.6011 240.992H26.313V242.704H24.6011V240.992ZM28.0249 240.992H29.7368V242.704H28.0249V240.992ZM29.7368 240.992H31.4487V242.704H29.7368V240.992ZM31.4487 240.992H33.1606V242.704H31.4487V240.992ZM33.1606 240.992H34.8725V242.704H33.1606V240.992ZM34.8725 240.992H36.5844V242.704H34.8725V240.992ZM36.5844 240.992H38.2963V242.704H36.5844V240.992ZM41.7202 240.992H43.4321V242.704H41.7202V240.992ZM45.144 240.992H46.8559V242.704H45.144V240.992ZM46.8559 240.992H48.5678V242.704H46.8559V240.992ZM50.2797 240.992H51.9916V242.704H50.2797V240.992ZM55.4154 240.992H57.1274V242.704H55.4154V240.992ZM63.975 240.992H65.6869V242.704H63.975V240.992ZM65.6869 240.992H67.3988V242.704H65.6869V240.992ZM69.1107 240.992H70.8226V242.704H69.1107V240.992ZM21.1772 242.704H22.8892V244.415H21.1772V242.704ZM24.6011 242.704H26.313V244.415H24.6011V242.704ZM28.0249 242.704H29.7368V244.415H28.0249V242.704ZM29.7368 242.704H31.4487V244.415H29.7368V242.704ZM34.8725 242.704H36.5844V244.415H34.8725V242.704ZM36.5844 242.704H38.2963V244.415H36.5844V242.704ZM40.0083 242.704H41.7202V244.415H40.0083V242.704ZM41.7202 242.704H43.4321V244.415H41.7202V242.704ZM53.7035 242.704H55.4154V244.415H53.7035V242.704ZM55.4154 242.704H57.1274V244.415H55.4154V242.704ZM57.1274 242.704H58.8393V244.415H57.1274V242.704ZM58.8393 242.704H60.5512V244.415H58.8393V242.704ZM62.2631 242.704H63.975V244.415H62.2631V242.704ZM21.1772 244.415H22.8892V246.127H21.1772V244.415ZM26.313 244.415H28.0249V246.127H26.313V244.415ZM28.0249 244.415H29.7368V246.127H28.0249V244.415ZM29.7368 244.415H31.4487V246.127H29.7368V244.415ZM31.4487 244.415H33.1606V246.127H31.4487V244.415ZM33.1606 244.415H34.8725V246.127H33.1606V244.415ZM36.5844 244.415H38.2963V246.127H36.5844V244.415ZM45.144 244.415H46.8559V246.127H45.144V244.415ZM46.8559 244.415H48.5678V246.127H46.8559V244.415ZM48.5678 244.415H50.2797V246.127H48.5678V244.415ZM50.2797 244.415H51.9916V246.127H50.2797V244.415ZM53.7035 244.415H55.4154V246.127H53.7035V244.415ZM55.4154 244.415H57.1274V246.127H55.4154V244.415ZM57.1274 244.415H58.8393V246.127H57.1274V244.415ZM58.8393 244.415H60.5512V246.127H58.8393V244.415ZM60.5512 244.415H62.2631V246.127H60.5512V244.415ZM62.2631 244.415H63.975V246.127H62.2631V244.415ZM65.6869 244.415H67.3988V246.127H65.6869V244.415ZM67.3988 244.415H69.1107V246.127H67.3988V244.415ZM69.1107 244.415H70.8226V246.127H69.1107V244.415ZM34.8725 246.127H36.5844V247.839H34.8725V246.127ZM38.2963 246.127H40.0083V247.839H38.2963V246.127ZM41.7202 246.127H43.4321V247.839H41.7202V246.127ZM43.4321 246.127H45.144V247.839H43.4321V246.127ZM46.8559 246.127H48.5678V247.839H46.8559V246.127ZM51.9916 246.127H53.7035V247.839H51.9916V246.127ZM53.7035 246.127H55.4154V247.839H53.7035V246.127ZM55.4154 246.127H57.1274V247.839H55.4154V246.127ZM62.2631 246.127H63.975V247.839H62.2631V246.127ZM63.975 246.127H65.6869V247.839H63.975V246.127ZM65.6869 246.127H67.3988V247.839H65.6869V246.127ZM21.1772 247.839H22.8892V249.551H21.1772V247.839ZM22.8892 247.839H24.6011V249.551H22.8892V247.839ZM24.6011 247.839H26.313V249.551H24.6011V247.839ZM26.313 247.839H28.0249V249.551H26.313V247.839ZM28.0249 247.839H29.7368V249.551H28.0249V247.839ZM29.7368 247.839H31.4487V249.551H29.7368V247.839ZM31.4487 247.839H33.1606V249.551H31.4487V247.839ZM34.8725 247.839H36.5844V249.551H34.8725V247.839ZM36.5844 247.839H38.2963V249.551H36.5844V247.839ZM38.2963 247.839H40.0083V249.551H38.2963V247.839ZM43.4321 247.839H45.144V249.551H43.4321V247.839ZM46.8559 247.839H48.5678V249.551H46.8559V247.839ZM48.5678 247.839H50.2797V249.551H48.5678V247.839ZM51.9916 247.839H53.7035V249.551H51.9916V247.839ZM53.7035 247.839H55.4154V249.551H53.7035V247.839ZM55.4154 247.839H57.1274V249.551H55.4154V247.839ZM58.8393 247.839H60.5512V249.551H58.8393V247.839ZM62.2631 247.839H63.975V249.551H62.2631V247.839ZM21.1772 249.551H22.8892V251.263H21.1772V249.551ZM31.4487 249.551H33.1606V251.263H31.4487V249.551ZM36.5844 249.551H38.2963V251.263H36.5844V249.551ZM38.2963 249.551H40.0083V251.263H38.2963V249.551ZM40.0083 249.551H41.7202V251.263H40.0083V249.551ZM43.4321 249.551H45.144V251.263H43.4321V249.551ZM45.144 249.551H46.8559V251.263H45.144V249.551ZM46.8559 249.551H48.5678V251.263H46.8559V249.551ZM53.7035 249.551H55.4154V251.263H53.7035V249.551ZM55.4154 249.551H57.1274V251.263H55.4154V249.551ZM62.2631 249.551H63.975V251.263H62.2631V249.551ZM63.975 249.551H65.6869V251.263H63.975V249.551ZM21.1772 251.263H22.8892V252.975H21.1772V251.263ZM24.6011 251.263H26.313V252.975H24.6011V251.263ZM26.313 251.263H28.0249V252.975H26.313V251.263ZM28.0249 251.263H29.7368V252.975H28.0249V251.263ZM31.4487 251.263H33.1606V252.975H31.4487V251.263ZM36.5844 251.263H38.2963V252.975H36.5844V251.263ZM38.2963 251.263H40.0083V252.975H38.2963V251.263ZM40.0083 251.263H41.7202V252.975H40.0083V251.263ZM41.7202 251.263H43.4321V252.975H41.7202V251.263ZM43.4321 251.263H45.144V252.975H43.4321V251.263ZM45.144 251.263H46.8559V252.975H45.144V251.263ZM46.8559 251.263H48.5678V252.975H46.8559V251.263ZM48.5678 251.263H50.2797V252.975H48.5678V251.263ZM50.2797 251.263H51.9916V252.975H50.2797V251.263ZM51.9916 251.263H53.7035V252.975H51.9916V251.263ZM53.7035 251.263H55.4154V252.975H53.7035V251.263ZM55.4154 251.263H57.1274V252.975H55.4154V251.263ZM57.1274 251.263H58.8393V252.975H57.1274V251.263ZM58.8393 251.263H60.5512V252.975H58.8393V251.263ZM60.5512 251.263H62.2631V252.975H60.5512V251.263ZM62.2631 251.263H63.975V252.975H62.2631V251.263ZM69.1107 251.263H70.8226V252.975H69.1107V251.263ZM21.1772 252.975H22.8892V254.687H21.1772V252.975ZM24.6011 252.975H26.313V254.687H24.6011V252.975ZM26.313 252.975H28.0249V254.687H26.313V252.975ZM28.0249 252.975H29.7368V254.687H28.0249V252.975ZM31.4487 252.975H33.1606V254.687H31.4487V252.975ZM43.4321 252.975H45.144V254.687H43.4321V252.975ZM48.5678 252.975H50.2797V254.687H48.5678V252.975ZM50.2797 252.975H51.9916V254.687H50.2797V252.975ZM53.7035 252.975H55.4154V254.687H53.7035V252.975ZM55.4154 252.975H57.1274V254.687H55.4154V252.975ZM60.5512 252.975H62.2631V254.687H60.5512V252.975ZM63.975 252.975H65.6869V254.687H63.975V252.975ZM65.6869 252.975H67.3988V254.687H65.6869V252.975ZM67.3988 252.975H69.1107V254.687H67.3988V252.975ZM21.1772 254.687H22.8892V256.399H21.1772V254.687ZM24.6011 254.687H26.313V256.399H24.6011V254.687ZM26.313 254.687H28.0249V256.399H26.313V254.687ZM28.0249 254.687H29.7368V256.399H28.0249V254.687ZM31.4487 254.687H33.1606V256.399H31.4487V254.687ZM36.5844 254.687H38.2963V256.399H36.5844V254.687ZM38.2963 254.687H40.0083V256.399H38.2963V254.687ZM40.0083 254.687H41.7202V256.399H40.0083V254.687ZM41.7202 254.687H43.4321V256.399H41.7202V254.687ZM43.4321 254.687H45.144V256.399H43.4321V254.687ZM50.2797 254.687H51.9916V256.399H50.2797V254.687ZM53.7035 254.687H55.4154V256.399H53.7035V254.687ZM55.4154 254.687H57.1274V256.399H55.4154V254.687ZM57.1274 254.687H58.8393V256.399H57.1274V254.687ZM58.8393 254.687H60.5512V256.399H58.8393V254.687ZM60.5512 254.687H62.2631V256.399H60.5512V254.687ZM62.2631 254.687H63.975V256.399H62.2631V254.687ZM65.6869 254.687H67.3988V256.399H65.6869V254.687ZM67.3988 254.687H69.1107V256.399H67.3988V254.687ZM21.1772 256.399H22.8892V258.111H21.1772V256.399ZM31.4487 256.399H33.1606V258.111H31.4487V256.399ZM34.8725 256.399H36.5844V258.111H34.8725V256.399ZM38.2963 256.399H40.0083V258.111H38.2963V256.399ZM43.4321 256.399H45.144V258.111H43.4321V256.399ZM46.8559 256.399H48.5678V258.111H46.8559V256.399ZM51.9916 256.399H53.7035V258.111H51.9916V256.399ZM55.4154 256.399H57.1274V258.111H55.4154V256.399ZM57.1274 256.399H58.8393V258.111H57.1274V256.399ZM62.2631 256.399H63.975V258.111H62.2631V256.399ZM63.975 256.399H65.6869V258.111H63.975V256.399ZM65.6869 256.399H67.3988V258.111H65.6869V256.399ZM69.1107 256.399H70.8226V258.111H69.1107V256.399ZM21.1772 258.111H22.8892V259.823H21.1772V258.111ZM22.8892 258.111H24.6011V259.823H22.8892V258.111ZM24.6011 258.111H26.313V259.823H24.6011V258.111ZM26.313 258.111H28.0249V259.823H26.313V258.111ZM28.0249 258.111H29.7368V259.823H28.0249V258.111ZM29.7368 258.111H31.4487V259.823H29.7368V258.111ZM31.4487 258.111H33.1606V259.823H31.4487V258.111ZM36.5844 258.111H38.2963V259.823H36.5844V258.111ZM38.2963 258.111H40.0083V259.823H38.2963V258.111ZM41.7202 258.111H43.4321V259.823H41.7202V258.111ZM43.4321 258.111H45.144V259.823H43.4321V258.111ZM45.144 258.111H46.8559V259.823H45.144V258.111ZM48.5678 258.111H50.2797V259.823H48.5678V258.111ZM50.2797 258.111H51.9916V259.823H50.2797V258.111ZM58.8393 258.111H60.5512V259.823H58.8393V258.111ZM62.2631 258.111H63.975V259.823H62.2631V258.111ZM65.6869 258.111H67.3988V259.823H65.6869V258.111Z" fill="white"/>
<path d="M267 83H474.5" stroke="url(#paint0_linear_94_3224)"/>
</g>
<defs>
<filter id="filter0_d_94_3224" x="0" y="0" width="512.606" height="281.258" filterUnits="userSpaceOnUse" color-interpolation-filters="sRGB">
<feFlood flood-opacity="0" result="BackgroundImageFix"/>
<feColorMatrix in="SourceAlpha" type="matrix" values="0 0 0 0 0 0 0 0 0 0 0 0 0 0 0 0 0 0 127 0" result="hardAlpha"/>
<feOffset dy="4"/>
<feGaussianBlur stdDeviation="4.5"/>
<feComposite in2="hardAlpha" operator="out"/>
<feColorMatrix type="matrix" values="0 0 0 0 0 0 0 0 0 0 0 0 0 0 0 0 0 0 0.25 0"/>
<feBlend mode="normal" in2="BackgroundImageFix" result="effect1_dropShadow_94_3224"/>
<feBlend mode="normal" in="SourceGraphic" in2="effect1_dropShadow_94_3224" result="shape"/>
</filter>
<linearGradient id="paint0_linear_94_3224" x1="473.5" y1="82.9992" x2="267" y2="83" gradientUnits="userSpaceOnUse">
<stop stop-color="#0C5AA1"/>
<stop offset="1" stop-color="#0C5AA1" stop-opacity="0"/>
</linearGradient>
</defs>
</svg>
