<svg width="513" height="282" viewBox="0 0 513 282" fill="none" xmlns="http://www.w3.org/2000/svg">
<g filter="url(#filter0_d_90_210)">
<rect x="9" y="5" width="494.606" height="263.258" fill="url(#paint0_linear_90_210)"/>
</g>
<path d="M257.565 48.1864C271.657 48.6584 285.068 54.3584 295.188 64.1762C305.307 73.994 311.41 87.2268 312.308 101.298" stroke="white" stroke-width="5"/>
<path d="M312.392 106.813C311.92 120.905 306.22 134.316 296.402 144.436C286.584 154.555 273.352 160.658 259.281 161.556" stroke="white" stroke-width="5"/>
<path d="M253.765 161.64C239.673 161.168 226.262 155.468 216.143 145.65C206.023 135.832 199.92 122.599 199.022 108.529" stroke="white" stroke-width="5"/>
<path d="M198.938 103.013C199.411 88.9219 205.11 75.5105 214.928 65.3911C224.746 55.2716 237.979 49.1685 252.05 48.2703" stroke="white" stroke-width="5"/>
<path d="M230.351 129.077V80.7495H267.172V87.1011H236.679V99.1139H249.337L247.908 105.535H236.679V122.656H267.172V129.077H230.351Z" fill="white"/>
<path d="M269.473 129.077V80.7495H275.802V129.077H269.473Z" fill="white"/>
<path d="M255.116 118.721C254.31 118.721 253.624 118.445 253.06 117.893C252.495 117.34 252.213 116.67 252.213 115.881V110.752L255.761 106.807L252.213 103.099V93.9459C252.213 93.8144 252.227 93.7092 252.254 93.6303C252.307 92.9202 252.603 92.3284 253.141 91.855C253.705 91.3553 254.364 91.1055 255.116 91.1055H264.309C265.062 91.1055 265.707 91.3553 266.244 91.855C266.782 92.3284 267.091 92.9202 267.172 93.6303V99.0746L260.68 106.412L267.172 113.119V118.721L258.14 109.253L255.963 111.699V113.632C255.963 114.026 256.097 114.368 256.366 114.658C256.662 114.921 257.011 115.052 257.414 115.052H259.672L263.099 118.721H255.116ZM258.301 103.966L263.462 98.2461V96.1552C263.462 95.787 263.314 95.4714 263.019 95.2084C262.75 94.9191 262.414 94.7744 262.011 94.7744H257.414C257.011 94.7744 256.662 94.9191 256.366 95.2084C256.097 95.4714 255.963 95.787 255.963 96.1552V101.599L258.301 103.966Z" fill="white"/>
<path d="M329.729 184.578V190.603C329.729 191.176 329.877 191.633 330.175 191.973C330.494 192.292 330.919 192.451 331.45 192.451C331.939 192.451 332.449 192.186 332.98 191.655L334 193.44C333.107 194.226 332.141 194.619 331.099 194.619C330.015 194.619 329.102 194.247 328.358 193.503C327.614 192.738 327.242 191.75 327.242 190.539V184.578H325.744V182.569H327.242V178.84H329.729V182.569H332.852V184.578H329.729Z" fill="white"/>
<path d="M314.751 194.428H312.265V182.57H314.751V184.705C315.155 183.983 315.707 183.42 316.409 183.016C317.131 182.591 317.896 182.378 318.704 182.378C320.085 182.378 321.18 182.793 321.987 183.622C322.795 184.45 323.199 185.63 323.199 187.16V194.428H320.68V187.925C320.68 185.736 319.777 184.642 317.971 184.642C317.057 184.642 316.292 184.939 315.675 185.534C315.059 186.108 314.751 186.926 314.751 187.989V194.428Z" fill="white"/>
<path d="M308.754 194.428H306.491V192.834C305.492 194.024 304.175 194.619 302.538 194.619C301.285 194.619 300.254 194.269 299.446 193.567C298.66 192.845 298.267 191.91 298.267 190.762C298.267 189.615 298.692 188.743 299.542 188.148C300.392 187.553 301.561 187.256 303.048 187.256H306.3V186.809C306.3 185.237 305.418 184.45 303.654 184.45C302.549 184.45 301.401 184.854 300.211 185.662L299.096 184.1C300.562 182.952 302.198 182.378 304.005 182.378C305.471 182.378 306.629 182.75 307.479 183.494C308.329 184.217 308.754 185.311 308.754 186.777V194.428ZM306.268 189.009H303.463C301.656 189.009 300.753 189.572 300.753 190.698C300.753 191.272 300.976 191.718 301.423 192.037C301.869 192.335 302.496 192.484 303.303 192.484C304.132 192.484 304.834 192.26 305.407 191.814C305.981 191.347 306.268 190.741 306.268 189.997V189.009Z" fill="white"/>
<path d="M292.889 184.578V190.603C292.889 191.176 293.038 191.633 293.335 191.973C293.654 192.292 294.079 192.451 294.61 192.451C295.099 192.451 295.609 192.186 296.14 191.655L297.16 193.44C296.268 194.226 295.301 194.619 294.26 194.619C293.176 194.619 292.262 194.247 291.518 193.503C290.774 192.738 290.402 191.75 290.402 190.539V184.578H288.904V182.569H290.402V178.84H292.889V182.569H296.013V184.578H292.889Z" fill="white"/>
<path d="M282.616 194.619C280.703 194.619 278.982 194.024 277.451 192.834L278.663 190.89C280.023 191.931 281.362 192.452 282.679 192.452C283.232 192.452 283.668 192.324 283.986 192.069C284.326 191.793 284.496 191.453 284.496 191.049C284.496 190.454 283.71 189.923 282.137 189.455C282.095 189.434 282.042 189.413 281.978 189.391C281.936 189.37 281.904 189.36 281.882 189.36C279.417 188.701 278.185 187.585 278.185 186.012C278.185 184.907 278.599 184.025 279.428 183.367C280.278 182.708 281.394 182.378 282.775 182.378C284.135 182.378 285.431 182.782 286.664 183.59L285.74 185.439C284.783 184.801 283.731 184.482 282.584 184.482C281.245 184.482 280.575 184.907 280.575 185.757C280.575 186.119 280.703 186.384 280.958 186.554C281.234 186.703 281.681 186.852 282.297 187.001C283.232 187.256 284.018 187.511 284.656 187.766C285.081 187.957 285.453 188.159 285.771 188.371C286.579 188.924 286.983 189.763 286.983 190.89C286.983 191.995 286.568 192.898 285.74 193.599C284.932 194.279 283.891 194.619 282.616 194.619Z" fill="white"/>
<path d="M266.618 194.428H264.132V182.57H266.618V184.705C267.022 183.983 267.574 183.42 268.276 183.016C268.998 182.591 269.763 182.378 270.571 182.378C271.952 182.378 273.047 182.793 273.854 183.622C274.662 184.45 275.066 185.63 275.066 187.16V194.428H272.547V187.925C272.547 185.736 271.644 184.642 269.838 184.642C268.924 184.642 268.159 184.939 267.542 185.534C266.926 186.108 266.618 186.926 266.618 187.989V194.428Z" fill="white"/>
<path d="M257.537 178.84H260.183V194.428H257.537V178.84Z" fill="white"/>
<path d="M234.833 190.061C234.833 188.382 236.055 186.884 238.499 185.566C237.84 184.801 237.394 184.206 237.16 183.781C236.947 183.356 236.841 182.814 236.841 182.155C236.841 181.008 237.266 180.105 238.116 179.446C238.966 178.787 240.018 178.458 241.272 178.458C242.505 178.458 243.525 178.776 244.332 179.414C245.14 180.03 245.543 180.87 245.543 181.932C245.543 183.42 244.353 184.812 241.973 186.108C242.972 187.319 243.939 188.435 244.874 189.455C245.342 188.754 245.703 187.957 245.958 187.064L247.775 188.371C247.414 189.349 246.978 190.242 246.468 191.049C246.638 191.219 246.978 191.559 247.488 192.069C247.998 192.558 248.412 192.962 248.731 193.28L247.074 194.842L245.033 192.802C243.695 194.014 242.058 194.619 240.124 194.619C238.615 194.619 237.351 194.205 236.331 193.376C235.332 192.547 234.833 191.442 234.833 190.061ZM240.411 192.452C241.346 192.452 242.345 192.016 243.408 191.145C241.686 189.296 240.496 187.978 239.837 187.192C238.159 188.106 237.319 189.094 237.319 190.157C237.319 190.837 237.606 191.389 238.18 191.814C238.754 192.239 239.497 192.452 240.411 192.452ZM239.327 181.996C239.327 182.4 239.412 182.761 239.582 183.08C239.774 183.399 240.135 183.877 240.666 184.514C242.345 183.685 243.185 182.91 243.185 182.187C243.185 181.635 242.993 181.21 242.611 180.912C242.25 180.593 241.803 180.434 241.272 180.434C240.762 180.434 240.305 180.593 239.901 180.912C239.519 181.231 239.327 181.592 239.327 181.996Z" fill="white"/>
<path d="M215.166 197.967L216.314 195.958C216.845 196.447 217.387 196.691 217.94 196.691C218.471 196.691 218.917 196.49 219.279 196.086C219.64 195.703 219.821 195.268 219.821 194.779C219.821 194.588 218.216 190.518 215.007 182.57H217.685L221.255 191.304L224.793 182.57H227.471L221.701 196.66C221.361 197.425 220.873 198.03 220.235 198.477C219.597 198.923 218.896 199.146 218.131 199.146C217.026 199.146 216.038 198.753 215.166 197.967Z" fill="white"/>
<path d="M209.42 194.619C207.507 194.619 205.786 194.024 204.256 192.834L205.467 190.89C206.827 191.931 208.166 192.452 209.483 192.452C210.036 192.452 210.472 192.324 210.79 192.069C211.13 191.793 211.3 191.453 211.3 191.049C211.3 190.454 210.514 189.923 208.942 189.455C208.899 189.434 208.846 189.413 208.782 189.391C208.74 189.37 208.708 189.36 208.687 189.36C206.221 188.701 204.989 187.585 204.989 186.012C204.989 184.907 205.403 184.025 206.232 183.367C207.082 182.708 208.198 182.378 209.579 182.378C210.939 182.378 212.236 182.782 213.468 183.59L212.544 185.439C211.587 184.801 210.535 184.482 209.388 184.482C208.049 184.482 207.38 184.907 207.38 185.757C207.38 186.119 207.507 186.384 207.762 186.554C208.038 186.703 208.485 186.852 209.101 187.001C210.036 187.256 210.822 187.511 211.46 187.766C211.885 187.957 212.257 188.159 212.576 188.371C213.383 188.924 213.787 189.763 213.787 190.89C213.787 191.995 213.372 192.898 212.544 193.599C211.736 194.279 210.695 194.619 209.42 194.619Z" fill="white"/>
<path d="M201.829 194.428H199.566V192.834C198.567 194.024 197.25 194.619 195.613 194.619C194.359 194.619 193.329 194.269 192.521 193.567C191.735 192.845 191.342 191.91 191.342 190.762C191.342 189.615 191.767 188.743 192.617 188.148C193.467 187.553 194.636 187.256 196.123 187.256H199.375V186.809C199.375 185.237 198.493 184.45 196.729 184.45C195.624 184.45 194.476 184.854 193.286 185.662L192.17 184.1C193.637 182.952 195.273 182.378 197.08 182.378C198.546 182.378 199.704 182.75 200.554 183.494C201.404 184.217 201.829 185.311 201.829 186.777V194.428ZM199.343 189.009H196.538C194.731 189.009 193.828 189.572 193.828 190.698C193.828 191.272 194.051 191.718 194.497 192.037C194.944 192.335 195.571 192.484 196.378 192.484C197.207 192.484 197.908 192.26 198.482 191.814C199.056 191.347 199.343 190.741 199.343 189.997V189.009Z" fill="white"/>
<path d="M188.966 178.84V181.294H180.646V185.438H188.105V187.766H180.646V191.941H189.221V194.428H178V178.84H188.966Z" fill="white"/>
<path d="M208.048 234.128C207.392 234.128 206.825 233.991 206.347 233.719C205.873 233.443 205.508 233.054 205.252 232.551C204.997 232.045 204.869 231.45 204.869 230.766C204.869 230.092 204.997 229.501 205.252 228.993C205.511 228.482 205.872 228.084 206.335 227.8C206.798 227.513 207.342 227.369 207.967 227.369C208.37 227.369 208.751 227.435 209.109 227.565C209.47 227.693 209.788 227.892 210.063 228.162C210.342 228.432 210.561 228.776 210.72 229.193C210.879 229.608 210.958 230.102 210.958 230.676V231.149H205.593V230.109H209.48C209.477 229.814 209.413 229.551 209.288 229.321C209.163 229.088 208.988 228.905 208.764 228.771C208.542 228.638 208.284 228.571 207.988 228.571C207.673 228.571 207.396 228.648 207.157 228.801C206.919 228.952 206.732 229.151 206.599 229.398C206.468 229.642 206.401 229.911 206.399 230.203V231.111C206.399 231.491 206.468 231.818 206.607 232.091C206.747 232.361 206.941 232.568 207.191 232.713C207.441 232.855 207.734 232.926 208.069 232.926C208.294 232.926 208.497 232.895 208.678 232.832C208.86 232.767 209.018 232.672 209.151 232.547C209.285 232.422 209.386 232.267 209.454 232.082L210.894 232.244C210.803 232.625 210.63 232.957 210.374 233.241C210.122 233.523 209.798 233.741 209.403 233.898C209.008 234.051 208.556 234.128 208.048 234.128ZM214.147 234.132C213.732 234.132 213.358 234.058 213.026 233.911C212.697 233.76 212.435 233.538 212.242 233.246C212.052 232.953 211.956 232.592 211.956 232.163C211.956 231.794 212.025 231.489 212.161 231.247C212.297 231.006 212.483 230.812 212.719 230.668C212.955 230.523 213.221 230.413 213.516 230.339C213.814 230.263 214.123 230.207 214.441 230.173C214.824 230.134 215.135 230.098 215.374 230.067C215.613 230.033 215.786 229.982 215.894 229.913C216.005 229.842 216.06 229.733 216.06 229.585V229.56C216.06 229.239 215.965 228.99 215.775 228.814C215.584 228.638 215.31 228.55 214.952 228.55C214.574 228.55 214.275 228.632 214.053 228.797C213.834 228.962 213.687 229.156 213.61 229.381L212.17 229.176C212.283 228.778 212.471 228.446 212.732 228.179C212.993 227.909 213.313 227.707 213.691 227.574C214.069 227.438 214.486 227.369 214.944 227.369C215.259 227.369 215.573 227.406 215.885 227.48C216.198 227.554 216.483 227.676 216.742 227.847C217.001 228.014 217.208 228.243 217.364 228.533C217.523 228.822 217.603 229.185 217.603 229.619V234H216.12V233.101H216.069C215.975 233.283 215.843 233.453 215.672 233.612C215.505 233.768 215.293 233.895 215.037 233.991C214.785 234.085 214.488 234.132 214.147 234.132ZM214.547 232.999C214.857 232.999 215.126 232.937 215.353 232.815C215.58 232.69 215.755 232.526 215.877 232.321C216.002 232.116 216.064 231.893 216.064 231.652V230.881C216.016 230.92 215.934 230.957 215.817 230.991C215.704 231.026 215.576 231.055 215.434 231.081C215.292 231.107 215.151 231.129 215.012 231.149C214.873 231.169 214.752 231.186 214.65 231.2C214.42 231.232 214.214 231.283 214.032 231.354C213.85 231.425 213.706 231.524 213.601 231.652C213.496 231.777 213.444 231.939 213.444 232.138C213.444 232.422 213.547 232.636 213.755 232.781C213.962 232.926 214.226 232.999 214.547 232.999ZM224.327 229.185L222.921 229.338C222.881 229.196 222.812 229.062 222.712 228.938C222.616 228.812 222.485 228.712 222.32 228.635C222.155 228.558 221.954 228.52 221.715 228.52C221.394 228.52 221.124 228.589 220.905 228.729C220.689 228.868 220.583 229.048 220.586 229.27C220.583 229.46 220.653 229.615 220.795 229.734C220.939 229.854 221.178 229.952 221.51 230.028L222.627 230.267C223.246 230.401 223.706 230.612 224.008 230.902C224.312 231.192 224.465 231.571 224.468 232.04C224.465 232.452 224.344 232.815 224.106 233.131C223.87 233.443 223.542 233.687 223.121 233.864C222.701 234.04 222.218 234.128 221.672 234.128C220.871 234.128 220.226 233.96 219.738 233.625C219.249 233.287 218.958 232.817 218.864 232.214L220.368 232.07C220.437 232.365 220.581 232.588 220.803 232.739C221.025 232.889 221.313 232.964 221.668 232.964C222.035 232.964 222.329 232.889 222.55 232.739C222.775 232.588 222.887 232.402 222.887 232.18C222.887 231.993 222.814 231.838 222.67 231.716C222.528 231.594 222.306 231.5 222.005 231.435L220.888 231.2C220.26 231.07 219.796 230.849 219.495 230.54C219.194 230.227 219.045 229.832 219.047 229.355C219.045 228.952 219.154 228.602 219.376 228.307C219.6 228.009 219.911 227.778 220.309 227.616C220.709 227.452 221.171 227.369 221.694 227.369C222.461 227.369 223.064 227.533 223.505 227.859C223.948 228.186 224.222 228.628 224.327 229.185ZM226.699 236.455C226.488 236.455 226.294 236.438 226.115 236.403C225.939 236.372 225.798 236.335 225.693 236.293L226.051 235.091C226.275 235.156 226.476 235.188 226.652 235.185C226.828 235.182 226.983 235.126 227.116 235.018C227.253 234.913 227.368 234.737 227.461 234.49L227.594 234.136L225.22 227.455H226.856L228.365 232.398H228.433L229.946 227.455H231.586L228.966 234.793C228.844 235.139 228.682 235.436 228.48 235.683C228.278 235.933 228.031 236.124 227.738 236.254C227.449 236.388 227.102 236.455 226.699 236.455ZM235.262 234.128C234.665 234.128 234.153 234.02 233.724 233.804C233.295 233.588 232.964 233.297 232.731 232.93C232.501 232.561 232.385 232.145 232.385 231.682C232.385 231.332 232.456 231.023 232.599 230.753C232.743 230.483 232.942 230.233 233.195 230.003C233.451 229.773 233.746 229.544 234.081 229.317L235.628 228.264C235.856 228.116 236.028 227.96 236.144 227.795C236.263 227.631 236.323 227.437 236.323 227.216C236.323 227.028 236.243 226.851 236.084 226.683C235.928 226.516 235.712 226.432 235.437 226.432C235.252 226.432 235.089 226.476 234.947 226.564C234.807 226.649 234.698 226.761 234.618 226.901C234.542 227.04 234.503 227.188 234.503 227.344C234.503 227.534 234.556 227.727 234.661 227.923C234.769 228.119 234.908 228.322 235.079 228.533C235.252 228.743 235.437 228.966 235.633 229.202L239.728 234H238.057L234.657 230.105C234.404 229.81 234.16 229.518 233.924 229.232C233.691 228.945 233.499 228.646 233.349 228.337C233.201 228.024 233.127 227.686 233.127 227.322C233.127 226.911 233.222 226.543 233.412 226.219C233.603 225.892 233.868 225.635 234.209 225.447C234.553 225.26 234.955 225.166 235.415 225.166C235.876 225.166 236.27 225.257 236.6 225.439C236.93 225.621 237.184 225.862 237.363 226.163C237.542 226.464 237.631 226.793 237.631 227.148C237.631 227.56 237.529 227.929 237.324 228.256C237.12 228.58 236.836 228.874 236.472 229.138L234.708 230.429C234.418 230.639 234.211 230.852 234.086 231.068C233.961 231.281 233.898 231.463 233.898 231.614C233.898 231.844 233.956 232.053 234.073 232.24C234.189 232.428 234.353 232.578 234.563 232.692C234.776 232.803 235.025 232.858 235.309 232.858C235.621 232.858 235.93 232.788 236.233 232.649C236.537 232.507 236.814 232.305 237.064 232.044C237.314 231.783 237.513 231.47 237.661 231.107C237.809 230.74 237.883 230.334 237.883 229.888H239.208C239.208 230.439 239.147 230.919 239.025 231.328C238.903 231.734 238.745 232.078 238.552 232.359C238.358 232.638 238.154 232.861 237.938 233.028C237.87 233.077 237.805 233.125 237.742 233.173C237.68 233.222 237.614 233.27 237.546 233.318C237.239 233.597 236.88 233.801 236.468 233.932C236.059 234.062 235.657 234.128 235.262 234.128ZM240.611 234V227.455H242.154V234H240.611ZM241.387 226.526C241.142 226.526 240.932 226.445 240.756 226.283C240.58 226.118 240.492 225.92 240.492 225.69C240.492 225.457 240.58 225.26 240.756 225.098C240.932 224.933 241.142 224.851 241.387 224.851C241.634 224.851 241.844 224.933 242.017 225.098C242.193 225.26 242.281 225.457 242.281 225.69C242.281 225.92 242.193 226.118 242.017 226.283C241.844 226.445 241.634 226.526 241.387 226.526ZM245.282 230.165V234H243.74V227.455H245.214V228.567H245.291C245.442 228.2 245.682 227.909 246.011 227.693C246.344 227.477 246.754 227.369 247.243 227.369C247.694 227.369 248.088 227.466 248.423 227.659C248.761 227.852 249.023 228.132 249.207 228.499C249.395 228.865 249.487 229.31 249.484 229.832V234H247.942V230.071C247.942 229.634 247.828 229.291 247.601 229.044C247.376 228.797 247.065 228.673 246.667 228.673C246.398 228.673 246.157 228.733 245.947 228.852C245.74 228.969 245.577 229.138 245.457 229.359C245.341 229.581 245.282 229.849 245.282 230.165ZM256.226 229.185L254.819 229.338C254.78 229.196 254.71 229.062 254.611 228.938C254.514 228.812 254.383 228.712 254.219 228.635C254.054 228.558 253.852 228.52 253.613 228.52C253.292 228.52 253.023 228.589 252.804 228.729C252.588 228.868 252.481 229.048 252.484 229.27C252.481 229.46 252.551 229.615 252.693 229.734C252.838 229.854 253.077 229.952 253.409 230.028L254.525 230.267C255.145 230.401 255.605 230.612 255.906 230.902C256.21 231.192 256.363 231.571 256.366 232.04C256.363 232.452 256.243 232.815 256.004 233.131C255.768 233.443 255.44 233.687 255.02 233.864C254.599 234.04 254.116 234.128 253.571 234.128C252.77 234.128 252.125 233.96 251.636 233.625C251.148 233.287 250.856 232.817 250.763 232.214L252.267 232.07C252.335 232.365 252.48 232.588 252.702 232.739C252.923 232.889 253.211 232.964 253.567 232.964C253.933 232.964 254.227 232.889 254.449 232.739C254.673 232.588 254.785 232.402 254.785 232.18C254.785 231.993 254.713 231.838 254.568 231.716C254.426 231.594 254.204 231.5 253.903 231.435L252.787 231.2C252.159 231.07 251.694 230.849 251.393 230.54C251.092 230.227 250.943 229.832 250.946 229.355C250.943 228.952 251.052 228.602 251.274 228.307C251.498 228.009 251.809 227.778 252.207 227.616C252.608 227.452 253.069 227.369 253.592 227.369C254.359 227.369 254.963 227.533 255.403 227.859C255.846 228.186 256.121 228.628 256.226 229.185ZM260.907 227.455V228.648H257.144V227.455H260.907ZM258.073 225.886H259.616V232.031C259.616 232.239 259.647 232.398 259.709 232.509C259.775 232.616 259.86 232.69 259.965 232.73C260.07 232.77 260.187 232.79 260.314 232.79C260.411 232.79 260.499 232.783 260.579 232.768C260.661 232.754 260.724 232.741 260.766 232.73L261.026 233.936C260.944 233.964 260.826 233.996 260.672 234.03C260.522 234.064 260.337 234.084 260.118 234.089C259.732 234.101 259.384 234.043 259.074 233.915C258.765 233.784 258.519 233.582 258.337 233.31C258.158 233.037 258.07 232.696 258.073 232.287V225.886ZM264.08 234.132C263.666 234.132 263.292 234.058 262.96 233.911C262.63 233.76 262.369 233.538 262.176 233.246C261.985 232.953 261.89 232.592 261.89 232.163C261.89 231.794 261.958 231.489 262.095 231.247C262.231 231.006 262.417 230.812 262.653 230.668C262.889 230.523 263.154 230.413 263.45 230.339C263.748 230.263 264.056 230.207 264.374 230.173C264.758 230.134 265.069 230.098 265.308 230.067C265.546 230.033 265.72 229.982 265.828 229.913C265.938 229.842 265.994 229.733 265.994 229.585V229.56C265.994 229.239 265.899 228.99 265.708 228.814C265.518 228.638 265.244 228.55 264.886 228.55C264.508 228.55 264.208 228.632 263.987 228.797C263.768 228.962 263.62 229.156 263.544 229.381L262.103 229.176C262.217 228.778 262.404 228.446 262.666 228.179C262.927 227.909 263.247 227.707 263.624 227.574C264.002 227.438 264.42 227.369 264.877 227.369C265.193 227.369 265.507 227.406 265.819 227.48C266.132 227.554 266.417 227.676 266.676 227.847C266.934 228.014 267.142 228.243 267.298 228.533C267.457 228.822 267.536 229.185 267.536 229.619V234H266.053V233.101H266.002C265.909 233.283 265.776 233.453 265.606 233.612C265.438 233.768 265.227 233.895 264.971 233.991C264.718 234.085 264.421 234.132 264.08 234.132ZM264.481 232.999C264.791 232.999 265.059 232.937 265.286 232.815C265.514 232.69 265.688 232.526 265.811 232.321C265.936 232.116 265.998 231.893 265.998 231.652V230.881C265.95 230.92 265.867 230.957 265.751 230.991C265.637 231.026 265.509 231.055 265.367 231.081C265.225 231.107 265.085 231.129 264.945 231.149C264.806 231.169 264.686 231.186 264.583 231.2C264.353 231.232 264.147 231.283 263.965 231.354C263.784 231.425 263.64 231.524 263.535 231.652C263.43 231.777 263.377 231.939 263.377 232.138C263.377 232.422 263.481 232.636 263.688 232.781C263.896 232.926 264.16 232.999 264.481 232.999ZM270.63 230.165V234H269.088V227.455H270.562V228.567H270.639C270.789 228.2 271.029 227.909 271.359 227.693C271.691 227.477 272.102 227.369 272.59 227.369C273.042 227.369 273.436 227.466 273.771 227.659C274.109 227.852 274.37 228.132 274.555 228.499C274.742 228.865 274.835 229.31 274.832 229.832V234H273.289V230.071C273.289 229.634 273.176 229.291 272.948 229.044C272.724 228.797 272.413 228.673 272.015 228.673C271.745 228.673 271.505 228.733 271.295 228.852C271.088 228.969 270.924 229.138 270.805 229.359C270.688 229.581 270.63 229.849 270.63 230.165ZM279.669 227.455V228.648H275.906V227.455H279.669ZM276.835 225.886H278.377V232.031C278.377 232.239 278.409 232.398 278.471 232.509C278.536 232.616 278.622 232.69 278.727 232.73C278.832 232.77 278.948 232.79 279.076 232.79C279.173 232.79 279.261 232.783 279.34 232.768C279.423 232.754 279.485 232.741 279.528 232.73L279.788 233.936C279.705 233.964 279.588 233.996 279.434 234.03C279.284 234.064 279.099 234.084 278.88 234.089C278.494 234.101 278.146 234.043 277.836 233.915C277.526 233.784 277.281 233.582 277.099 233.31C276.92 233.037 276.832 232.696 276.835 232.287V225.886ZM281.909 234.094C281.65 234.094 281.429 234.003 281.244 233.821C281.059 233.639 280.969 233.418 280.971 233.156C280.969 232.901 281.059 232.682 281.244 232.5C281.429 232.318 281.65 232.227 281.909 232.227C282.159 232.227 282.376 232.318 282.561 232.5C282.748 232.682 282.844 232.901 282.846 233.156C282.844 233.33 282.798 233.487 282.71 233.629C282.625 233.771 282.511 233.885 282.369 233.97C282.23 234.053 282.077 234.094 281.909 234.094ZM287.294 234.128C286.641 234.128 286.08 233.984 285.611 233.697C285.145 233.411 284.786 233.014 284.533 232.509C284.283 232 284.158 231.415 284.158 230.753C284.158 230.088 284.286 229.501 284.541 228.993C284.797 228.482 285.158 228.084 285.624 227.8C286.093 227.513 286.646 227.369 287.286 227.369C287.817 227.369 288.287 227.467 288.696 227.663C289.108 227.857 289.436 228.131 289.681 228.486C289.925 228.838 290.064 229.25 290.098 229.722H288.624C288.564 229.406 288.422 229.143 288.198 228.933C287.976 228.72 287.679 228.614 287.307 228.614C286.992 228.614 286.715 228.699 286.476 228.869C286.237 229.037 286.051 229.278 285.918 229.594C285.787 229.909 285.722 230.287 285.722 230.727C285.722 231.173 285.787 231.557 285.918 231.878C286.048 232.196 286.232 232.442 286.468 232.615C286.706 232.786 286.986 232.871 287.307 232.871C287.534 232.871 287.737 232.828 287.916 232.743C288.098 232.655 288.25 232.528 288.372 232.364C288.494 232.199 288.578 231.999 288.624 231.763H290.098C290.061 232.226 289.925 232.636 289.689 232.994C289.453 233.349 289.132 233.628 288.726 233.83C288.32 234.028 287.843 234.128 287.294 234.128ZM294.22 234.128C293.581 234.128 293.027 233.987 292.558 233.706C292.089 233.425 291.726 233.031 291.467 232.526C291.211 232.02 291.084 231.429 291.084 230.753C291.084 230.077 291.211 229.484 291.467 228.976C291.726 228.467 292.089 228.072 292.558 227.791C293.027 227.51 293.581 227.369 294.22 227.369C294.859 227.369 295.413 227.51 295.882 227.791C296.351 228.072 296.713 228.467 296.969 228.976C297.227 229.484 297.356 230.077 297.356 230.753C297.356 231.429 297.227 232.02 296.969 232.526C296.713 233.031 296.351 233.425 295.882 233.706C295.413 233.987 294.859 234.128 294.22 234.128ZM294.229 232.892C294.575 232.892 294.865 232.797 295.098 232.607C295.331 232.413 295.504 232.155 295.618 231.831C295.734 231.507 295.792 231.146 295.792 230.749C295.792 230.348 295.734 229.986 295.618 229.662C295.504 229.335 295.331 229.075 295.098 228.882C294.865 228.689 294.575 228.592 294.229 228.592C293.873 228.592 293.578 228.689 293.342 228.882C293.109 229.075 292.934 229.335 292.818 229.662C292.704 229.986 292.648 230.348 292.648 230.749C292.648 231.146 292.704 231.507 292.818 231.831C292.934 232.155 293.109 232.413 293.342 232.607C293.578 232.797 293.873 232.892 294.229 232.892ZM298.666 234V227.455H300.14V228.567H300.217C300.353 228.192 300.579 227.899 300.894 227.689C301.21 227.476 301.586 227.369 302.024 227.369C302.467 227.369 302.84 227.477 303.144 227.693C303.451 227.906 303.667 228.197 303.792 228.567H303.86C304.005 228.203 304.249 227.913 304.593 227.697C304.94 227.479 305.35 227.369 305.825 227.369C306.427 227.369 306.919 227.56 307.299 227.94C307.68 228.321 307.87 228.876 307.87 229.607V234H306.323V229.845C306.323 229.439 306.215 229.142 305.999 228.955C305.784 228.764 305.519 228.669 305.207 228.669C304.835 228.669 304.544 228.786 304.333 229.018C304.126 229.249 304.022 229.548 304.022 229.918V234H302.509V229.781C302.509 229.443 302.407 229.173 302.203 228.972C302.001 228.77 301.737 228.669 301.41 228.669C301.188 228.669 300.987 228.726 300.805 228.839C300.623 228.95 300.478 229.108 300.37 229.312C300.262 229.514 300.208 229.75 300.208 230.02V234H298.666Z" fill="white"/>
<defs>
<filter id="filter0_d_90_210" x="0" y="0" width="512.606" height="281.258" filterUnits="userSpaceOnUse" color-interpolation-filters="sRGB">
<feFlood flood-opacity="0" result="BackgroundImageFix"/>
<feColorMatrix in="SourceAlpha" type="matrix" values="0 0 0 0 0 0 0 0 0 0 0 0 0 0 0 0 0 0 127 0" result="hardAlpha"/>
<feOffset dy="4"/>
<feGaussianBlur stdDeviation="4.5"/>
<feComposite in2="hardAlpha" operator="out"/>
<feColorMatrix type="matrix" values="0 0 0 0 0 0 0 0 0 0 0 0 0 0 0 0 0 0 0.25 0"/>
<feBlend mode="normal" in2="BackgroundImageFix" result="effect1_dropShadow_90_210"/>
<feBlend mode="normal" in="SourceGraphic" in2="effect1_dropShadow_90_210" result="shape"/>
</filter>
<linearGradient id="paint0_linear_90_210" x1="9" y1="273" x2="499" y2="5.00002" gradientUnits="userSpaceOnUse">
<stop stop-color="#0C5AA1"/>
<stop offset="1" stop-color="#3188D8"/>
</linearGradient>
</defs>
</svg>
