<svg width="57" height="33" viewBox="0 0 57 33" fill="none" xmlns="http://www.w3.org/2000/svg">
<g clip-path="url(#clip0_94_3103)">
<path d="M1.89736 20.6289H1.88738C1.295 21.2422 0.96176 22.1358 0.96176 23.214L0.961317 23.4372H2.34486C2.34486 23.4002 2.34664 23.2155 2.34664 23.2155C2.35418 22.4663 2.57028 21.8445 2.91661 21.4386C3.2585 21.0374 3.74638 20.8339 4.3676 20.8339C4.9531 20.8339 5.41147 21.0177 5.72985 21.3808C6.05177 21.7474 6.21462 22.3127 6.21462 22.9892C6.21462 23.6584 6.02803 24.1818 5.65863 24.5453C5.28923 24.9078 4.75675 25.1102 4.07585 25.1102H3.5041V26.2544H4.31568C5.03408 26.2544 5.59651 26.4717 5.98677 26.8645C6.37725 27.2575 6.57515 27.8236 6.57515 28.5469C6.57515 29.3631 6.36993 30.0727 5.98233 30.5291C5.59917 30.9802 5.03408 31.2189 4.35007 31.2189C3.62458 31.2189 3.06681 30.9618 2.6923 30.4533C2.38191 30.033 2.20642 29.4061 2.20642 28.7533C2.20642 28.7533 2.20176 28.3709 2.20176 28.3321H0.785156C0.786487 28.3716 0.789372 28.76 0.789372 28.76C0.833301 29.9106 1.16588 30.8082 1.77667 31.4275C2.38901 32.0487 3.25495 32.3623 4.3503 32.3623C5.46849 32.3623 6.39411 32.0079 7.02864 31.3373C7.66162 30.6672 7.99641 29.6912 7.99641 28.5137C7.99641 27.7483 7.78276 27.0626 7.37852 26.5293C7.05438 26.1023 6.60865 25.7827 6.08949 25.6058L6.02848 25.5854L6.08705 25.5579C6.56184 25.3389 6.92614 25.0064 7.19082 24.5702C7.47947 24.0947 7.60571 23.517 7.60571 22.8535C7.60571 21.913 7.30686 21.117 6.72269 20.5524C6.13919 19.9887 5.33826 19.6901 4.36738 19.6901C3.32417 19.6901 2.48996 20.0146 1.89736 20.6289ZM17.8392 28.3324C17.8248 28.5108 17.8374 28.4299 17.8117 28.6004C17.4656 30.8875 16.0931 32.3707 14.0085 32.3707C11.4482 32.3707 9.93928 30.5898 9.93928 26.0217C9.93928 21.8175 11.448 19.6939 14.123 19.6939C16.2575 19.6939 17.5561 20.9104 17.8292 23.0998C17.8487 23.2541 17.8483 23.2721 17.857 23.4368H16.4858C16.4732 23.2838 16.4707 23.2794 16.4503 23.1413C16.2147 21.5506 15.4681 20.8363 14.123 20.8363C12.6369 20.8363 11.4027 21.7507 11.4027 26.0454C11.4027 30.6116 12.7046 31.2283 13.9852 31.2283C15.2574 31.2283 16.1113 30.373 16.425 28.609C16.455 28.4401 16.4477 28.5181 16.4679 28.3321L17.8392 28.3324ZM21.348 26.0217C21.348 22.1617 22.5354 20.8363 24.0687 20.8363C25.5987 20.8363 26.7874 22.1619 26.7874 26.0217C26.7874 29.9047 25.5987 31.2283 24.0687 31.2283C22.5354 31.2283 21.348 29.9047 21.348 26.0217ZM19.8837 26.0217C19.8837 30.2454 21.3919 32.3707 24.0687 32.3707C26.7411 32.3707 28.25 30.2454 28.25 26.0217C28.25 21.8175 26.7413 19.6939 24.0687 19.6939C21.3919 19.6939 19.8837 21.8175 19.8837 26.0217ZM36.6739 20.9957C36.5526 20.8463 35.6296 19.6806 33.8563 19.6806C31.8999 19.6806 30.308 20.9682 30.308 23.0661V32.2089H31.7532V23.2095C31.7532 21.275 33.2237 20.8911 33.8565 20.8911C35.134 20.8911 35.9598 21.8647 35.9598 23.1654V32.2069L37.3939 32.2078L37.3961 23.1657C37.3961 21.9001 38.1831 20.8913 39.4983 20.8913C40.1321 20.8913 41.6027 21.2334 41.6027 23.1683V32.208H43.0479V23.0247C43.0479 20.9512 41.395 19.6806 39.4983 19.6806C37.7644 19.6806 36.8015 20.8454 36.6739 20.9957ZM51.835 4.25208C52.8889 6.54415 53.1618 8.20446 53.3495 9.76103C53.6499 12.2415 52.8802 14.5411 51.1275 14.5411C49.9297 14.5411 48.9264 13.6349 48.0114 12.367C47.3114 11.3965 46.5329 9.8067 46.0291 8.23151C45.4786 6.51046 45.2985 4.96187 45.2985 3.84022C45.2985 1.64169 46.0714 0 47.7212 0C49.3195 0 50.8176 2.03937 51.835 4.25208ZM47.9054 1.96466C47.636 1.84208 47.4461 1.8873 47.3294 2.1686C47.22 2.43283 47.1187 2.95331 47.1187 4.018C47.1187 4.90468 47.3738 6.37324 47.8634 7.83095C48.5373 9.84593 49.6044 11.8733 50.6865 12.5459C51.0385 12.7653 51.1994 12.8043 51.4164 12.4155C51.8723 11.5958 51.6493 9.818 51.611 9.44183C51.5635 8.97632 51.2626 7.23488 50.4309 5.32652C49.7211 3.6999 48.7143 2.33308 47.9054 1.96466ZM39.7567 4.10578C38.9003 4.10578 36.8588 4.30572 34.7382 5.22965C34.3324 3.99051 32.5848 1.06313 29.7433 1.06269C28.7592 1.06269 27.9036 1.43177 27.1864 2.02407C25.6865 3.26321 24.8171 5.57146 24.8171 8.16212C24.8171 9.19511 25.0411 10.6089 25.5656 11.9336C26.4214 14.092 28.0361 16.056 30.4897 16.056C33.5397 16.056 34.7857 12.6235 34.7857 12.6235C34.7857 12.6235 36.3462 12.2805 38.0897 11.4947C40.3944 10.4551 43.2072 8.50394 43.2072 6.34376C43.2072 4.44094 40.7906 4.10578 39.7567 4.10578ZM41.3772 6.61509C41.2912 7.01897 40.8942 7.52438 40.0212 8.22929C37.1769 10.5247 33.0604 11.2662 31.2671 10.9751C30.4806 10.8474 30.3158 10.4562 31.0071 9.60498C31.5695 8.91115 32.1963 8.478 32.7358 8.11003L32.8022 8.06836C32.7383 7.53546 32.5719 6.86823 32.3691 6.35174C32.3647 6.35551 32.2531 6.42179 32.2327 6.43376C31.0131 7.13557 28.553 9.04725 28.8133 10.8867C29.0868 12.8232 31.7796 12.9859 32.6817 12.8957C32.6817 12.8957 31.7048 14.2654 30.5274 14.2654C28.0115 14.2654 26.5305 10.7962 26.5305 8.1619C26.5305 5.90973 27.5737 2.90632 29.8731 2.90632C31.292 2.90632 32.5178 4.3607 33.1252 6.02411C33.4008 6.78223 33.7049 7.6494 33.6812 9.42764C33.6786 9.65988 33.6625 9.89177 33.6328 10.1221C34.2135 10.0434 34.8764 9.87475 35.4104 9.71315C35.4104 9.71315 35.4144 9.59389 35.4171 9.52916C35.4473 8.55005 35.4073 7.59354 35.2378 6.8403C35.7117 6.66075 37.8696 5.89643 39.4918 5.90131C40.5792 5.90397 41.0879 6.10835 41.3094 6.33068C41.3772 6.41492 41.3992 6.51356 41.3772 6.61509ZM54.8524 13.0916H53.7923V13.286H54.2041V14.427H54.4411V13.286H54.8524V13.0916ZM55.4492 13.0916H55.0854V14.427H55.3228V13.341H55.3285L55.747 14.4272H55.9091L56.3278 13.341H56.334V14.4272H56.5705V13.0916H56.208L55.8313 14.0732L55.4492 13.0916Z" fill="white"/>
</g>
<defs>
<clipPath id="clip0_94_3103">
<rect width="55.7854" height="32.3718" fill="white" transform="translate(0.785156)"/>
</clipPath>
</defs>
</svg>
