<svg width="129" height="33" viewBox="0 0 129 33" fill="none" xmlns="http://www.w3.org/2000/svg">
<g clip-path="url(#clip0_94_3107)">
<path d="M21.6881 8.98901H2.9693L0.75708 11.2078V20.9933C0.75708 26.6826 5.06807 31.4046 10.7404 32.0873L12.8392 29.9254H12.2152C7.16684 29.9254 3.02602 25.943 3.02602 20.9933V11.2078H5.29496V20.9933C5.29496 24.6913 8.35803 27.7066 12.1585 27.7066H15.0514L17.2636 25.4878H12.1585C9.60595 25.4878 7.5639 23.4966 7.5639 20.9933V11.2078H9.83284V20.9933C9.83284 22.2449 10.8539 23.2121 12.1018 23.2121H19.4758L21.6881 20.9933H12.2152V11.2078H21.7448V32.2011H24.0137V11.2078C24.0137 9.95618 22.9927 8.98901 21.6881 8.98901ZM33.1462 32.2011V11.2078C33.1462 5.00654 28.0411 0 21.6881 0H11.8182L9.60595 2.21881H21.6881C26.7364 2.21881 30.8205 6.25817 30.8205 11.2078V32.2011H33.1462ZM21.6881 4.4945H7.39373L5.18151 6.71331H21.6881C24.2406 6.71331 26.2259 8.70454 26.2259 11.2078V32.2011H28.4949V11.2078C28.5516 7.5098 25.4885 4.4945 21.6881 4.4945Z" fill="white"/>
<path d="M98.0379 28.105L100.08 23.6105L102.065 28.105H98.0379ZM100.761 21.6761L100.704 21.5624H100.59H99.5127H99.3993L99.3426 21.6761L94.6912 31.9168L94.5778 32.2012H94.8614H96.0526H96.166L96.2228 32.0875L97.3572 29.5273H102.633L103.767 32.0875L103.824 32.2012H103.937H105.185H105.469L105.355 31.9168L100.761 21.6761ZM61.6214 21.6193H61.4513V21.7899V22.8709V23.0416H61.6214H64.8547V31.9737V32.1444H65.0248H66.1593H66.3862V31.9737V23.0985H69.6194H69.7896V22.9278V21.8468V21.6193H69.6194H61.6214ZM70.5837 6.37208H73.817C76.0292 6.37208 77.2771 7.39614 77.2771 9.15981V9.2167C77.2771 10.9235 75.859 12.0044 73.7603 12.0044H70.5837V6.37208ZM79.2057 9.15981C79.2057 6.37208 77.1069 4.60841 73.9304 4.60841H68.8253H68.5984V4.77909V18.4333V18.604H68.8253H70.3568H70.527V18.4333V13.825H73.6468C76.4263 13.7681 79.2057 12.3458 79.2057 9.15981ZM91.7983 21.6193H91.6282V21.7899V31.9737V32.1444H91.7983H92.9328H93.1597V31.9737V21.8468V21.6193H92.9328H91.7983ZM72.9094 30.7789V27.593H78.2414H78.4683V27.4223V26.3982V26.1707H78.2414H72.9094V23.0985H78.9221H79.0923V22.8709V21.8468V21.6193H78.9221H71.6048H71.4346V21.7899V31.9737V32.1444H71.6048H79.0355H79.2057V31.9737V30.9496V30.722H79.0355H72.9094V30.7789ZM82.6091 26.8534V23.0985H85.5587C87.0903 23.0985 87.9411 23.7812 87.9411 24.919V24.9759C87.9411 26.1138 86.9768 26.8534 85.502 26.8534H82.6091ZM86.9201 27.9912C88.5651 27.593 89.5294 26.4551 89.5294 24.919V24.8621C89.5294 24.0087 89.2458 23.2691 88.6785 22.7002C87.9979 22.0175 86.9201 21.6193 85.6722 21.6193H81.3045H81.1343V21.7899V31.9737V32.1444H81.3045H82.439H82.6091V31.9737V28.2188H85.2184L88.1113 32.0875L88.168 32.1444H88.2815H89.6996H90.0966L89.8697 31.803L86.9201 27.9912ZM89.2458 18.604V18.4333V17.011V16.7834H89.0756H83.1196V4.77909V4.55152H82.9495H81.4179H81.2478V4.7222V18.3764V18.5471H81.4179H89.1323H89.2458V18.604ZM55.552 28.105L57.5941 23.6105L59.5794 28.105H55.552ZM58.3315 21.6761L58.2747 21.5624H58.1613H57.0835H56.9134L56.8567 21.6761L52.2053 31.9168L52.0919 32.2012H52.3755H53.5667H53.6801L53.7369 32.0875L54.8713 29.5273H60.1466L61.2811 32.0875L61.3378 32.2012H61.4513H62.6992H62.9828L62.8693 31.9168L58.3315 21.6761ZM110.971 6.37208H113.977C117.21 6.37208 119.423 8.53399 119.423 11.5493V11.6062C119.423 14.6215 117.21 16.7834 113.977 16.7834H110.971V6.37208ZM113.977 18.604C118.288 18.604 121.408 15.6455 121.408 11.6062V11.5493C121.408 7.50993 118.288 4.55152 113.977 4.55152H109.269H109.042V4.7222V18.3764V18.5471H109.269H113.977V18.604ZM118.061 26.1707C115.849 25.7155 115.452 25.2035 115.452 24.407C115.452 23.5536 116.246 22.9847 117.437 22.9847C118.458 22.9847 119.366 23.326 120.217 24.0656L120.387 24.1794L120.5 24.0087L121.181 23.0985L121.295 22.9278L121.124 22.814C119.99 21.9037 118.912 21.5055 117.437 21.5055C115.395 21.5055 113.921 22.7571 113.921 24.4639C113.921 26.3982 115.339 27.1378 117.494 27.593C119.593 28.0481 119.99 28.5032 119.99 29.3566V29.4135C119.99 30.3238 119.139 30.9496 117.948 30.9496C116.643 30.9496 115.679 30.5514 114.601 29.5842L114.431 29.4704L114.318 29.6411L113.58 30.4945L113.467 30.6652L113.58 30.7789C114.885 31.9168 116.189 32.4288 117.834 32.4288C119.99 32.4288 121.521 31.1772 121.521 29.3566V29.2997C121.521 27.6499 120.444 26.7396 118.061 26.1707ZM93.3299 18.604V18.4333V4.77909V4.55152H93.1597H91.6282H91.458V4.7222V18.3764V18.5471H91.6282H93.1597H93.3299V18.604ZM57.9911 6.37208H61.2244C63.4366 6.37208 64.6845 7.39614 64.6845 9.15981V9.2167C64.6845 10.9235 63.3231 12.0044 61.1676 12.0044H57.9911V6.37208ZM57.8209 18.604H57.9911V18.4333V13.825H61.1109C63.8904 13.825 66.6698 12.4027 66.6698 9.15981V9.10292C66.6698 6.37208 64.571 4.60841 61.3945 4.60841H56.2894H56.0625V4.77909V18.4333V18.604H56.2894H57.8209ZM47.0435 6.941L49.8229 13.1992H44.2073L47.0435 6.941ZM41.8249 18.604L41.8816 18.4902L43.4699 15.0197H50.6171L52.1486 18.4902L52.2053 18.604H52.3188H53.9638H54.2474L54.1339 18.3195L47.9511 4.60841L47.8943 4.49463H47.7809H46.3628H46.2494L46.1926 4.60841L39.953 18.3195L39.8396 18.604H40.1232H41.7115H41.8249ZM108.475 30.7789V21.8468V21.6193H108.305H107.17H107V21.7899V31.9737V32.1444H107.17H112.332H112.502V31.9737V30.8927V30.722H112.332H108.475V30.7789ZM49.3691 21.6193H49.2557L49.199 21.733L45.6821 27.024L42.1653 21.733L42.1085 21.6193H41.9951H40.8606H40.6905V21.7899V31.9737V32.1444H40.8606H41.9951H42.1653V31.9737V24.407L45.512 29.2997L45.5687 29.4135H45.6821H45.7388H45.8523L45.909 29.2997L49.2557 24.407V31.9737V32.1444H49.4259H50.5603H50.7305V31.9737V21.8468V21.6193H50.5603H49.3691ZM98.3215 16.7834V12.4027H105.525H105.752V12.1751V10.8097V10.5821H105.525H98.3215V6.31519H106.433H106.603V6.14451V4.77909V4.55152H106.433H96.6198H96.4497V4.7222V18.3764V18.5471H96.6198H106.546H106.717V18.3764V16.9541V16.7834H106.546H98.3215Z" fill="white"/>
<path d="M126.57 29.7547C126.91 29.7547 127.194 29.584 127.194 29.2996C127.194 29.0151 126.967 28.8444 126.627 28.8444H125.889V29.7547H126.57ZM125.435 28.56H126.57C126.91 28.56 127.137 28.6738 127.307 28.8444C127.421 28.9582 127.534 29.1289 127.534 29.3565C127.534 29.7547 127.251 29.9823 126.91 30.0961L127.704 31.1201H127.251L126.513 30.153H125.889V31.1201H125.492V28.56H125.435ZM128.669 29.8685C128.669 28.6169 127.704 27.5928 126.456 27.5928C125.152 27.5928 124.187 28.6169 124.187 29.8685C124.187 31.1201 125.152 32.0873 126.4 32.0873C127.704 32.1442 128.669 31.1201 128.669 29.8685ZM123.961 29.8685C123.961 28.5031 125.038 27.3652 126.456 27.3652C127.818 27.3652 128.896 28.4462 128.896 29.8116C128.896 31.177 127.818 32.258 126.456 32.258C125.038 32.3718 123.961 31.2339 123.961 29.8685Z" fill="white"/>
</g>
<defs>
<clipPath id="clip0_94_3107">
<rect width="128.138" height="32.3718" fill="white" transform="translate(0.75708)"/>
</clipPath>
</defs>
</svg>
