<svg width="204" height="33" viewBox="0 0 204 33" fill="none" xmlns="http://www.w3.org/2000/svg">
<path d="M110.737 17.8448C110.737 20.1108 108.871 21.9722 106.6 21.9722C104.328 21.9722 102.462 20.1108 102.462 17.8448V6.83838H98.8931V17.8448C98.8931 22.0936 102.341 25.5331 106.6 25.5331C110.859 25.5331 114.306 22.0936 114.306 17.8448V6.83838H110.737V17.8448Z" fill="white"/>
<path d="M30.7901 10.3993C32.3314 10.3993 33.7105 11.0062 34.7651 11.9774L36.8338 9.02348C35.2113 7.64767 33.1021 6.83838 30.8307 6.83838C25.6388 6.83838 21.4609 11.0062 21.4609 16.1857C21.4609 21.3652 25.6388 25.5331 30.8307 25.5331C33.1427 25.5331 35.2113 24.7238 36.8338 23.348L34.7651 20.3941C33.7105 21.3652 32.3314 21.9722 30.7901 21.9722C27.5857 21.9722 24.9898 19.3825 24.9898 16.1857C24.9898 12.989 27.5857 10.3993 30.7901 10.3993Z" fill="white"/>
<path d="M71.1488 19.3825L62.4281 6.83838H58.8586V25.5331H62.4281V12.9486L71.1488 25.5331H74.7182V6.83838H71.1488V19.3825Z" fill="white"/>
<path d="M79.4641 6.83838V10.3993H85.021V25.5331H88.5905V10.3993H94.1068V6.83838H79.4641Z" fill="white"/>
<path d="M178.15 6.83838V10.3993H180.097V25.5331H183.667V6.83838H178.15Z" fill="white"/>
<path d="M41.5796 6.83838V25.5331H54.0726V21.9722H45.149V17.9662H52.3284V14.4053H45.149V10.3993H54.0726V6.83838H41.5796Z" fill="white"/>
<path d="M133.452 13.1104C133.452 9.67091 130.612 6.83838 127.165 6.83838H119.093V25.5331H122.662V19.3825H124.934L129.193 25.5331H133.452L128.99 19.0992C131.586 18.3304 133.452 15.9429 133.452 13.1104ZM127.165 15.8216H122.662V10.3993H127.165C128.665 10.3993 129.882 11.6132 129.882 13.1104C129.882 14.6076 128.665 15.8216 127.165 15.8216Z" fill="white"/>
<path d="M149.838 6.83838L144.606 14.4053L139.373 6.83838H135.115L142.821 17.9662V25.5331H146.391V17.9662L154.097 6.83838H149.838Z" fill="white"/>
<path d="M173.08 16.1858L173.161 16.0644C173.81 15.1337 174.175 14.0007 174.175 12.7868C174.175 12.3012 174.135 11.8561 174.013 11.3705C173.364 8.78075 171.052 6.87891 168.253 6.87891C164.968 6.87891 162.331 9.50912 162.331 12.7868C162.331 12.8677 162.331 12.9486 162.331 12.9891H165.901C165.901 12.9082 165.901 12.8272 165.901 12.7868C165.901 11.4919 166.955 10.4398 168.253 10.4398C169.551 10.4398 170.647 11.411 170.606 12.7868C170.565 13.3937 170.038 14.3244 169.835 14.6077C169.632 14.8909 162.21 25.5736 162.21 25.5736H174.5V22.0127H169.024L173.08 16.1858Z" fill="white"/>
<path d="M186.668 22.4175C186.912 22.4175 187.196 22.4984 187.439 22.6198C187.682 22.7412 187.885 22.9435 188.007 23.1863C188.129 23.4291 188.21 23.6719 188.21 23.9551C188.21 24.2384 188.129 24.4812 188.007 24.724C187.885 24.9668 187.682 25.1691 187.439 25.2905C187.196 25.4119 186.952 25.4928 186.668 25.4928C186.384 25.4928 186.141 25.4119 185.898 25.2905C185.654 25.1691 185.451 24.9668 185.33 24.724C185.208 24.4812 185.127 24.2384 185.127 23.9551C185.127 23.6719 185.208 23.4291 185.33 23.1863C185.451 22.9435 185.654 22.7412 185.898 22.6198C186.182 22.4984 186.425 22.4175 186.668 22.4175ZM186.668 22.6603C186.465 22.6603 186.222 22.7007 186.019 22.8221C185.817 22.9435 185.654 23.1054 185.533 23.3077C185.411 23.51 185.37 23.7124 185.37 23.9551C185.37 24.1575 185.411 24.4003 185.533 24.6026C185.654 24.8049 185.817 24.9668 186.019 25.0882C186.222 25.2095 186.425 25.25 186.668 25.25C186.871 25.25 187.114 25.2095 187.317 25.0882C187.52 24.9668 187.682 24.8049 187.804 24.6026C187.926 24.4003 187.966 24.1979 187.966 23.9551C187.966 23.7124 187.926 23.51 187.804 23.3077C187.682 23.1054 187.52 22.9435 187.317 22.8221C187.114 22.7412 186.912 22.6603 186.668 22.6603ZM186.019 24.8049V23.1458H186.587C186.79 23.1458 186.912 23.1458 186.993 23.1863C187.074 23.2268 187.155 23.2672 187.196 23.3482C187.236 23.4291 187.277 23.51 187.277 23.591C187.277 23.7124 187.236 23.8337 187.155 23.9147C187.074 23.9956 186.952 24.0361 186.79 24.0765C186.831 24.117 186.912 24.117 186.912 24.1575C186.993 24.2384 187.074 24.3193 187.155 24.4812L187.358 24.8049H187.033L186.871 24.5621C186.749 24.3598 186.668 24.2384 186.587 24.1575C186.547 24.117 186.465 24.117 186.384 24.117H186.222V24.8049H186.019ZM186.263 23.8742H186.587C186.749 23.8742 186.831 23.8337 186.912 23.7933C186.952 23.7528 186.993 23.6719 186.993 23.591C186.993 23.5505 186.993 23.51 186.952 23.4696C186.912 23.4291 186.871 23.3886 186.831 23.3886C186.79 23.3886 186.709 23.3482 186.547 23.3482H186.222V23.8742H186.263Z" fill="white"/>
</svg>
