<svg width="62" height="33" viewBox="0 0 62 33" fill="none" xmlns="http://www.w3.org/2000/svg">
<g clip-path="url(#clip0_94_3016)">
<path d="M20.1031 21.5146H17.4094V32.1724H20.1031V21.5146Z" fill="white"/>
<path d="M41.8522 24.5526C41.7524 24.5028 40.8545 24.0048 39.5576 24.0048C37.8116 24.0048 36.6144 25.2 36.6144 26.8435C36.6144 28.4372 37.7618 29.6823 39.5576 29.6823C40.8047 29.6823 41.7026 29.1843 41.8522 29.1345V32.023C41.503 32.0728 40.6051 32.3716 39.4079 32.3716C36.365 32.3716 33.7212 30.2799 33.7212 26.8435C33.7212 23.6562 36.1156 21.3154 39.4079 21.3154C40.655 21.3154 41.6028 21.6142 41.8522 21.7139V24.5526Z" fill="white"/>
<path d="M13.6681 24.5526C13.5684 24.5028 12.6705 24.0048 11.4234 24.0048C9.67744 24.0048 8.48024 25.2 8.48024 26.8435C8.48024 28.4372 9.62756 29.6823 11.4234 29.6823C12.6705 29.6823 13.5684 29.1843 13.6681 29.1345V32.023C13.3189 32.1226 12.421 32.4214 11.2238 32.4214C8.18094 32.4214 5.53711 30.3297 5.53711 26.8933C5.53711 23.706 7.93152 21.3652 11.2238 21.3652C12.4709 21.3652 13.4187 21.6641 13.6681 21.7637V24.5526Z" fill="white"/>
<path d="M55.9692 26.8435C55.9692 29.8815 53.6247 32.3716 50.3324 32.3716C47.0401 32.3716 44.6956 29.8815 44.6956 26.8435C44.6956 23.8056 47.0401 21.3154 50.3324 21.3154C53.6247 21.3154 55.9692 23.8056 55.9692 26.8435ZM50.3324 24.0546C48.7361 24.0546 47.5389 25.2997 47.5389 26.8435C47.5389 28.3874 48.7361 29.6325 50.3324 29.6325C51.9287 29.6325 53.1259 28.3874 53.1259 26.8435C53.1259 25.2997 51.9287 24.0546 50.3324 24.0546Z" fill="white"/>
<path d="M30.3293 23.955C30.2794 23.955 29.1321 23.6064 28.2341 23.6064C27.1367 23.6064 26.588 23.955 26.588 24.5028C26.588 25.1502 27.3861 25.3993 27.8351 25.4989L28.5833 25.7479C30.3293 26.2957 31.1274 27.491 31.1274 28.7858C31.1274 31.4752 28.7829 32.3716 26.6878 32.3716C25.2411 32.3716 23.8943 32.1226 23.7945 32.0728V29.6325C24.0439 29.6823 25.1414 30.0309 26.3386 30.0309C27.6854 30.0309 28.284 29.6325 28.284 29.0349C28.284 28.487 27.7353 28.1882 27.0868 27.989C26.9372 27.9392 26.6878 27.8396 26.4882 27.7898C24.9917 27.2918 23.7446 26.4451 23.7446 24.6522C23.7446 22.6601 25.2411 21.3154 27.7353 21.3154C29.0323 21.3154 30.2794 21.6142 30.3791 21.664V23.955H30.3293Z" fill="white"/>
<path d="M2.69371 10.06C2.69371 9.31297 2.09511 8.71533 1.34686 8.71533C0.598603 8.71533 0 9.31297 0 10.06V12.849C0 13.596 0.598603 14.1936 1.34686 14.1936C2.09511 14.1936 2.69371 13.596 2.69371 12.849V10.06Z" fill="white"/>
<path d="M10.0265 6.37495C10.0265 5.62791 9.42787 5.03027 8.67962 5.03027C7.93137 5.03027 7.33276 5.62791 7.33276 6.37495V12.8493C7.33276 13.5964 7.93137 14.194 8.67962 14.194C9.42787 14.194 10.0265 13.5964 10.0265 12.8493V6.37495Z" fill="white"/>
<path d="M17.4093 1.34467C17.4093 0.597633 16.8107 0 16.0624 0C15.3142 0 14.7156 0.597633 14.7156 1.34467V15.5385C14.7156 16.2855 15.3142 16.8831 16.0624 16.8831C16.8107 16.8831 17.4093 16.2855 17.4093 15.5385V1.34467Z" fill="white"/>
<path d="M24.7423 6.37495C24.7423 5.62791 24.1437 5.03027 23.3954 5.03027C22.6472 5.03027 22.0486 5.62791 22.0486 6.37495V12.8493C22.0486 13.5964 22.6472 14.194 23.3954 14.194C24.1437 14.194 24.7423 13.5964 24.7423 12.8493V6.37495Z" fill="white"/>
<path d="M32.0751 10.06C32.0751 9.31297 31.4765 8.71533 30.7282 8.71533C29.9799 8.71533 29.3813 9.31297 29.3813 10.06V12.849C29.3813 13.596 29.9799 14.1936 30.7282 14.1936C31.4765 14.1936 32.0751 13.596 32.0751 12.849V10.06Z" fill="white"/>
<path d="M39.4579 6.37495C39.4579 5.62791 38.8593 5.03027 38.111 5.03027C37.3628 5.03027 36.7642 5.62791 36.7642 6.37495V12.8493C36.7642 13.5964 37.3628 14.194 38.111 14.194C38.8593 14.194 39.4579 13.5964 39.4579 12.8493V6.37495Z" fill="white"/>
<path d="M46.7909 1.34467C46.7909 0.597633 46.1923 0 45.444 0C44.6958 0 44.0972 0.597633 44.0972 1.34467V15.5385C44.0972 16.2855 44.6958 16.8831 45.444 16.8831C46.1923 16.8831 46.7909 16.2855 46.7909 15.5385V1.34467Z" fill="white"/>
<path d="M54.1734 6.37495C54.1734 5.62791 53.5748 5.03027 52.8266 5.03027C52.0783 5.03027 51.4797 5.62791 51.4797 6.37495V12.8493C51.4797 13.5964 52.0783 14.194 52.8266 14.194C53.5748 14.194 54.1734 13.5964 54.1734 12.8493V6.37495Z" fill="white"/>
<path d="M61.5065 10.06C61.5065 9.31297 60.9079 8.71533 60.1596 8.71533C59.4113 8.71533 58.8127 9.31297 58.8127 10.06V12.849C58.8127 13.596 59.4113 14.1936 60.1596 14.1936C60.9079 14.1936 61.5065 13.596 61.5065 12.849V10.06Z" fill="white"/>
</g>
<defs>
<clipPath id="clip0_94_3016">
<rect width="61.5064" height="32.3718" fill="white"/>
</clipPath>
</defs>
</svg>
