<svg width="77" height="33" viewBox="0 0 77 33" fill="none" xmlns="http://www.w3.org/2000/svg">
<g clip-path="url(#clip0_94_3035)">
<path d="M15.6729 29.0415H1.10742V31.1256H15.6729V29.0415Z" fill="white"/>
<path d="M15.6729 25.084H1.10742V27.1681H15.6729V25.084Z" fill="white"/>
<path d="M11.528 21.1035H5.27563V23.1876H11.528V21.1035Z" fill="white"/>
<path d="M11.528 17.1226H5.27563V19.2067H11.528V17.1226Z" fill="white"/>
<path d="M11.528 13.165H5.27563V15.2492H11.528V13.165Z" fill="white"/>
<path d="M11.528 9.18408H5.27563V11.2682H11.528V9.18408Z" fill="white"/>
<path d="M15.6729 5.20312H1.10742V7.28725H15.6729V5.20312Z" fill="white"/>
<path d="M15.6729 1.24561H1.10742V3.32973H15.6729V1.24561Z" fill="white"/>
<path d="M17.7571 27.1681H39.9799C40.3546 26.5124 40.6356 25.8099 40.8229 25.084H17.7805V27.1681H17.7571Z" fill="white"/>
<path d="M38.2236 17.1226H21.9253V19.2067H39.9799C39.5115 18.4339 38.9261 17.7314 38.2236 17.1226Z" fill="white"/>
<path d="M21.9253 13.165V15.2492H38.2236C38.9261 14.6637 39.5115 13.9612 39.9565 13.165H21.9253Z" fill="white"/>
<path d="M39.9799 5.20312H17.7805V7.28725H40.8229C40.6356 6.56132 40.3546 5.8588 39.9799 5.20312Z" fill="white"/>
<path d="M33.0953 1.24561H17.7571V3.32973H38.4578C36.9825 1.97154 35.0623 1.24561 33.0953 1.24561Z" fill="white"/>
<path d="M28.1777 9.18408H21.9253V11.2682H28.1777V9.18408Z" fill="white"/>
<path d="M34.032 11.2682H40.7527C40.94 10.5891 41.0337 9.8866 41.0337 9.18408H34.032V11.2682Z" fill="white"/>
<path d="M28.1777 21.1035H21.9253V23.1876H28.1777V21.1035Z" fill="white"/>
<path d="M34.032 21.1035V23.1876H41.0337C41.0337 22.4851 40.94 21.7826 40.7527 21.1035H34.032Z" fill="white"/>
<path d="M17.7571 31.1256L33.0953 31.1491C35.0857 31.1491 37.0059 30.3997 38.4578 29.0649H17.7571V31.1256Z" fill="white"/>
<path d="M59.3927 31.1256L60.1186 29.0415H58.6667L59.3927 31.1256Z" fill="white"/>
<path d="M58.0111 27.1681H60.7743L61.5002 25.084H57.2617L58.0111 27.1681Z" fill="white"/>
<path d="M56.6061 23.1876H62.1793L62.9053 21.1035H55.8801L56.6061 23.1876Z" fill="white"/>
<path d="M55.201 19.2067H63.5609L64.3103 17.1226H54.4751L55.201 19.2067Z" fill="white"/>
<path d="M46.9114 11.2682H58.1516L57.4257 9.18408H46.9114V11.2682Z" fill="white"/>
<path d="M62.0154 7.28725H76.0422V5.20312H62.7413L62.0154 7.28725Z" fill="white"/>
<path d="M64.1229 1.24561L63.397 3.32973H76.0422V1.24561H64.1229Z" fill="white"/>
<path d="M53.1401 29.0415H42.7429V31.1256H53.1401V29.0415Z" fill="white"/>
<path d="M53.1401 25.084H42.7429V27.1681H53.1401V25.084Z" fill="white"/>
<path d="M53.1637 21.1035H46.9114V23.1876H53.1637V21.1035Z" fill="white"/>
<path d="M53.1637 17.1226H46.9114V19.2067H53.1637V17.1226Z" fill="white"/>
<path d="M71.874 9.18408H61.3597L60.6338 11.2682H71.874V9.18408Z" fill="white"/>
<path d="M65.6451 15.2492H71.874V13.165H65.6451H59.9781L59.3927 14.8511L58.8073 13.165H53.1403H46.9114V15.2492H53.1403V13.329L53.8194 15.2492H64.966L65.6451 13.329V15.2492Z" fill="white"/>
<path d="M71.8974 17.1226H65.645V19.2067H71.8974V17.1226Z" fill="white"/>
<path d="M71.8974 21.1035H65.645V23.1876H71.8974V21.1035Z" fill="white"/>
<path d="M76.0422 25.084H65.645V27.1681H76.0422V25.084Z" fill="white"/>
<path d="M76.0422 29.0415H65.645V31.1256H76.0422V29.0415Z" fill="white"/>
<path d="M56.7698 7.28725L56.0438 5.20312H42.7429V7.28725H56.7698Z" fill="white"/>
<path d="M55.3882 3.32973L54.6622 1.24561H42.7429V3.32973H55.3882Z" fill="white"/>
</g>
<defs>
<clipPath id="clip0_94_3035">
<rect width="75.5342" height="32.3718" fill="white" transform="translate(0.807617)"/>
</clipPath>
</defs>
</svg>
