<svg width="89" height="33" viewBox="0 0 89 33" fill="none" xmlns="http://www.w3.org/2000/svg">
<g clip-path="url(#clip0_94_3116)">
<path fill-rule="evenodd" clip-rule="evenodd" d="M38.7815 5.54103H45.5773V31.8269H38.7815V5.54103ZM55.6044 11.287H57.2547C61.6087 11.287 64.7093 13.9946 64.7093 18.6837C64.7093 23.7693 61.2122 26.0147 57.122 26.0147H55.6044V11.287ZM48.8091 31.8269H58.507C65.7641 31.8269 71.7684 26.081 71.7684 18.6832C71.7684 11.2865 65.7641 5.54053 58.507 5.54053H48.8091V31.8269Z" fill="white"/>
<path fill-rule="evenodd" clip-rule="evenodd" d="M76.2545 31.8268H83.1161V11.2869H88.7239V5.54093H70.6467V11.2869H76.2545V31.8268ZM0.978192 17.4288C0.978192 17.3846 0.978364 17.3404 0.978708 17.2962V17.603C0.978233 17.545 0.978061 17.4869 0.978192 17.4288ZM2.5097 17.1788H0.980026C0.991655 16.3869 1.05844 15.6081 1.17671 14.846V15.1697H2.5097V17.1788ZM2.5097 14.6697H1.20504C1.45244 13.1808 1.89658 11.7575 2.5097 10.4274V12.1596H1.83604V12.6596H2.5097V14.6697ZM3.0097 10.2301H2.60221C2.69514 10.0352 2.79172 9.84239 2.89186 9.65172V10.1499H4.95051V12.1596H3.0097V10.2301ZM4.95051 9.64992H2.89281C3.33234 8.81328 3.84043 8.01807 4.40952 7.27181V7.64028H4.95051V9.64992ZM4.95051 7.14028H4.51085C4.65372 6.9567 4.80031 6.77616 4.95051 6.59877V7.14028ZM5.45051 6.33346H5.17992C5.65934 5.79049 6.17325 5.27872 6.71817 4.80162V5.19647H7.45766V7.14028H5.45051V6.33346ZM7.45766 4.69647H6.83941C7.0414 4.52298 7.24754 4.35421 7.45766 4.19034V4.69647ZM7.95766 3.95598H7.76536C8.59283 3.34059 9.47865 2.79965 10.4128 2.34315V2.68683H12.472V4.69647H10.4648V2.70166H9.96481V4.69647H7.95766V3.95598ZM12.472 2.18683H10.7418C11.3026 1.92778 11.88 1.69886 12.472 1.50217V2.18683ZM12.972 1.44634H12.6431C14.1743 0.95593 15.8004 0.680476 17.4858 0.655649V2.18683H15.4786V0.918175H14.9786V2.18683H12.972V1.44634ZM17.7709 0.653845H17.7006L17.7357 0.653809L17.7709 0.653845ZM17.9858 2.18683V0.65565C18.7762 0.667298 19.5531 0.73409 20.3128 0.852343H19.9271V2.18683H17.9858ZM20.4271 2.18683V0.87053C28.378 2.1649 34.4274 9.10022 34.4269 17.4288C34.4269 23.5049 31.1941 28.8549 26.3783 31.7605H12.972V30.4915C13.1465 30.5111 13.3281 30.5159 13.514 30.5062C14.055 30.4895 14.5414 30.4013 14.9786 30.2531V31.6947H15.4786V30.048C18.0821 28.7809 18.6828 25.1563 18.7916 22.3823C19.0228 17.611 19.0271 14.5945 19.0317 11.3039C19.0337 9.90315 19.0358 8.45278 19.0554 6.79627C19.0554 5.07863 19.3193 3.75797 20.4409 3.75797C20.8497 3.72884 21.0259 4.08764 21.2268 4.49673C21.4798 5.0121 21.7721 5.60729 22.6179 5.60729C23.7391 5.54095 24.2014 4.94646 24.1351 3.95597C24.0798 2.83895 23.1272 2.33597 22.1561 2.24725V2.18683H20.4271ZM19.7469 2.68683H17.9858V4.35047C18.4772 3.57497 19.0707 3.02919 19.7469 2.68683ZM16.4196 22.6323C16.4055 23.3361 16.3856 24.0114 16.358 24.6424H15.4786V22.6323H16.4196ZM16.4476 20.1232C16.4448 20.8056 16.439 21.4793 16.4286 22.1323H15.4786V20.1232H16.4476ZM16.4463 17.6788C16.4489 18.3256 16.4502 18.977 16.449 19.6232H15.4786V17.6788H16.4463ZM16.4313 15.1697C16.4314 15.1893 16.4316 15.2089 16.4317 15.2286C16.4361 15.8639 16.4406 16.5175 16.4439 17.1788H15.4786V15.1697H16.4313ZM16.4174 12.6596C16.4191 13.292 16.4232 13.9672 16.4279 14.6697H15.4786V12.6596H16.4174ZM16.4758 10.1499C16.4367 10.7538 16.4166 11.3965 16.4166 12.0794C16.4166 12.106 16.4166 12.1327 16.4166 12.1596H15.4786V10.1499H16.4758ZM16.7865 7.64028C16.6674 8.25174 16.5756 8.92069 16.5133 9.64992H15.4786V7.64028H16.7865ZM17.4858 5.30093C17.2522 5.83618 17.0534 6.44772 16.8929 7.14028H15.4786V5.19647H17.4858V5.30093ZM16.3339 25.1424C16.3192 25.4218 16.3028 25.691 16.2844 25.9483C16.2554 26.4007 16.2166 26.8016 16.1638 27.1516H15.4786V25.1424H16.3339ZM16.0707 27.6516H15.4786V28.8058C15.7536 28.5998 15.9412 28.2167 16.0707 27.6516ZM14.9786 28.984V27.6516H13.6873C13.8173 27.8252 13.9121 28.023 14.0028 28.2123C14.2057 28.636 14.3881 29.0168 14.899 28.9866C14.926 28.9866 14.9526 28.9857 14.9786 28.984ZM11.5183 27.6516H10.4648V29.6612H11.4509C11.2702 29.3921 11.1586 29.0578 11.1385 28.6564C11.1385 28.2545 11.2832 27.9105 11.5183 27.6516ZM11.9708 30.1612H10.4648V31.6947H9.96481V30.1612H7.95766V30.7037H7.53099C8.02988 31.0841 8.5513 31.4371 9.09313 31.7605H12.472V30.3887C12.2912 30.3325 12.1229 30.2568 11.9708 30.1612ZM7.45766 30.1612V30.6475C7.25345 30.49 7.05306 30.3278 6.85665 30.1612H7.45766ZM6.71817 29.6612V30.0425C6.12912 29.5316 5.5768 28.9801 5.06527 28.3921H5.45051V27.6516H7.45766V29.6612H6.71817ZM4.95051 27.6516V28.2587C4.78157 28.0603 4.61723 27.8579 4.45763 27.6516H4.95051ZM4.40952 27.1516V27.5891C3.94373 26.981 3.51896 26.3395 3.13905 25.6686C2.93394 25.3063 2.74292 24.9373 2.56621 24.5623H3.0097V22.6323H4.95051V24.6424H2.89186V25.1424H4.95051V27.1516H4.40952ZM2.5097 22.6323V24.4411C2.23764 23.8515 2.00077 23.2475 1.79995 22.6323H2.5097ZM1.7702 22.1323V22.5403C1.26881 20.9735 1.00062 19.3354 0.979503 17.6788H2.5097V19.6232H1.24254V20.1232H2.5097V22.1323H1.7702ZM17.4858 2.68683H15.4786V4.69647H17.4858V2.68683ZM14.9786 24.6424V22.6323H12.972V24.6424H14.9786ZM12.472 24.6424V22.6323H10.4648V24.6424H12.472ZM10.4648 25.1424H12.472V27.1516H10.4648V25.1424ZM9.96481 24.6424V22.6323H7.95766V24.6424H9.96481ZM7.95766 25.1424H9.96481V27.1516H7.95766V25.1424ZM7.45766 24.6424V22.6323H5.45051V24.6424H7.45766ZM5.45051 25.1424H7.45766V27.1516H5.45051V25.1424ZM5.45051 22.1323H7.45766V20.1232H5.45051V22.1323ZM5.45051 19.6232H7.45766V17.6788H5.45051V19.6232ZM4.95051 17.6788V19.6232H3.0097V17.6788H4.95051ZM4.95051 15.1697V17.1788H3.0097V15.1697H4.95051ZM5.45051 14.6697H7.45766V12.6596H5.45051V14.6697ZM4.95051 12.6596V14.6697H3.0097V12.6596H4.95051ZM5.45051 12.1596H7.45766V10.1499H5.45051V12.1596ZM5.45051 9.64992H7.45766V7.64028H5.45051V9.64992ZM7.95766 7.64028V9.64992H9.96481V7.64028H7.95766ZM10.4648 7.64028V9.64992H12.472V7.64028H10.4648ZM12.472 7.14028H10.4648V5.19647H12.472V7.14028ZM14.9786 7.14028H12.972V5.19647H14.9786V7.14028ZM14.9786 4.69647V2.68683H12.972V4.69647H14.9786ZM14.9786 10.1499H12.972V12.1596H14.9786V10.1499ZM14.9786 12.6596H12.972V14.6697H14.9786V12.6596ZM14.9786 15.1697H12.972V17.1788H14.9786V15.1697ZM14.9786 17.6788H12.972V19.6232H14.9786V17.6788ZM14.9786 20.1232H12.972V22.1323H14.9786V20.1232ZM12.472 22.1323V20.1232H10.4648V22.1323H12.472ZM9.96481 22.1323V20.1232H7.95766V22.1323H9.96481ZM7.95766 19.6232H9.96481V17.6788H7.95766V19.6232ZM7.95766 17.1788H9.96481V15.1697H7.95766V17.1788ZM7.95766 14.6697H9.96481V12.6596H7.95766V14.6697ZM7.95766 12.1596H9.96481V10.1499H7.95766V12.1596ZM10.4648 10.1499V12.1596H12.472V10.1499H10.4648ZM12.472 12.6596H10.4648V14.6697H12.472V12.6596ZM12.472 15.1697H10.4648V17.1788H12.472V15.1697ZM12.472 17.6788H10.4648V19.6232H12.472V17.6788ZM9.96481 5.19647V7.14028H7.95766V5.19647H9.96481ZM3.0097 20.1232H4.95051V22.1323H3.0097V20.1232ZM7.95766 27.6516V29.6612H9.96481V27.6516H7.95766ZM12.972 27.1516V25.1424H14.9786V27.1516H12.972Z" fill="white"/>
<path d="M8.64289 32.4847L8.88117 32.6285H9.15946H26.3125H26.5908L26.8291 32.4847C31.9377 29.4027 35.2958 23.7985 35.2958 17.429C35.2952 7.70312 27.4644 -0.213867 17.7357 -0.213867C8.0122 -0.213867 0.110352 7.69742 0.110352 17.429C0.110352 23.8062 3.54099 29.4068 8.64289 32.4847Z" stroke="white" stroke-width="2" stroke-miterlimit="2.613"/>
<path fill-rule="evenodd" clip-rule="evenodd" d="M86.7444 31.431L87.2726 30.1104H87.7344V31.8928H87.4706V30.4405H87.4043L86.8771 31.8928H86.6786L86.0856 30.4405V31.8928H85.7554V30.1104H86.2836L86.7444 31.431ZM85.4906 30.3737H84.8976V31.8923H84.6338V30.3737H84.0398V30.1099H85.4911L85.4906 30.3737Z" fill="white"/>
</g>
<defs>
<clipPath id="clip0_94_3116">
<rect width="88.6137" height="32.3718" fill="white" transform="translate(0.324219)"/>
</clipPath>
</defs>
</svg>
