<svg width="83" height="33" viewBox="0 0 83 33" fill="none" xmlns="http://www.w3.org/2000/svg">
<g clip-path="url(#clip0_94_3032)">
<path d="M7.33354 1.07959H1.48462V6.9144H7.33354V1.07959Z" fill="white"/>
<path d="M7.18789 31.4788V10.4444H1.63037V31.458H7.18789V31.4788ZM43.9882 31.6864V26.5368C43.1764 26.5368 42.4896 26.4953 41.99 26.4123C41.4072 26.3292 40.9701 26.1216 40.6787 25.8309C40.3873 25.5401 40.1999 25.1249 40.0959 24.5642C40.0126 24.0451 39.971 23.3599 39.971 22.5293V15.1994H43.9882V10.4444H39.971V2.26318H34.4135V22.5916C34.4135 24.315 34.5592 25.7686 34.8506 26.9314C35.142 28.0734 35.6415 29.0078 36.3284 29.7138C37.0153 30.4198 37.9311 30.9181 39.0343 31.2296C40.1583 31.5411 41.5737 31.6864 43.2597 31.6864H43.9882ZM75.793 31.4788V0.643555H70.2355V31.4788H75.793ZM29.0641 12.5208C27.5238 10.8597 25.3591 10.0291 22.6116 10.0291C21.2794 10.0291 20.0513 10.299 18.969 10.8389C17.8658 11.3788 16.95 12.1263 16.2006 13.0815L15.9092 13.476V13.123V10.4444H10.435V31.458H15.9509V20.266V21.0343C15.9509 20.9097 15.9509 20.7851 15.9509 20.6605C16.0133 18.6879 16.492 17.2344 17.4079 16.3C18.3862 15.3033 19.5726 14.8049 20.9256 14.8049C22.5283 14.8049 23.7564 15.3033 24.5681 16.2584C25.3591 17.2136 25.7754 18.5633 25.7754 20.2867V20.349V31.458H31.3745V19.5392C31.3953 16.5491 30.6044 14.182 29.0641 12.5208ZM67.3631 20.9304C67.3631 19.4146 67.0925 18.0026 66.5721 16.6737C66.0309 15.3656 65.2816 14.2028 64.345 13.2061C63.3875 12.2094 62.2427 11.4411 60.9105 10.8804C59.5784 10.3198 58.1006 10.0499 56.4978 10.0499C54.9784 10.0499 53.5421 10.3406 52.21 10.9012C50.8779 11.4826 49.7122 12.2509 48.734 13.2268C47.7557 14.2028 46.9647 15.3656 46.4027 16.6945C45.8199 18.0234 45.5493 19.4562 45.5493 20.972C45.5493 22.4878 45.8199 23.9205 46.3611 25.2494C46.9023 26.5784 47.6724 27.7412 48.6299 28.7171C49.5874 29.693 50.7738 30.4821 52.1476 31.0427C53.5213 31.6241 55.0408 31.9148 56.6643 31.9148C61.3685 31.9148 64.2825 29.7761 66.0309 27.7827L62.0345 24.7511C61.2019 25.7478 59.2037 27.0975 56.706 27.0975C55.1449 27.0975 53.8544 26.7445 52.8761 26.0177C51.8978 25.3117 51.2317 24.315 50.8779 23.0899L50.8154 22.9031H67.3631V20.9304ZM50.857 18.9993C50.857 17.4628 52.6263 14.7842 56.4354 14.7634C60.2445 14.7634 62.0345 17.442 62.0345 18.9786L50.857 18.9993ZM82.1207 28.8209C82.0166 28.5718 81.8709 28.3641 81.6836 28.1772C81.4962 27.9904 81.2881 27.845 81.0383 27.7412C80.7885 27.6374 80.5179 27.5751 80.2474 27.5751C79.956 27.5751 79.7062 27.6374 79.4564 27.7412C79.2066 27.845 78.9985 27.9904 78.8111 28.1772C78.6238 28.3641 78.4781 28.5718 78.374 28.8209C78.27 29.0701 78.2075 29.34 78.2075 29.61C78.2075 29.9007 78.27 30.1499 78.374 30.399C78.4781 30.6482 78.6238 30.8559 78.8111 31.0427C78.9985 31.2296 79.2066 31.375 79.4564 31.4788C79.7062 31.5826 79.9768 31.6449 80.2474 31.6449C80.5388 31.6449 80.7885 31.5826 81.0383 31.4788C81.2881 31.375 81.4962 31.2296 81.6836 31.0427C81.8709 30.8559 82.0166 30.6482 82.1207 30.399C82.2247 30.1499 82.2872 29.8799 82.2872 29.61C82.2872 29.34 82.2247 29.0701 82.1207 28.8209ZM81.7876 30.2744C81.7044 30.4821 81.5795 30.669 81.4338 30.8143C81.2881 30.9597 81.1008 31.0843 80.8926 31.1673C80.6845 31.2504 80.4763 31.2919 80.2265 31.2919C79.9976 31.2919 79.7686 31.2504 79.5605 31.1673C79.3523 31.0843 79.165 30.9597 79.0193 30.8143C78.8736 30.669 78.7487 30.4821 78.6654 30.2744C78.5822 30.0668 78.5406 29.8592 78.5406 29.61C78.5406 29.3816 78.5822 29.1532 78.6654 28.9455C78.7487 28.7379 78.8736 28.551 79.0193 28.4056C79.165 28.2603 79.3523 28.1357 79.5605 28.0526C79.7686 27.9696 79.9768 27.9281 80.2265 27.9281C80.4555 27.9281 80.6845 27.9696 80.8926 28.0526C81.1008 28.1357 81.2881 28.2603 81.4338 28.4056C81.5795 28.551 81.7044 28.7379 81.7876 28.9455C81.8709 29.1532 81.9125 29.3608 81.9125 29.61C81.9125 29.8592 81.8709 30.0668 81.7876 30.2744ZM80.622 29.7969C80.7885 29.7761 80.9134 29.7138 81.0175 29.61C81.1216 29.5062 81.184 29.3608 81.184 29.1532C81.184 28.9248 81.1216 28.7586 80.9759 28.6341C80.851 28.5095 80.622 28.4472 80.3514 28.4472H79.4356V30.7936H79.8727V29.8384H80.1849L80.7677 30.7936H81.2256L80.622 29.7969ZM80.3931 29.4439C80.3306 29.4439 80.2682 29.4439 80.1849 29.4439H79.8727V28.7794H80.1849C80.2474 28.7794 80.3098 28.7794 80.3931 28.7794C80.4555 28.7794 80.5179 28.8002 80.5804 28.8209C80.6428 28.8417 80.6845 28.8832 80.7053 28.9248C80.7469 28.9663 80.7469 29.0286 80.7469 29.1116C80.7469 29.1947 80.7261 29.257 80.7053 29.2985C80.6636 29.34 80.622 29.3816 80.5804 29.4023C80.5179 29.4231 80.4555 29.4439 80.3931 29.4439Z" fill="white"/>
</g>
<defs>
<clipPath id="clip0_94_3032">
<rect width="82.3012" height="32.3718" fill="white" transform="translate(0.506348)"/>
</clipPath>
</defs>
</svg>
