<svg width="115" height="33" viewBox="0 0 115 33" fill="none" xmlns="http://www.w3.org/2000/svg">
<g clip-path="url(#clip0_94_3126)">
<path d="M29.1505 16.5648C29.1476 17.535 29.0957 18.5474 29.0268 19.5005C28.9575 20.4252 28.9419 21.6217 28.7881 22.5496C28.2091 26.0983 25.952 27.5643 23.0316 27.7199L21.5159 27.8209L20.0002 27.7199C17.0783 27.5643 14.8203 26.0983 14.2394 22.5496C14.0884 21.6217 14.0724 20.4252 14.0044 19.5005C13.9355 18.5469 13.8817 17.5345 13.878 16.5648C13.8751 16.4433 13.878 16.3651 13.8751 16.2427C13.878 16.1198 13.8751 15.9969 13.878 15.8755C13.8817 14.9057 13.935 13.8919 14.0044 12.9383C14.0724 12.016 14.0879 10.8191 14.2394 9.8911C14.8198 6.34005 17.0778 4.87788 20.0002 4.72084L21.5159 4.66723L23.0316 4.72084C25.952 4.87835 28.2091 6.34052 28.7881 9.8911C28.9419 10.8191 28.9575 12.016 29.0268 12.9383C29.0957 13.8919 29.1476 14.9057 29.1505 15.8755C29.1528 15.9974 29.1528 16.1203 29.1528 16.2427C29.1533 16.3651 29.1533 16.4433 29.1505 16.5648ZM40.7758 8.39952C39.749 5.59663 37.2329 3.11492 34.8381 2.05649C34.2039 1.66983 33.0534 1.29551 31.3995 0.989036C29.2316 0.557786 25.9912 0.284044 22.0935 0.264119C21.9693 0.262695 21.8448 0.264119 21.7202 0.264119C21.6499 0.262695 21.5833 0.262695 21.5154 0.262695C21.4437 0.262695 21.3757 0.262695 21.3092 0.264119C21.1841 0.264119 21.0614 0.262695 20.935 0.264119C17.0358 0.28357 13.7987 0.557312 11.6275 0.988562C9.97594 1.29504 8.82549 1.66936 8.19128 2.05601C5.79646 3.11445 3.27613 5.59615 2.25214 8.39904C1.45796 10.4182 1.16822 13.1879 1.0965 15.6895C1.0965 15.8707 1.08848 16.0557 1.09367 16.2422C1.08848 16.4296 1.0965 16.5691 1.0965 16.7512C1.16822 19.2524 1.45796 22.0202 2.25214 24.0398C3.27613 26.8436 5.79646 29.3258 8.19128 30.3819C8.82549 30.77 9.97594 31.1462 11.6275 31.4517C13.7982 31.8825 17.0358 32.1558 20.935 32.1762C21.0619 32.1762 21.1841 32.1762 21.3092 32.1762C21.3757 32.1762 21.4437 32.1762 21.5154 32.1762C21.5833 32.1762 21.6499 32.1762 21.7202 32.1762C21.8443 32.1762 21.9693 32.1762 22.0935 32.1762C25.9912 32.1558 29.2316 31.8825 31.3995 31.4517C33.0534 31.1457 34.2039 30.77 34.8381 30.3819C37.2329 29.3253 39.749 26.8436 40.7758 24.0398C41.5691 22.0202 41.8819 19.2524 41.9551 16.7512C41.9551 16.5691 41.9838 16.4291 41.9815 16.2422C41.9838 16.0557 41.9551 15.8707 41.9551 15.6895C41.8819 13.1883 41.5691 10.4187 40.7758 8.39952ZM71.89 11.8158L82.1322 5.19716H87.0308V1.02225H69.297V5.19716H73.0225L60.0523 13.6082V5.19716H64.1039V1.02225H44.3518V5.19716H48.4029V27.2312H44.3518V31.4081H64.1034V27.2312H60.0518V19.4635L63.9614 16.9377L72.3623 27.2312H69.297V31.4081H89.3067V27.2312H85.7978L71.89 11.8158ZM114.551 5.19194V1.01703H92.8794V5.19194H97.3439V27.2312H92.8794V31.4081H114.551V27.2312H110.087V5.19194H114.551Z" fill="white"/>
</g>
<defs>
<clipPath id="clip0_94_3126">
<rect width="113.886" height="32.3718" fill="white" transform="translate(0.937988)"/>
</clipPath>
</defs>
</svg>
