<svg width="172" height="33" viewBox="0 0 172 33" fill="none" xmlns="http://www.w3.org/2000/svg">
<g clip-path="url(#clip0_94_3105)">
<path fill-rule="evenodd" clip-rule="evenodd" d="M35.44 1.68615C35.44 1.68615 32.1655 6.1969 31.7565 6.1969C31.3466 5.78716 12.9271 4.14639 13.746 7.83767C13.746 9.47845 17.8394 9.88818 19.0672 9.88818C23.5696 10.7086 36.6688 11.1183 36.2589 17.2707C35.8499 22.1903 31.7565 23.4223 30.1197 23.832C24.3885 25.8816 16.2026 25.8816 9.65254 25.4719C5.96901 25.0621 1.05672 24.2417 1.05672 24.2417C1.46569 23.0116 2.28456 21.3699 3.92138 19.3203C11.6983 20.9602 19.4762 20.5505 21.1139 20.1407C21.9328 19.731 23.1607 19.3203 23.1607 18.0911C23.5696 16.0397 19.0672 15.63 17.8394 15.63C13.337 14.8096 -0.580102 13.9901 0.646827 7.83859C1.05672 3.73757 4.33127 2.50745 8.42378 1.27733C17.0196 -1.18475 30.1187 0.455109 35.44 1.68615ZM40.3523 0.865756H50.5859V19.7301H40.3523V0.865756ZM55.0883 0.865756H80.4667V4.96677H64.9119V8.24741H74.3266L72.2799 11.9378H64.9119V15.6291H80.4667V19.7301H55.0883V0.865756ZM116.487 0.865756H141.866V4.96677H126.312V8.24741H135.726L133.679 11.9378H126.312V15.6291H141.866V19.7301H116.487V0.865756ZM145.96 0.865756H155.373V15.6291H171.748V19.7301H145.96V0.865756ZM84.9691 0.865756C89.0626 0.865756 105.845 0.455107 109.938 2.09588C112.395 3.326 114.032 5.37651 112.395 7.83767C111.576 9.06779 108.711 9.88818 107.483 9.88818C107.483 9.88818 113.623 10.2979 113.623 14.3989C113.623 20.9602 100.525 19.7301 84.9701 19.7301L84.9691 0.865756ZM94.3838 4.55612V8.24649C96.4296 8.24649 103.798 8.65622 103.798 6.60572C103.798 3.73574 96.4305 4.55612 94.3838 4.55612ZM94.3838 11.9378V16.0379C96.4296 16.0379 103.798 16.0379 103.798 13.9883C104.208 11.9378 99.2961 11.9378 97.6593 11.9378H94.3838ZM42.3981 27.9312C42.3981 28.3409 42.3981 29.1631 43.6259 29.1631C44.4448 29.1631 45.2637 28.7534 45.2637 28.3418C45.2637 27.5215 44.4448 27.5215 44.0358 27.5215L43.217 27.1117C41.9891 27.1117 41.1702 26.702 41.1702 25.0621C41.1702 24.6524 41.5801 23.0125 43.6269 23.0125C45.6736 23.0125 46.0835 24.6524 46.0835 25.4728H44.8556C44.8556 25.063 44.8556 24.2427 43.6278 24.2427C43.2188 24.2427 42.3999 24.6524 42.3999 25.063C42.3999 25.4737 42.8098 25.8834 43.2188 25.8834L44.8565 26.2932C45.6754 26.2932 46.4943 26.7029 46.4943 27.933C46.4943 29.9844 44.4475 29.9844 43.6287 29.9844C41.582 29.9844 41.1721 28.7543 41.1721 27.933H42.3981V27.9312ZM49.3571 25.0612H50.176V25.8816H49.3571V28.7534C49.3571 28.7534 49.3571 29.1631 50.176 29.1631V29.9835H49.3571C48.5382 29.9835 48.1293 29.5738 48.1293 29.1631V25.8816H47.7203V25.0612H48.1293V23.8311H49.3571V25.0612ZM51.8128 25.0612H53.0406V25.8816C53.4496 25.4719 53.4496 25.0612 54.2685 25.0612H54.6774V26.2913H54.2685C53.4496 26.2913 53.0406 26.7011 53.0406 27.5215V29.9835H51.8128V25.0612ZM58.7718 28.3409C58.7718 28.7525 58.3628 29.1622 57.5439 29.1622C57.5439 29.1622 57.135 29.1622 57.135 28.7525C57.135 27.9312 57.5439 27.9312 57.9538 27.9312C58.3637 27.9312 58.7727 27.5215 58.7727 27.5215L58.7718 28.3409ZM60.0006 26.2913C60.0006 25.0612 58.7718 25.0612 57.9538 25.0612C57.1359 25.0612 55.9071 25.0612 55.9071 26.7011H57.135C57.135 26.2913 57.135 25.8807 57.9538 25.8807C58.3628 25.8807 58.7727 25.8807 58.7727 26.7011C58.7727 26.7011 58.3637 26.7011 58.3637 27.1108H57.1359C56.317 27.1108 55.908 27.5205 55.908 28.7525C55.908 29.5729 56.317 29.9826 57.1359 29.9826C57.9547 29.9826 58.3637 29.5729 58.7727 29.5729V29.9826H60.4104V29.5729C60.0015 29.5729 60.0015 29.5729 60.0015 29.1631L60.0006 26.2913ZM63.2742 25.0612H64.0931V25.8816H63.2742V28.7534C63.2742 28.7534 63.2742 29.1631 63.6841 29.1631H64.0931V29.9835H63.2742C62.0463 29.9835 62.0463 29.5738 62.0463 29.1631V25.8816H61.2275V25.0612H62.0463V23.8311H63.2742V25.0612ZM66.5497 27.1108C66.5497 26.2904 66.9586 25.8807 67.3685 25.8807C67.7784 25.8807 68.5964 26.2904 68.5964 27.1108H66.5497ZM68.5955 28.3409C68.1865 28.7525 68.1865 29.1622 67.7766 29.1622C66.5487 29.1622 66.5487 28.3409 66.5487 27.9303H69.8233V27.5205C69.8233 25.4709 68.5945 25.0603 67.3667 25.0603C65.32 25.0603 65.32 26.7002 65.32 27.5205C65.32 29.572 66.1388 29.9826 67.7757 29.9826C68.5945 29.9826 69.4134 29.5729 69.8224 28.3409H68.5955ZM72.6889 27.5215C72.6889 26.2913 73.0978 25.8816 73.5077 25.8816C74.3266 25.8816 74.7356 26.702 74.7356 27.5215C74.7356 28.3409 74.3266 28.7534 73.5077 28.7534C72.6889 28.7525 72.6889 28.3409 72.6889 27.5215ZM74.7356 25.0612V25.8816C74.3266 25.4719 73.9167 25.0612 73.0979 25.0612C72.279 25.0612 71.0511 25.8816 71.0511 27.5215C71.0511 29.1631 72.279 29.9835 73.0979 29.9835C73.9167 29.9835 74.3257 29.5738 74.7356 29.1631V29.9835C74.7356 30.8039 74.3266 30.8039 73.5077 30.8039C72.6889 30.8039 72.6889 30.8039 72.6889 30.3942H71.461C71.461 31.6243 72.2799 32.034 73.5077 32.034C75.9634 32.034 75.9634 30.3942 75.9634 29.5738V25.0621L74.7356 25.0612ZM77.6012 29.9826V25.0612H78.829V29.9826H77.6012ZM77.6012 24.6515V23.4214H78.829V24.6515H77.6012ZM84.9691 28.3409C84.9691 28.7525 84.5602 29.9826 82.9224 29.9826C80.8757 29.9826 80.4658 28.7525 80.4658 27.5205C80.4658 25.8807 81.2847 25.0603 82.9224 25.0603C83.7413 25.0603 84.9691 25.47 84.9691 26.7001H83.7413C83.7413 26.7001 83.7413 25.8798 82.9224 25.8798C82.1036 25.8798 82.1036 26.7002 82.1036 27.5196C82.1036 27.9294 82.1036 29.1613 82.9224 29.1613C83.7413 29.1613 83.7413 28.34 83.7413 28.34L84.9691 28.3409ZM91.5192 26.2913V24.6515H92.747C93.5659 24.6515 93.5659 24.6515 93.5659 25.4719C93.5659 25.8816 93.5659 26.2922 92.747 26.2922L91.5192 26.2913ZM91.5192 27.5215H93.156C94.7928 27.5215 95.2018 25.8816 95.2018 25.4719C95.2018 24.2417 94.3829 23.4223 93.156 23.4223H89.8805V29.9835H91.5192V27.5215ZM98.0692 29.9826V23.4214H96.8395V29.9826H98.0692ZM102.57 28.3409C102.57 28.7525 102.161 29.1622 101.751 29.1622C101.341 29.1622 100.932 29.1622 100.932 28.7525C100.932 27.9312 101.341 27.9312 101.751 27.9312C102.57 27.9312 102.57 27.5215 102.57 27.5215V28.3409ZM103.798 26.2913C103.798 25.0612 102.57 25.0612 102.161 25.0612C100.933 25.0612 100.115 25.0612 99.7051 26.7011H100.933C100.933 26.2913 101.342 25.8807 101.752 25.8807C102.162 25.8807 102.571 25.8807 102.571 26.7011L102.162 27.1108H100.934C100.115 27.1108 99.706 27.5205 99.706 28.7525C99.706 29.5729 100.525 29.9826 101.343 29.9826C102.161 29.9826 102.571 29.5729 102.571 29.5729C102.98 29.5729 102.98 29.5729 102.98 29.9826H104.209V29.5729C104.209 29.5729 103.799 29.5729 103.799 29.1631L103.798 26.2913ZM107.073 25.0612H107.892V25.8816H107.073V28.7534C107.073 28.7534 107.073 29.1631 107.892 29.1631V29.9835H107.483C106.255 29.9835 105.846 29.5738 105.846 29.1631V25.8816H105.437V25.0612H105.846V23.8311H107.074L107.073 25.0612ZM111.167 29.9826H109.938V25.8807H109.119V25.0603H109.938V24.6506C109.938 23.8302 110.347 23.4204 111.167 23.4204H111.986V24.2408H111.577C111.168 24.2408 111.168 24.6506 111.168 25.0612H111.987V25.8816H111.168L111.167 29.9826ZM116.487 27.5215C116.487 28.3418 116.487 29.1631 115.259 29.1631C114.44 29.1631 114.031 28.3418 114.031 27.5215C114.031 26.7011 114.44 25.8816 115.259 25.8816C116.487 25.8816 116.487 26.7011 116.487 27.5215ZM117.717 27.5215C117.717 25.8816 116.487 25.0612 115.259 25.0612C114.031 25.0612 112.803 25.8816 112.803 27.5215C112.803 29.1631 114.031 29.9835 115.259 29.9835C116.487 29.9835 117.717 29.1631 117.717 27.5215ZM119.353 25.0612H120.581V25.8816C120.99 25.4719 121.4 25.0612 121.809 25.0612H122.218V26.2913H121.809C120.99 26.2913 120.581 26.7011 120.581 27.5215V29.9835H119.353V25.0612ZM130.816 29.9826H129.588V27.1108C129.588 26.2904 129.177 25.8807 128.768 25.8807C127.949 25.8807 127.949 26.2904 127.949 27.1108V29.9826H126.721V27.1108C126.721 26.7011 126.721 25.8807 125.902 25.8807C125.084 25.8807 125.084 26.2904 125.084 27.1108V29.9826H123.856V25.0612H125.084V25.8816C125.084 25.4719 125.493 25.0612 126.311 25.0612C127.13 25.0612 127.539 25.0612 127.539 25.8816C127.948 25.4719 128.358 25.0612 129.176 25.0612C129.996 25.0612 130.815 25.471 130.815 26.7011V29.9826H130.816ZM137.365 26.2913V24.6515H138.184C139.411 24.6515 139.411 24.6515 139.411 25.4719C139.411 25.8816 139.411 26.2922 138.593 26.2922L137.365 26.2913ZM137.365 27.5215H139.002C140.638 27.5215 141.047 25.8816 141.047 25.4719C141.047 24.2417 140.229 23.4223 139.002 23.4223H135.726V29.9835H137.365V27.5215ZM145.142 28.3409C145.142 28.7525 144.323 29.1622 143.914 29.1622C143.505 29.1622 143.095 29.1622 143.095 28.7525C143.095 27.9312 143.504 27.9312 144.323 27.9312C144.732 27.9312 144.732 27.5215 145.142 27.5215V28.3409ZM146.37 26.2913C146.37 25.0612 145.142 25.0612 144.324 25.0612C143.506 25.0612 142.276 25.0612 142.276 26.7011H143.506C143.506 26.2913 143.506 25.8807 144.325 25.8807C144.325 25.8807 145.144 25.8807 145.144 26.7011C145.144 26.7011 144.735 26.7011 144.735 27.1108H143.507C142.687 27.1108 141.868 27.5205 141.868 28.7525C141.868 29.5729 142.687 29.9826 143.507 29.9826C144.326 29.9826 144.735 29.5729 145.144 29.5729V29.9826H146.78V29.5729C146.371 29.5729 146.371 29.5729 146.371 29.1631V26.2913H146.37ZM148.006 25.0612H149.236V25.8816C149.645 25.4719 150.055 25.0612 150.873 25.0612V26.2913H150.464C149.645 26.2913 149.236 26.7011 149.236 27.5215V29.9835H148.006V25.0612ZM154.147 25.0612H154.965V25.8816H154.147V28.7534C154.147 28.7534 154.147 29.1631 154.556 29.1631H154.964V29.9835H154.146C152.918 29.9835 152.918 29.5738 152.918 29.1631V25.8816H152.099V25.0612H152.918V23.8311H154.146V25.0612H154.147ZM160.696 29.9826H159.468V27.1108C159.468 26.7011 159.468 25.8807 158.649 25.8807C158.24 25.8807 157.421 26.2904 157.421 27.1108V29.9826H156.193V25.0612H157.421V25.8816C157.83 25.4719 158.24 25.0612 159.058 25.0612C159.876 25.0612 160.695 25.471 160.695 26.7011L160.696 29.9826ZM163.562 27.1108C163.562 26.2904 163.971 25.8807 164.381 25.8807C164.791 25.8807 165.609 26.2904 165.609 27.1108H163.562ZM165.608 28.3409C165.199 28.7525 165.199 29.1622 164.789 29.1622C163.561 29.1622 163.561 28.3409 163.561 27.9303H166.835V27.5205C166.835 25.4709 165.607 25.0603 164.379 25.0603C162.333 25.0603 162.333 26.7002 162.333 27.5205C162.333 29.572 163.152 29.9826 164.789 29.9826C165.608 29.9826 166.426 29.5729 166.835 28.3409H165.608ZM168.474 25.0612H169.702V25.8816C170.111 25.4719 170.111 25.0612 170.93 25.0612H171.339V26.2913H170.93C169.702 26.2913 169.702 26.7011 169.702 27.5215V29.9835H168.474V25.0612Z" fill="white"/>
</g>
<defs>
<clipPath id="clip0_94_3105">
<rect width="171.186" height="32.3718" fill="white" transform="translate(0.570557)"/>
</clipPath>
</defs>
</svg>
