<svg width="155" height="33" viewBox="0 0 155 33" fill="none" xmlns="http://www.w3.org/2000/svg">
<g clip-path="url(#clip0_94_3080)">
<path d="M85.0571 3.36153C86.3075 1.19307 88.8258 0.0498738 91.2655 0.0281501C93.4918 -0.115832 96.0101 0.255029 97.5698 2.01773C96.7769 3.06486 96.0188 4.13383 95.2259 5.18093C94.3414 4.16434 93.6138 2.73316 92.1848 2.4452C90.7775 2.00889 89.0088 2.7419 88.6427 4.25152C88.0501 6.64685 88.4074 9.15118 88.3203 11.5946H92.8906V14.3217H88.3159C88.3159 18.4318 88.3159 22.5417 88.3116 26.6518C88.2941 27.8167 88.4815 28.9686 88.6993 30.1116C89.7449 30.5959 90.8734 30.8446 92.0279 30.8665C92.0236 31.1501 92.0192 31.7216 92.0149 32.0096C88.2767 31.7652 84.5341 31.6911 80.8003 32.0052C80.8003 31.7652 80.809 31.2853 80.809 31.0453C81.9897 30.8359 83.4536 30.2862 83.5015 28.8638C83.959 24.0339 83.6497 19.169 83.7411 14.3217C82.8306 14.3217 81.92 14.3217 81.0093 14.3174C81.0137 13.9072 81.0224 13.4927 81.0268 13.0826C81.9504 12.655 82.8523 12.1795 83.741 11.6908C83.741 8.88963 83.5754 5.86159 85.0568 3.36168L85.0571 3.36153Z" fill="white"/>
<path d="M152.444 0.0239258C150.026 0.582393 147.577 1.05346 145.094 1.16254C145.068 1.38942 145.02 1.84307 144.998 2.06996C145.921 2.3492 147.429 2.27538 147.494 3.56687C147.865 6.18481 147.603 8.84138 147.677 11.4767C144.118 10.8659 140.14 10.9051 137.112 13.126C133.797 15.4515 132.659 19.7886 132.991 23.6545C133.178 26.6518 134.677 29.7279 137.391 31.1894C140.623 32.9696 144.758 32.6031 147.786 30.5524C147.808 31.1589 147.821 31.7653 147.826 32.3718C150.169 31.7741 152.566 31.4381 154.975 31.2984V30.2511C151.561 29.6687 152.505 28.0862 152.265 25.3954C152.27 16.9398 152.139 8.4796 152.444 0.0245049L152.444 0.0239258ZM143.585 13.6596C145.027 13.6444 146.494 14.1057 147.677 14.9106C147.682 19.4613 147.669 24.0119 147.686 28.5625C145.15 29.7275 141.722 29.6445 139.735 27.4892C138.031 25.6654 137.744 22.9952 137.896 20.6129C138.066 18.4444 138.52 15.9662 140.41 14.6222C141.358 13.9713 142.464 13.6712 143.585 13.6594L143.585 13.6596Z" fill="white"/>
<path d="M8.72004 2.80312C11.5912 2.6286 14.471 2.81621 17.3117 3.21761C17.1418 5.24209 17.1592 7.2797 17.3161 9.3041C17.0416 9.3041 16.4927 9.30846 16.2182 9.30846C16.0003 8.04318 15.7738 6.50732 14.4275 5.94443C12.4321 5.10235 10.0967 5.01946 8.02723 5.62157C5.32168 6.42438 4.87723 10.4121 6.89011 12.1532C9.40837 14.3609 12.4931 15.8051 15.0723 17.9473C19.111 21.1673 18.5838 28.6632 13.7914 30.9188C9.75704 32.7862 5.02107 32.315 0.855864 31.1413C0.881895 29.1355 0.807899 27.1297 0.716309 25.1263C1.01692 25.1219 1.62253 25.1088 1.9275 25.1044C2.14099 26.3654 2.33703 27.9143 3.61359 28.5643C5.89656 29.8471 8.84174 29.9518 11.212 28.8479C14.1704 27.2117 13.6257 22.4821 10.8591 20.8895C8.45845 19.0382 5.70061 17.6696 3.4829 15.5793C1.02562 13.293 0.720719 9.28765 2.30235 6.42978C3.59619 4.15218 6.20604 3.01361 8.71997 2.8041L8.72004 2.80312Z" fill="white"/>
<path d="M25.7592 7.0918C25.9858 7.10489 26.4432 7.1267 26.6698 7.13979C26.6654 8.6625 26.6654 10.1809 26.6654 11.7037H33.6364V14.3216H26.6654C26.6916 17.9867 26.6088 21.656 26.7046 25.3254C26.8005 26.7216 26.8397 28.4626 28.1424 29.3177C29.7849 30.2951 31.7499 29.6842 33.3925 29.0429C33.8979 30.282 32.6126 30.9757 31.7194 31.4906C29.6238 32.5072 27.0664 32.6163 24.901 31.7699C23.0493 31.0761 22.1562 29.0474 22.0602 27.1886C21.838 22.904 22.0602 18.6109 22.0951 14.3219H19.372C19.3676 14.0339 19.3632 13.7503 19.3589 13.4667C22.3173 12.3498 24.3125 9.79737 25.7592 7.09229L25.7592 7.0918Z" fill="white"/>
<path d="M44.4149 11.0117C41.2738 10.9794 38.106 12.5418 37.0968 15.7004C37.3713 15.8575 37.929 16.1671 38.2078 16.3242C39.4146 14.1907 42.2335 13.0956 44.4553 14.3261C46.198 15.1202 46.3464 17.2535 46.3116 18.9248C43.5711 19.8061 40.7347 20.5 38.1467 21.7916C35.0447 23.4321 34.6439 28.083 36.8659 30.6005C39.4844 33.0046 43.8543 32.6161 46.4422 30.3429C47.2308 31.9049 49.0954 32.5027 50.7204 32.0446C52.1364 31.7697 53.073 30.5874 54.0011 29.5882C53.8399 29.4049 53.5134 29.0339 53.3522 28.8463C52.7684 28.9947 52.1103 29.4571 51.5396 29.0077C50.7989 28.4972 50.8902 27.472 50.838 26.6822C50.8903 23.2965 51.0776 19.9023 50.899 16.5122C50.8118 14.7582 50.0277 12.9647 48.4766 12.0441C47.2649 11.3705 45.8428 11.0264 44.4149 11.0117ZM46.2633 21.5687C46.2807 23.8506 46.2635 26.1324 46.281 28.4143C44.8215 29.0644 43.0874 29.6665 41.5494 28.9205C39.6672 27.9169 39.7458 24.9153 41.3012 23.6544C42.7956 22.6247 44.5684 22.1403 46.2633 21.5687Z" fill="white"/>
<path d="M104.462 11.0973C102.166 11.1235 99.7959 11.6951 98.0007 13.1916C95.3299 15.3557 94.1712 18.9334 94.2889 22.2929C94.2758 25.1681 95.1689 28.2355 97.4302 30.1467C100.101 32.4766 103.983 32.7077 107.307 32.0139C110.814 31.2417 113.45 28.1657 114.195 24.7189C114.997 21.1412 114.661 16.9833 112.204 14.095C110.313 11.8786 107.285 11.0406 104.462 11.0973ZM104.493 13.5393C105.727 13.5633 106.948 14.0708 107.738 15.0546C109.172 16.813 109.555 19.1778 109.66 21.3854C109.677 23.7895 109.372 26.3852 107.86 28.3486C106.375 30.2727 103.173 30.4865 101.46 28.7544C100.149 27.5371 99.6609 25.7266 99.3646 24.0249C99.0553 21.7648 99.1338 19.4129 99.844 17.2357C100.341 15.7785 101.308 14.3038 102.841 13.8063C103.368 13.6168 103.932 13.528 104.493 13.5389L104.493 13.5393Z" fill="white"/>
<path d="M55.6396 12.4846C58.0752 12.4454 60.5455 12.1923 62.7936 11.1844C62.872 11.7647 62.933 12.345 62.9809 12.934C65.5645 11.2412 68.9018 10.5823 71.8601 11.6295C73.9776 12.3407 75.4589 14.4176 75.6462 16.6165C76.0819 20.8007 75.4502 25.0417 76.0078 29.2172C76.0688 30.5305 77.4804 30.8272 78.5044 31.041C78.5088 31.2853 78.5088 31.774 78.5131 32.0183C75.0539 31.7434 68.1265 32.0052 68.1265 32.0052L68.1134 31.0159C68.1134 31.0159 70.6121 30.3123 70.771 29.5924C71.3417 26.4859 71.2066 23.2747 71.1762 20.1202C71.0629 18.2353 71.1108 15.8792 69.3114 14.7317C67.3814 13.6191 65.0156 14.134 63.0421 14.8539C63.0551 18.9377 63.0421 23.0259 63.0421 27.1099C63.0987 28.2007 63.0203 29.4442 63.7304 30.3516C64.3273 30.7661 65.0767 30.8402 65.7607 31.0322C65.7651 31.2766 65.7694 31.7696 65.7694 32.0183C62.3579 31.7958 58.9379 31.6518 55.5308 32.0139C55.5308 31.7696 55.5395 31.2853 55.5395 31.0453C56.5764 30.8053 57.9445 30.4781 58.1404 29.2215C58.6153 26.2111 58.2493 23.135 58.3626 20.0983C58.3191 18.3662 58.5108 16.6121 58.2058 14.9018C57.9662 13.7325 56.5415 13.7979 55.6439 13.5667C55.6439 13.2962 55.6396 12.7552 55.6396 12.4846Z" fill="white"/>
<path d="M116.521 12.3931C118.961 12.3582 121.4 12.0266 123.718 11.2456L123.784 13.0432C126.128 11.154 129.661 10.674 132.158 12.5458L129.554 16.5246C128.339 14.6485 125.873 14.1947 123.925 15.1502C123.925 15.1502 123.912 23.4096 123.939 27.5371C124.039 28.4577 123.895 29.6532 124.758 30.2552C125.59 30.7438 126.601 30.7177 127.528 30.866C127.528 31.1496 127.524 31.7255 127.524 32.0091C123.782 31.7561 120.03 31.7037 116.288 32.0004L116.287 30.866C117.494 30.66 118.749 30.2421 118.932 29.5222C119.451 27.7464 119.198 25.8658 119.25 24.0376C119.198 21.1274 119.355 18.2128 119.181 15.3071C119.168 13.8935 117.569 13.767 116.532 13.5619C116.534 13.1612 116.525 12.7497 116.523 12.3926L116.521 12.3931Z" fill="white"/>
</g>
<defs>
<clipPath id="clip0_94_3080">
<rect width="154.263" height="32.3718" fill="white" transform="translate(0.713867)"/>
</clipPath>
</defs>
</svg>
