<svg width="75" height="33" viewBox="0 0 75 33" fill="none" xmlns="http://www.w3.org/2000/svg">
<g clip-path="url(#clip0_94_3112)">
<path fill-rule="evenodd" clip-rule="evenodd" d="M43.1015 8.75531C43.2079 8.64859 43.279 8.57782 43.3146 8.50668L44.0961 5.52308C44.238 4.99024 44.4866 4.42183 44.4866 3.81784C44.4866 3.64075 44.3447 3.49845 44.2028 3.35615C42.4983 2.46835 41.5038 2.36201 39.9756 2.32605C36.0331 2.2549 33.227 5.02543 33.1918 8.00902C33.1206 11.5966 36.0687 13.7631 37.5608 16.3562C38.1293 17.3148 38.4842 18.2741 38.4487 19.4105C38.4487 20.5826 37.5608 23.6373 34.4701 23.5662C32.9076 23.5306 31.4158 22.4649 31.4514 19.8011V17.8832C31.4158 17.7057 31.4158 17.5282 31.2743 17.3863C31.2023 17.2796 30.9897 17.2084 30.8478 17.2796C30.5639 17.4219 30.4924 17.7413 30.3861 18.0259C30.2082 18.8425 30.0303 19.6951 29.8536 20.5118C29.818 20.5833 29.9244 20.5833 29.8536 20.5833C29.7465 21.1873 29.6398 21.8265 29.6042 22.4301C29.5686 22.7855 29.818 23.1048 30.1367 23.3183C31.4795 24.0079 32.961 24.3844 34.4701 24.4195C38.4838 24.4907 41.752 20.9739 41.8228 17.529C41.8228 17.1025 41.7872 16.7119 41.7516 16.357C41.3967 14.2612 40.0464 12.8757 38.6258 11.1353C37.7731 10.034 36.0327 8.54225 36.1042 6.58876C36.1042 4.99025 37.4182 3.2502 39.7982 3.2502C42.9596 3.32097 42.4627 6.73067 42.4979 8.25843C42.4979 8.43591 42.4979 8.57821 42.6398 8.64897C42.7821 8.79088 42.9596 8.82646 43.1015 8.75531Z" fill="white"/>
<path fill-rule="evenodd" clip-rule="evenodd" d="M58.1969 17.9904C57.8064 17.9904 57.6645 18.5944 57.2739 19.3043C56.4924 20.5119 55.2493 22.1104 54.6449 22.1104C54.4318 22.1104 54.4318 21.8618 54.4318 21.6487C54.4318 20.974 55.107 18.7722 55.8881 16.3923C56.9893 13.0177 58.304 9.32382 58.304 9.14595C58.304 8.89732 58.2684 8.75541 57.9135 8.75541C57.6289 8.75541 57.2383 8.71983 56.6695 8.71983C55.6039 8.71983 55.5331 8.86174 55.462 9.0748C54.9287 10.0338 54.1832 13.1952 52.6555 15.9302C52.5843 16.0721 52.478 16.214 52.4068 16.3567C50.3822 19.7312 47.7895 22.3591 46.6527 22.3591C46.2266 22.3591 45.9776 22.0393 45.9776 21.5776C45.9776 20.8321 46.7946 18.6655 47.6828 16.3567C48.7129 13.6925 49.8149 10.8508 49.8149 9.74994C49.8149 9.28825 49.5655 8.32929 48.4291 8.32929C45.3396 8.32929 42.7461 13.3375 42.7461 13.9059C42.7461 14.0834 42.8525 14.2257 43.0655 14.2257C43.4561 14.2257 43.7051 13.4087 44.7 12.0588C45.268 11.2062 46.0139 10.5314 46.3689 10.5314C46.6527 10.5314 46.6883 10.7445 46.6883 10.9223C46.6883 11.4196 45.6937 13.7992 44.7352 16.3571C43.8826 18.6303 43.1007 21.0451 43.1007 22.4662C43.1007 23.3899 43.4557 24.2781 44.6285 24.2781C47.4342 24.2781 50.4526 20.7617 52.5839 17.6002C52.6903 17.4939 52.7622 17.4939 52.7258 17.6714C52.2645 18.9501 51.6602 21.4361 51.6602 22.9638C51.6602 23.603 51.7673 24.3493 52.7966 24.3493C55.2481 24.3493 58.4803 19.483 58.4803 18.3465C58.4815 18.1683 58.4107 17.9904 58.1969 17.9904ZM74.2521 18.2394C74.2186 18.1742 74.1675 18.1198 74.1046 18.0821C74.0417 18.0445 73.9696 18.0252 73.8963 18.0263C73.79 18.0263 73.6833 18.1327 73.6477 18.2394C72.9726 19.4114 71.5164 21.9693 70.5218 22.0397C70.3443 22.0397 70.238 21.8622 70.238 21.6843C70.238 21.0807 71.197 18.7722 72.1207 16.3571C72.9726 14.1549 73.7896 11.8457 73.7896 10.6381C73.7896 8.96847 72.8658 8.36486 71.765 8.36486C68.6754 8.36486 65.4076 13.2668 64.3064 14.9005C64.2345 15.0424 64.2001 15.0068 64.2345 14.8649C64.7677 12.9114 65.4073 11.171 65.4073 9.85666C65.4073 9.07519 65.0515 8.25814 64.0214 8.25814C61.8553 8.25814 58.7294 12.5205 58.7294 13.5861C58.7294 13.7992 58.8005 13.9411 58.9424 13.9411C59.333 13.9411 59.6531 13.2308 60.2212 12.4493C60.9319 11.5615 61.8201 10.4247 62.3881 10.4247C62.4592 10.4247 62.5656 10.4958 62.5656 10.8152C62.5656 11.4904 61.8556 13.7988 61.003 16.3567C60.186 18.843 59.2622 21.5776 58.6942 23.3895C58.5523 23.8157 58.8361 23.9224 60.0437 23.9224C60.8963 23.9224 61.2868 24.0287 61.4643 23.354C62.0683 21.1163 63.2051 18.5944 64.4839 16.3567C64.5902 16.1077 64.7325 15.895 64.8744 15.6464C66.1883 13.3375 68.9593 10.0341 70.5218 10.0341C70.8776 10.0341 71.0906 10.3184 71.0906 10.8512C71.0906 11.6327 70.0961 13.9059 69.1012 16.3571C68.1066 18.8078 67.0765 21.4361 67.1473 22.8923C67.1829 23.7089 67.4667 24.3133 68.5324 24.3133C70.9483 24.3133 73.0433 20.974 74.0379 19.1984C74.2169 18.9142 74.4651 18.5948 74.2521 18.2394ZM4.81166 15.2558C3.92386 16.1792 2.43167 16.1792 1.50829 15.2558C0.691246 14.332 0.691246 12.8403 1.50829 11.9524L6.94302 6.51771L8.36367 7.97432L2.92894 13.4442L3.31987 13.8348L8.78979 8.36486L10.2464 9.82147L4.81166 15.2558ZM9.03881 11.8813C9.96219 10.9579 11.4184 10.9579 12.3418 11.8813C13.2656 12.8047 13.2656 14.2969 12.3418 15.1847L6.94302 20.619L5.4868 19.1628L10.9211 13.6929L10.5306 13.3019L5.06068 18.7367L3.64004 17.3156L9.03881 11.8813ZM16.0713 23.1405C16.995 24.0287 16.995 25.5205 16.0713 26.4083C15.1479 27.2965 13.6561 27.2965 12.7683 26.4083L7.33395 21.0092L8.79017 19.5533L14.2601 25.0232L14.6506 24.5967L9.18072 19.1624L10.6369 17.7058L16.0713 23.1405ZM12.6971 18.9142C11.7734 17.9904 11.7734 16.499 12.6971 15.6108C13.6205 14.6874 15.0767 14.6874 16.0001 15.6108L21.4349 21.0096L19.9786 22.4662L14.5087 16.9962L14.1182 17.4227L19.5525 22.8571L18.1315 24.3137L12.6971 18.9142ZM19.7296 15.2558C18.8062 16.1792 17.3148 16.1792 16.4262 15.2558C15.5025 14.332 15.5025 12.8403 16.4262 11.9524L21.825 6.51771L23.2816 7.97432L17.8117 13.4442L18.2382 13.8348L23.7081 8.36486L25.1288 9.82147L19.7296 15.2558ZM23.9571 11.8813C24.8446 10.9579 26.3364 10.9579 27.2601 11.8813C28.1839 12.8047 28.1839 14.2613 27.2601 15.1847L21.8254 20.619L20.3692 19.1628L25.8391 13.6929L25.4489 13.3019L19.9786 18.7367L18.522 17.3156L23.9571 11.8813ZM16.0713 8.22257C16.995 9.14595 16.995 10.6022 16.0713 11.5259C15.1479 12.4493 13.6561 12.4493 12.7683 11.5259L7.33356 6.12678L8.78979 4.67056L14.2597 10.1049L14.6502 9.71398L9.18072 4.24483L10.6369 2.78822L16.0713 8.22257ZM12.6971 3.9962C11.7734 3.108 11.7734 1.61621 12.6971 0.692827C13.6205 -0.230942 15.0767 -0.230942 16.0001 0.692827L21.4349 6.12717L19.9786 7.54782L14.5087 2.11347L14.1182 2.50402L19.5525 7.97393L18.1315 9.43016L12.6971 3.9962ZM35.1452 30.6355V28.5397C35.1452 28.078 35.0037 27.7938 34.5768 27.7938C34.0796 27.7938 33.6179 28.291 33.6179 29.0725V30.6355H33.0139V28.5397C33.0139 28.1132 32.9427 27.7938 32.481 27.7938C31.9482 27.7938 31.5221 28.3266 31.5221 29.0725V30.6355H30.9181V27.3677H31.5221C31.5221 27.5455 31.4865 27.8294 31.4509 28.0424C31.664 27.5807 32.0909 27.2965 32.6585 27.2965C33.3688 27.2965 33.5471 27.7582 33.5819 28.0424C33.7242 27.723 34.0792 27.2965 34.7187 27.2965C35.3579 27.2965 35.7492 27.6163 35.7492 28.3622V30.6355H35.1452ZM40.3313 30.671C39.5499 30.671 38.8743 30.3157 38.8743 29.1081C38.8743 28.0424 39.4431 27.2965 40.544 27.2965C40.7926 27.2965 41.0765 27.3321 41.2895 27.4029L41.2184 27.9357C41.0053 27.8645 40.7571 27.7938 40.5084 27.7938C39.8689 27.7938 39.5139 28.291 39.5139 29.0369C39.5139 29.6761 39.7625 30.1734 40.4728 30.1734C40.7567 30.1734 41.0409 30.1022 41.2539 29.9959L41.3251 30.5287C41.0019 30.6212 40.6675 30.6691 40.3313 30.671ZM43.9185 27.8649C43.173 27.7586 42.8528 28.2559 42.8528 29.3215V30.6355H42.2489V27.3677H42.8177C42.8177 27.5455 42.8177 27.8649 42.7465 28.1491H42.7821C42.924 27.6878 43.2434 27.2258 43.9185 27.2969V27.8649ZM46.1206 27.2965C45.0905 27.2965 44.451 28.0424 44.451 29.0014V29.0369C44.451 30.1734 45.055 30.7062 45.978 30.7062C46.9369 30.7062 47.6124 29.9603 47.6476 29.0014V28.9302C47.648 27.7586 46.9729 27.2965 46.1206 27.2965ZM46.0499 30.2093C45.4459 30.2093 45.0909 29.748 45.0909 29.0018V28.9662C45.0909 28.1491 45.5522 27.7942 46.0499 27.7942C46.6887 27.7942 47.0088 28.2207 47.0088 28.9662V29.0018C47.0088 29.8188 46.5468 30.2093 46.0499 30.2093ZM49.2106 30.7066C48.9619 30.7066 48.7137 30.671 48.5006 30.6355L48.5362 30.1026C48.7493 30.1738 48.9975 30.209 49.2817 30.209C49.7086 30.209 50.028 30.0315 50.028 29.7117C50.028 29.0014 48.4654 29.4279 48.4654 28.291C48.4654 27.7226 48.9267 27.2965 49.8157 27.2965C49.9924 27.2965 50.2411 27.3321 50.4537 27.3677V27.8649C50.2242 27.7923 49.9846 27.7564 49.7438 27.7586C49.3169 27.7586 49.0694 27.9361 49.0694 28.2203C49.0694 28.9306 50.6676 28.5397 50.6676 29.6409C50.6672 30.2445 50.1339 30.7066 49.2106 30.7066ZM52.8697 30.9549C52.4784 31.985 52.159 32.3047 51.4127 32.3047C51.2715 32.3047 51.0933 32.3047 50.9514 32.2692L51.0225 31.7363C51.1644 31.7719 51.3063 31.8075 51.4486 31.8075C51.84 31.8075 52.0182 31.63 52.2657 30.9908L52.4076 30.6355L51.1289 27.3677H51.8396L52.4784 29.0725C52.5847 29.3567 52.6558 29.6054 52.727 29.854C52.7981 29.6409 52.9408 29.2148 53.0827 28.8598L53.6152 27.3681H54.2903L52.8697 30.9549ZM55.5331 30.7066C55.2845 30.7066 55.0362 30.671 54.8224 30.6355L54.858 30.1026C55.0362 30.1738 55.32 30.209 55.5687 30.209C56.03 30.209 56.3501 30.0315 56.3501 29.7117C56.3501 29.0014 54.7512 29.4279 54.7512 28.291C54.7512 27.7226 55.2489 27.2965 56.1371 27.2965C56.3146 27.2965 56.5632 27.3321 56.7759 27.3677L56.7403 27.8649C56.523 27.7923 56.2951 27.7563 56.0659 27.7586C55.639 27.7586 55.3908 27.9361 55.3908 28.2203C55.3908 28.9306 56.9889 28.5397 56.9889 29.6409C56.9893 30.2445 56.4213 30.7066 55.5331 30.7066ZM59.014 30.7066C58.3396 30.7066 58.1258 30.4228 58.1258 29.7121V27.8297H57.4158V27.3681H58.1258V26.3024L58.7298 26.1249V27.3681H59.6887V27.8297H58.7298V29.499C58.7298 30.0319 58.8361 30.1738 59.2266 30.1738C59.3693 30.1738 59.5468 30.1382 59.6887 30.1382V30.6355C59.4764 30.671 59.227 30.7066 59.014 30.7066ZM63.2055 28.6816C63.2055 28.4685 63.1699 28.291 63.1344 28.1132C62.9569 27.6519 62.5656 27.2965 61.8556 27.2965C61.2161 27.2965 60.79 27.6163 60.5409 28.1132C60.4243 28.3948 60.364 28.6966 60.3635 29.0014C60.3635 30.1734 60.9323 30.7062 61.9624 30.7062C62.3885 30.7062 62.7786 30.6351 63.0988 30.4932L63.0269 29.9959C62.7782 30.1378 62.3881 30.209 62.0683 30.209C61.322 30.209 60.9671 29.8536 61.0026 28.9658H63.2048C63.2055 28.8595 63.2055 28.7527 63.2055 28.6816ZM61.0034 28.5397C61.039 28.3978 61.0746 28.2559 61.1453 28.1132C61.2872 27.8645 61.5359 27.7226 61.856 27.7226C62.1754 27.7226 62.3885 27.8645 62.5304 28.1132C62.566 28.2555 62.6015 28.3974 62.6015 28.5397H61.0034ZM68.3553 30.6355V28.5397C68.3553 28.078 68.2489 27.7938 67.7872 27.7938C67.3252 27.7938 66.8635 28.291 66.8635 29.0725V30.6355H66.2239V28.5397C66.2239 28.1132 66.1528 27.7938 65.6915 27.7938C65.1582 27.7938 64.7325 28.3266 64.7325 29.0725V30.6355H64.1285V27.3677H64.7325C64.7325 27.5455 64.6969 27.8294 64.6614 28.0424H64.6969C64.8744 27.5807 65.3005 27.2965 65.8689 27.2965C66.5797 27.2965 66.7571 27.7582 66.7927 28.0424C66.9346 27.723 67.2896 27.2965 67.9647 27.2965C68.6043 27.2965 68.9593 27.6163 68.9593 28.3622V30.6355H68.3553ZM70.6285 30.7066C70.3799 30.7066 70.1317 30.671 69.9186 30.6355L69.9542 30.1026C70.1672 30.1738 70.4155 30.209 70.6997 30.209C71.1266 30.209 71.446 30.0315 71.446 29.7117C71.446 29.0014 69.8826 29.4279 69.8826 28.291C69.8826 27.7226 70.3447 27.2965 71.2337 27.2965C71.4104 27.2965 71.659 27.3321 71.8717 27.3677V27.8649C71.6421 27.7923 71.4025 27.7564 71.1618 27.7586C70.7349 27.7586 70.4866 27.9361 70.4866 28.2203C70.4866 28.9306 72.0855 28.5397 72.0855 29.6409C72.0855 30.2445 71.5523 30.7066 70.6285 30.7066ZM37.4537 26.7993C37.7023 26.7993 37.8798 26.6218 37.8798 26.4083C37.8798 26.1953 37.7023 26.0534 37.4537 26.0534C37.241 26.0534 37.0631 26.1953 37.0631 26.4083C37.0631 26.6573 37.2414 26.7993 37.4537 26.7993ZM36.6726 27.3321V27.7942H37.1699V30.6355H37.7735V27.3677L36.6726 27.3321Z" fill="white"/>
</g>
<defs>
<clipPath id="clip0_94_3112">
<rect width="73.4287" height="32.3718" fill="white" transform="translate(0.895508)"/>
</clipPath>
</defs>
</svg>
