<svg width="95" height="33" viewBox="0 0 95 33" fill="none" xmlns="http://www.w3.org/2000/svg">
<g clip-path="url(#clip0_94_3074)">
<path d="M38.3275 24.0966C36.3966 24.0966 35.1477 23.3713 34.5844 22.9286L34.5439 22.8881L34.5844 22.8081L35.3898 21.5205L35.4303 21.4404L35.5103 21.4809C35.9935 21.8436 36.959 22.4068 38.336 22.4068C39.5039 22.4068 40.1473 21.8831 40.1473 21.0383C40.1473 20.0719 39.3824 19.7902 37.9338 19.3071L37.7737 19.2666C36.3646 18.7834 35.0366 18.059 35.0366 16.1272C35.0366 14.396 36.3552 13.2695 38.4575 13.2695C39.665 13.2695 40.6314 13.5107 41.4358 13.9948L41.5158 14.0353L41.4753 14.1154L40.8311 15.434L40.7906 15.5141L40.7105 15.4736C40.0267 15.1109 39.2619 14.9499 38.4566 14.9499C37.7313 14.9499 36.8553 15.1514 36.8553 16.1178C36.8553 17.0437 37.5392 17.2858 38.9087 17.719C40.3969 18.2022 42.0169 18.9265 42.0169 21.0599C42.0574 22.9512 40.6483 24.0787 38.3435 24.0787L38.3275 24.0966ZM43.4797 26.7122C43.117 26.7122 42.7959 26.6717 42.3927 26.5916H42.3127V26.5116L42.5142 25.2636V25.1835H42.7158C42.9174 25.224 43.0784 25.224 43.279 25.224C44.0043 25.224 44.447 24.9415 44.7672 24.3386L42.0301 16.2384H44.0834V16.2789L45.6441 21.9302L47.0532 16.2949V16.2148H48.9841L48.904 16.3749L46.489 24.2642C46.0058 25.9549 45.0404 26.7197 43.4703 26.7197L43.4797 26.7122ZM59.9816 23.9741H58.0507V18.822C58.0507 18.1777 57.9302 17.735 57.2859 17.735C56.8432 17.735 56.3195 18.0176 55.7977 18.4999V23.9741H53.8669V18.822C53.8669 18.1777 53.7463 17.735 53.102 17.735C52.6188 17.735 52.0961 18.0176 51.6138 18.5404V23.9751H49.6359V16.2468H50.8434V16.2874L51.1655 17.3234C51.9708 16.4786 52.7667 16.0359 53.6615 16.0359C54.7485 16.0359 55.1911 16.6387 55.4728 17.2038C55.9965 16.6406 56.8413 16.0359 57.8878 16.0359C59.619 16.0359 59.9807 17.5241 59.9807 18.773V23.8441L59.9816 23.9741ZM63.3225 24.0966C61.9134 24.0966 60.9075 23.1707 60.9075 21.8831C60.9075 21.0383 61.1901 20.4345 61.8334 20.0314C62.4776 19.5887 63.5241 19.2666 65.1743 19.0254V18.8239C65.1743 17.979 64.8521 17.6559 64.0468 17.6559C63.3216 17.6559 62.6377 17.9385 61.9539 18.2587L61.8739 18.2992L61.8334 18.2192L61.1901 16.9712L61.2701 16.9307C62.2365 16.3279 63.1614 16.0453 64.2088 16.0453C66.1001 16.0453 67.107 17.0117 67.107 18.903V23.9741H65.8995L65.859 23.9336L65.5369 23.1688C65.0942 23.6115 64.3294 24.0947 63.3234 24.0947L63.3225 24.0966ZM65.1743 20.313C63.9262 20.5541 63.2829 20.7962 63.0409 21.1183C62.8808 21.3199 62.8393 21.4404 62.8393 21.7626C62.8393 22.3258 63.1614 22.6479 63.7247 22.6479C64.2079 22.6479 64.7306 22.4464 65.1733 22.0847L65.1743 20.313ZM75.0764 23.9741H73.1455V18.822C73.1455 18.0572 72.8629 17.735 72.2601 17.735C71.7364 17.735 71.1327 18.0572 70.69 18.5404V23.9751H68.7591V16.2468H69.9666V16.2874L70.2887 17.3234C71.094 16.4786 71.9389 16.0359 72.8648 16.0359C74.3134 16.0359 75.0782 16.9617 75.0782 18.773V23.8441L75.0764 23.9741ZM79.1416 24.0966C77.6119 24.0966 76.8876 23.3318 76.8876 21.8021V17.654H75.7602V16.245H76.9281L77.2907 14.1521V14.072H78.8609V16.2459H80.4621V17.655H78.8609V21.7202C78.8609 22.3644 78.9814 22.6056 79.6257 22.6056C79.9014 22.5994 80.1739 22.5452 80.431 22.4454L80.5111 22.4049V22.485L80.7522 23.733V23.8131L80.6721 23.8536C80.431 23.8941 79.8668 24.0947 79.1425 24.0947L79.1416 24.0966ZM84.4953 24.0966C82.3214 24.0966 80.9933 22.5669 80.9933 20.1519C80.9933 17.6964 82.312 16.0867 84.3841 16.0867C86.4563 16.0867 87.6431 17.5749 87.6431 20.1519V20.6756H83.0146C83.1352 21.9236 83.6174 22.4869 84.6158 22.4869C85.4607 22.4869 85.9844 22.1648 86.5882 21.8031L86.6682 21.7626L86.7087 21.8426L87.434 22.9701L87.4745 23.0501L87.434 23.0906C86.6692 23.6539 85.9458 24.0966 84.4953 24.0966ZM83.0071 19.4276H85.6237C85.5832 18.1401 85.181 17.5363 84.3361 17.5363C83.5713 17.5363 83.1286 18.1806 83.0174 19.4276H83.0071ZM91.9004 24.0966C89.3244 24.0966 88.439 22.0433 88.439 20.1519C88.439 18.2606 89.3649 16.0867 91.9004 16.0867C92.9365 16.0867 93.7117 16.3279 94.3964 16.9316L94.4369 16.9721L94.3964 17.0126L93.5911 18.1806L93.5506 18.2606L93.4706 18.2201C93.0279 17.898 92.6257 17.6964 91.9409 17.6964C90.935 17.6964 90.4527 18.5017 90.4527 20.1519C90.4527 21.7221 90.9764 22.5255 91.9824 22.5255C92.6662 22.5255 93.1098 22.2844 93.5525 21.8812L93.6326 21.8407L93.6731 21.9208L94.5179 23.0077L94.5584 23.0483L94.5179 23.0888C93.7927 23.7726 92.9883 24.0947 91.9014 24.0947L91.9004 24.0966Z" fill="white"/>
<path d="M14.3922 32.268C6.71858 32.268 0.499268 26.0477 0.499268 18.3751C0.499268 10.7024 6.71952 4.48218 14.3922 4.48218C22.0648 4.48218 28.2851 10.7024 28.2851 18.3751C28.2851 26.0477 22.0064 32.268 14.3922 32.268ZM14.3922 8.84031C11.834 8.84031 9.451 9.8293 7.70662 11.6311C5.90478 13.433 4.9158 15.8169 4.9158 18.3751C4.9158 20.9333 5.90478 23.3162 7.70662 25.119C9.50846 26.9218 11.8924 27.9098 14.3922 27.9098C16.9503 27.9098 19.3333 26.9209 21.1361 25.119C22.0253 24.2362 22.73 23.1852 23.2091 22.0274C23.6882 20.8696 23.9322 19.6281 23.9269 18.3751C23.9269 15.8169 22.9379 13.4339 21.1361 11.6311C19.2759 9.8293 16.8919 8.84031 14.3922 8.84031ZM29.5067 2.32996H30.6115V3.4348H29.5067V2.32996ZM29.5067 0.177734H30.6115V1.28257H29.5067V0.177734ZM26.4267 3.37546H27.4157V4.41154H26.4267V3.37546Z" fill="white"/>
<path d="M24.4494 5.4678H25.4855V6.45678H24.4494V5.4678ZM27.4635 4.47881H28.6257V5.51489H27.4635V4.47881ZM23.4529 4.47975H24.4419V5.46874H23.4529V4.47975ZM26.4161 5.46874H27.4051V6.45772H26.4161V5.46874ZM28.4035 1.22363H29.4395V2.25971H28.4035V1.22363ZM26.4255 2.32941H28.4016V3.43425H26.4255V2.32941Z" fill="white"/>
<path d="M25.4875 3.375H26.4764V5.46788H25.4875V3.375ZM25.4875 6.45498V7.49107H24.4514V6.45498H22.756V7.21038H21.8254V8.14097H22.8144V9.12996H21.8254V8.14097H20.7893V9.71016H19.7532V10.6991H19.0562V11.7352H18.3008C17.487 12.9559 15.3941 16.8497 14.7546 18.4208C12.4875 15.2231 10.6856 13.9939 9.28975 13.538C8.53435 13.3054 7.59434 14.1192 8.88285 15.3982C11.7311 18.5376 12.6617 21.1438 13.5339 23.2461C13.9992 24.3509 16.0337 24.5252 16.499 23.4203C17.3712 21.0373 18.6503 18.3624 20.1611 16.212V15.1072H20.9749V14.0711H21.847V12.9088H22.836V11.7465H21.8V10.7105H22.836V11.7465H23.825V10.7105H24.6972V9.47846H25.6278V8.66466H26.4416V6.51338H25.511L25.4875 6.45498Z" fill="white"/>
</g>
<defs>
<clipPath id="clip0_94_3074">
<rect width="94.372" height="32.3718" fill="white" transform="translate(0.341797)"/>
</clipPath>
</defs>
</svg>
