<svg width="56" height="33" viewBox="0 0 56 33" fill="none" xmlns="http://www.w3.org/2000/svg">
<g clip-path="url(#clip0_27_278)">
<path d="M1.11214 20.6282H1.10216C0.509816 21.2415 0.176594 22.135 0.176594 23.2132L0.176151 23.4364H1.55962C1.55962 23.3994 1.56139 23.2147 1.56139 23.2147C1.56894 22.4655 1.78502 21.8438 2.13133 21.4379C2.47321 21.0367 2.96106 20.8332 3.58224 20.8332C4.16771 20.8332 4.62606 21.017 4.94442 21.3801C5.26632 21.7467 5.42916 22.3119 5.42916 22.9884C5.42916 23.6576 5.24259 24.1809 4.8732 24.5445C4.50382 24.9069 3.97137 25.1092 3.29051 25.1092H2.7188V26.2534H3.53033C4.24869 26.2534 4.81108 26.4707 5.20132 26.8634C5.59178 27.2564 5.78967 27.8226 5.78967 28.5458C5.78967 29.362 5.58446 30.0715 5.19688 30.5279C4.81375 30.979 4.24869 31.2177 3.56472 31.2177C2.83926 31.2177 2.28153 30.9606 1.90704 30.4521C1.59667 30.0318 1.42118 29.405 1.42118 28.7522C1.42118 28.7522 1.41653 28.3698 1.41653 28.331H0C0.00133111 28.3705 0.00421519 28.7588 0.00421519 28.7588C0.0481419 29.9095 0.380698 30.807 0.991457 31.4263C1.60377 32.0474 2.46966 32.361 3.56494 32.361C4.68307 32.361 5.60864 32.0066 6.24314 31.3361C6.87608 30.666 7.21086 29.69 7.21086 28.5126C7.21086 27.7472 6.99721 27.0616 6.593 26.5283C6.26887 26.1014 5.82317 25.7818 5.30404 25.6049L5.24303 25.5845L5.3016 25.557C5.77636 25.338 6.14064 25.0055 6.40531 24.5693C6.69394 24.0938 6.82018 23.5162 6.82018 22.8528C6.82018 21.9123 6.52134 21.1163 5.9372 20.5517C5.35373 19.9881 4.55285 19.6895 3.58202 19.6895C2.53887 19.6895 1.70471 20.014 1.11214 20.6282ZM17.0531 28.3313C17.0387 28.5097 17.0513 28.4288 17.0256 28.5992C16.6795 30.8863 15.3071 32.3694 13.2226 32.3694C10.6624 32.3694 9.15361 30.5886 9.15361 26.0207C9.15361 21.8167 10.6622 19.6932 13.3371 19.6932C15.4715 19.6932 16.77 20.9097 17.0431 23.099C17.0626 23.2533 17.0622 23.2713 17.0708 23.4359H15.6998C15.6872 23.283 15.6847 23.2786 15.6643 23.1405C15.4287 21.5499 14.6822 20.8357 13.3371 20.8357C11.8511 20.8357 10.617 21.75 10.617 26.0444C10.617 30.6103 11.9188 31.227 13.1993 31.227C14.4714 31.227 15.3253 30.3718 15.639 28.6079C15.669 28.439 15.6616 28.517 15.6818 28.331L17.0531 28.3313ZM20.5617 26.0207C20.5617 22.161 21.749 20.8357 23.2823 20.8357C24.8122 20.8357 26.0008 22.1612 26.0008 26.0207C26.0008 29.9035 24.8122 31.227 23.2823 31.227C21.749 31.227 20.5617 29.9035 20.5617 26.0207ZM19.0975 26.0207C19.0975 30.2442 20.6056 32.3694 23.2823 32.3694C25.9545 32.3694 27.4633 30.2442 27.4633 26.0207C27.4633 21.8167 25.9547 19.6932 23.2823 19.6932C20.6056 19.6932 19.0975 21.8167 19.0975 26.0207ZM35.8868 20.995C35.7654 20.8456 34.8425 19.6799 33.0693 19.6799C31.113 19.6799 29.5212 20.9676 29.5212 23.0653V32.2076H30.9663V23.2087C30.9663 21.2743 32.4368 20.8904 33.0695 20.8904C34.3469 20.8904 35.1726 21.8639 35.1726 23.1646V32.2056L36.6067 32.2065L36.6089 23.1649C36.6089 21.8994 37.3958 20.8906 38.711 20.8906C39.3448 20.8906 40.8152 21.2327 40.8152 23.1675V32.2067H42.2604V23.0239C42.2604 20.9505 40.6076 19.6799 38.711 19.6799C36.9772 19.6799 36.0144 20.8448 35.8868 20.995ZM51.047 4.25233C52.1008 6.54428 52.3737 8.20449 52.5614 9.76098C52.8618 12.2413 52.0922 14.5408 50.3396 14.5408C49.1418 14.5408 48.1386 13.6347 47.2236 12.3668C46.5237 11.3964 45.7452 9.80664 45.2414 8.23154C44.691 6.51058 44.5108 4.96208 44.5108 3.84049C44.5108 1.64209 45.2838 0.000488281 46.9335 0.000488281C48.5317 0.000488281 50.0296 2.03974 51.047 4.25233ZM47.1176 1.96504C46.8483 1.84247 46.6584 1.88768 46.5417 2.16897C46.4323 2.43318 46.3309 2.95364 46.3309 4.01826C46.3309 4.90489 46.586 6.37338 47.0757 7.831C47.7494 9.84587 48.8165 11.8732 49.8985 12.5457C50.2506 12.7651 50.4114 12.8041 50.6284 12.4153C51.0843 11.5956 50.8614 9.81794 50.823 9.44179C50.7755 8.97631 50.4747 7.23496 49.6429 5.32671C48.9332 3.70018 47.9265 2.33344 47.1176 1.96504ZM38.9694 4.10604C38.1131 4.10604 36.0716 4.30597 33.9511 5.22984C33.5454 3.99078 31.7978 1.06356 28.9566 1.06312C27.9724 1.06312 27.117 1.43218 26.3997 2.02445C24.9 3.26352 24.0306 5.57164 24.0306 8.16216C24.0306 9.19508 24.2546 10.6088 24.7791 11.9334C25.6348 14.0917 27.2494 16.0556 29.7029 16.0556C32.7527 16.0556 33.9986 12.6232 33.9986 12.6232C33.9986 12.6232 35.5591 12.2803 37.3024 11.4946C39.607 10.455 42.4197 8.50395 42.4197 6.3439C42.4197 4.44118 40.0033 4.10604 38.9694 4.10604ZM40.5898 6.61521C40.5037 7.01907 40.1069 7.52445 39.2339 8.22932C36.3897 10.5246 32.2735 11.266 30.4803 10.975C29.6938 10.8473 29.529 10.4561 30.2202 9.60493C30.7826 8.91114 31.4094 8.47802 31.9489 8.11007L32.0152 8.0684C31.9514 7.53553 31.785 6.86834 31.5822 6.35188C31.5778 6.35564 31.4662 6.42192 31.4458 6.43389C30.2262 7.13566 27.7663 9.04724 28.0266 10.8866C28.3001 12.823 30.9927 12.9857 31.8948 12.8954C31.8948 12.8954 30.918 14.2651 29.7406 14.2651C27.2248 14.2651 25.7439 10.7961 25.7439 8.16194C25.7439 5.90989 26.7871 2.90665 29.0864 2.90665C30.5051 2.90665 31.7308 4.36094 32.3383 6.02427C32.6138 6.78234 32.918 7.64946 32.8942 9.4276C32.8916 9.65983 32.8755 9.89171 32.8459 10.1221C33.4264 10.0434 34.0893 9.87469 34.6233 9.7131C34.6233 9.7131 34.6273 9.59385 34.63 9.52912C34.6602 8.55006 34.6202 7.5936 34.4507 6.84041C34.9246 6.66087 37.0823 5.89659 38.7045 5.90147C39.7918 5.90413 40.3005 6.1085 40.5219 6.33082C40.5898 6.41505 40.6118 6.51369 40.5898 6.61521ZM54.0642 13.0914H53.0042V13.2858H53.416V14.4267H53.6529V13.2858H54.0642V13.0914ZM54.661 13.0914H54.2972V14.4267H54.5346V13.3408H54.5403L54.9587 14.4269H55.1209L55.5396 13.3408H55.5458V14.4269H55.7823V13.0914H55.4198L55.043 14.0729L54.661 13.0914Z" fill="black"/>
</g>
<defs>
<clipPath id="clip0_27_278">
<rect width="55.7823" height="32.37" fill="white"/>
</clipPath>
</defs>
</svg>
