<svg width="129" height="33" viewBox="0 0 129 33" fill="none" xmlns="http://www.w3.org/2000/svg">
<g clip-path="url(#clip0_27_185)">
<path d="M20.9298 8.98851H2.21209L0 11.2072V20.9921C0 26.6811 4.31075 31.4029 9.98278 32.0856L12.0814 29.9238H11.4575C6.4094 29.9238 2.26881 25.9415 2.26881 20.9921V11.2072H4.53763V20.9921C4.53763 24.6899 7.60053 27.7051 11.4008 27.7051H14.2935L16.5056 25.4864H11.4008C8.84837 25.4864 6.80644 23.4953 6.80644 20.9921V11.2072H9.07526V20.9921C9.07526 22.2437 10.0962 23.2108 11.3441 23.2108H18.7177L20.9298 20.9921H11.4575V11.2072H20.9865V32.1993H23.2553V11.2072C23.2553 9.95562 22.2344 8.98851 20.9298 8.98851ZM32.3873 32.1993V11.2072C32.3873 5.00626 27.2825 0 20.9298 0H11.0605L8.84837 2.21868H20.9298C25.9779 2.21868 30.0618 6.25782 30.0618 11.2072V32.1993H32.3873ZM20.9298 4.49425H6.63628L4.42419 6.71293H20.9298C23.4822 6.71293 25.4674 8.70406 25.4674 11.2072V32.1993H27.7362V11.2072C27.793 7.50939 24.7301 4.49425 20.9298 4.49425Z" fill="#0E91C8"/>
<path d="M97.2754 28.1032L99.3173 23.6089L101.303 28.1032H97.2754ZM99.998 21.6747L99.9412 21.5609H99.8278H98.7501H98.6367L98.58 21.6747L93.9289 31.9148L93.8155 32.1992H94.0991H95.2902H95.4036L95.4603 32.0854L96.5948 29.5254H101.87L103.004 32.0854L103.061 32.1992H103.174H104.422H104.706L104.592 31.9148L99.998 21.6747ZM60.8609 21.6178H60.6908V21.7885V22.8694V23.04H60.8609H64.094V31.9717V32.1423H64.2642H65.3986H65.6254V31.9717V23.0969H68.8585H69.0287V22.9263V21.8454V21.6178H68.8585H60.8609ZM69.8227 6.37149H73.0558C75.2679 6.37149 76.5157 7.39549 76.5157 9.15906V9.21595C76.5157 10.9226 75.0977 12.0035 72.9991 12.0035H69.8227V6.37149ZM78.4442 9.15906C78.4442 6.37149 76.3456 4.60792 73.1693 4.60792H68.0644H67.8375V4.77859V18.432V18.6027H68.0644H69.5959H69.766V18.432V13.824H72.8856C75.6649 13.7671 78.4442 12.3449 78.4442 9.15906ZM91.0362 21.6178H90.866V21.7885V31.9717V32.1423H91.0362H92.1706H92.3974V31.9717V21.8454V21.6178H92.1706H91.0362ZM72.1483 30.777V27.5912H77.48H77.7069V27.4205V26.3965V26.169H77.48H72.1483V23.0969H78.1606H78.3308V22.8694V21.8454V21.6178H78.1606H70.8437H70.6736V21.7885V31.9717V32.1423H70.8437H78.2741H78.4442V31.9717V30.9477V30.7201H78.2741H72.1483V30.777ZM81.8475 26.8516V23.0969H84.7969C86.3284 23.0969 87.1792 23.7796 87.1792 24.9174V24.9743C87.1792 26.1121 86.2149 26.8516 84.7402 26.8516H81.8475ZM86.1582 27.9894C87.8031 27.5912 88.7673 26.4534 88.7673 24.9174V24.8605C88.7673 24.0072 88.4837 23.2676 87.9165 22.6987C87.2359 22.016 86.1582 21.6178 84.9104 21.6178H80.5429H80.3727V21.7885V31.9717V32.1423H80.5429H81.6773H81.8475V31.9717V28.217H84.4566L87.3493 32.0854L87.4061 32.1423H87.5195H88.9375H89.3345L89.1077 31.801L86.1582 27.9894ZM88.4837 18.6027V18.432V17.0098V16.7822H88.3136H82.3579V4.77859V4.55103H82.1878H80.6563H80.4862V4.7217V18.3751V18.5458H80.6563H88.3703H88.4837V18.6027ZM54.7919 28.1032L56.8338 23.6089L58.819 28.1032H54.7919ZM57.5712 21.6747L57.5144 21.5609H57.401H56.3233H56.1531L56.0964 21.6747L51.4454 31.9148L51.3319 32.1992H51.6155H52.8066H52.9201L52.9768 32.0854L54.1112 29.5254H59.3862L60.5206 32.0854L60.5773 32.1992H60.6908H61.9386H62.2222L62.1088 31.9148L57.5712 21.6747ZM110.208 6.37149H113.214C116.447 6.37149 118.659 8.53328 118.659 11.5484V11.6053C118.659 14.6204 116.447 16.7822 113.214 16.7822H110.208V6.37149ZM113.214 18.6027C117.525 18.6027 120.644 15.6444 120.644 11.6053V11.5484C120.644 7.50927 117.525 4.55103 113.214 4.55103H108.506H108.279V4.7217V18.3751V18.5458H108.506H113.214V18.6027ZM117.298 26.169C115.086 25.7138 114.689 25.2018 114.689 24.4054C114.689 23.552 115.483 22.9832 116.674 22.9832C117.695 22.9832 118.602 23.3245 119.453 24.064L119.623 24.1778L119.737 24.0072L120.417 23.0969L120.531 22.9263L120.361 22.8125C119.226 21.9023 118.148 21.504 116.674 21.504C114.632 21.504 113.157 22.7556 113.157 24.4623C113.157 26.3965 114.575 27.1361 116.73 27.5912C118.829 28.0463 119.226 28.5014 119.226 29.3548V29.4116C119.226 30.3219 118.375 30.9477 117.184 30.9477C115.88 30.9477 114.915 30.5494 113.838 29.5823L113.668 29.4685L113.554 29.6392L112.817 30.4925L112.703 30.6632L112.817 30.777C114.121 31.9148 115.426 32.4268 117.071 32.4268C119.226 32.4268 120.758 31.1752 120.758 29.3548V29.2979C120.758 27.6481 119.68 26.7378 117.298 26.169ZM92.5676 18.6027V18.432V4.77859V4.55103H92.3974H90.866H90.6958V4.7217V18.3751V18.5458H90.866H92.3974H92.5676V18.6027ZM57.2308 6.37149H60.4639C62.676 6.37149 63.9238 7.39549 63.9238 9.15906V9.21595C63.9238 10.9226 62.5625 12.0035 60.4072 12.0035H57.2308V6.37149ZM57.0607 18.6027H57.2308V18.432V13.824H60.3505C63.1297 13.824 65.909 12.4017 65.909 9.15906V9.10217C65.909 6.37149 63.8104 4.60792 60.6341 4.60792H55.5292H55.3023V4.77859V18.432V18.6027H55.5292H57.0607ZM46.2838 6.94038L49.0631 13.1982H43.4478L46.2838 6.94038ZM41.0655 18.6027L41.1223 18.4889L42.7104 15.0187H49.8572L51.3886 18.4889L51.4454 18.6027H51.5588H53.2037H53.4873L53.3738 18.3182L47.1913 4.60792L47.1346 4.49414H47.0212H45.6032H45.4897L45.433 4.60792L39.1938 18.3182L39.0803 18.6027H39.3639H40.9521H41.0655ZM107.712 30.777V21.8454V21.6178H107.542H106.407H106.237V21.7885V31.9717V32.1423H106.407H111.569H111.739V31.9717V30.8908V30.7201H111.569H107.712V30.777ZM48.6093 21.6178H48.4959L48.4392 21.7316L44.9225 27.0223L41.4059 21.7316L41.3491 21.6178H41.2357H40.1013H39.9311V21.7885V31.9717V32.1423H40.1013H41.2357H41.4059V31.9717V24.4054L44.7524 29.2979L44.8091 29.4116H44.9225H44.9792H45.0927L45.1494 29.2979L48.4959 24.4054V31.9717V32.1423H48.6661H49.8005H49.9706V31.9717V21.8454V21.6178H49.8005H48.6093ZM97.559 16.7822V12.4017H104.762H104.989V12.1742V10.8088V10.5813H104.762H97.559V6.3146H105.67H105.84V6.14393V4.77859V4.55103H105.67H95.8574H95.6872V4.7217V18.3751V18.5458H95.8574H105.783H105.954V18.3751V16.9529V16.7822H105.783H97.559Z" fill="#0E91C8"/>
<path d="M125.806 29.7531C126.146 29.7531 126.43 29.5825 126.43 29.298C126.43 29.0136 126.203 28.8429 125.862 28.8429H125.125V29.7531H125.806ZM124.671 28.5584H125.806C126.146 28.5584 126.373 28.6722 126.543 28.8429C126.656 28.9567 126.77 29.1273 126.77 29.3549C126.77 29.7531 126.486 29.9807 126.146 30.0945L126.94 31.1185H126.486L125.749 30.1513H125.125V31.1185H124.728V28.5584H124.671ZM127.904 29.8669C127.904 28.6153 126.94 27.5913 125.692 27.5913C124.388 27.5913 123.423 28.6153 123.423 29.8669C123.423 31.1185 124.388 32.0856 125.636 32.0856C126.94 32.1425 127.904 31.1185 127.904 29.8669ZM123.197 29.8669C123.197 28.5016 124.274 27.3638 125.692 27.3638C127.054 27.3638 128.131 28.4447 128.131 29.81C128.131 31.1754 127.054 32.2562 125.692 32.2562C124.274 32.37 123.197 31.2322 123.197 29.8669Z" fill="#0E91C8"/>
</g>
<defs>
<clipPath id="clip0_27_185">
<rect width="128.131" height="32.37" fill="white"/>
</clipPath>
</defs>
</svg>
