<svg width="163" height="20" viewBox="0 0 163 20" fill="none" xmlns="http://www.w3.org/2000/svg">
<path d="M89.4916 11.8439C89.4916 14.1098 87.6303 15.9711 85.3644 15.9711C83.0985 15.9711 81.2372 14.1098 81.2372 11.8439V0.838135H77.6765V11.8439C77.6765 16.0925 81.1158 19.5318 85.3644 19.5318C89.613 19.5318 93.0523 16.0925 93.0523 11.8439V0.838135H89.4916V11.8439Z" fill="#BCAF8A"/>
<path d="M9.73997 4.39883C11.2775 4.39883 12.6533 5.00577 13.7053 5.97687L15.7689 3.02311C14.1504 1.64738 12.0463 0.838135 9.78043 0.838135C4.60123 0.838135 0.433594 5.00577 0.433594 10.185C0.433594 15.3642 4.60123 19.5318 9.78043 19.5318C12.0868 19.5318 14.1504 18.7226 15.7689 17.3468L13.7053 14.3931C12.6533 15.3642 11.2775 15.9711 9.73997 15.9711C6.54343 15.9711 3.95383 13.3815 3.95383 10.185C3.95383 6.98843 6.54343 4.39883 9.73997 4.39883Z" fill="#BCAF8A"/>
<path d="M50.0001 13.3815L41.3007 0.838135H37.74V19.5318H41.3007V6.94797L50.0001 19.5318H53.5608V0.838135H50.0001V13.3815Z" fill="#BCAF8A"/>
<path d="M58.2949 0.838135V4.39883H63.8383V19.5318H67.399V4.39883H72.9019V0.838135H58.2949Z" fill="#BCAF8A"/>
<path d="M156.74 0.838135V4.39883H158.682V19.5318H162.243V0.838135H156.74Z" fill="#BCAF8A"/>
<path d="M20.5029 0.838135V19.5318H32.9654V15.9711H24.0636V11.9653H31.2255V8.40462H24.0636V4.39883H32.9654V0.838135H20.5029Z" fill="#BCAF8A"/>
<path d="M112.151 7.10982C112.151 3.67051 109.318 0.838135 105.879 0.838135H97.8269V19.5318H101.388V13.3815H103.654L107.902 19.5318H112.151L107.7 13.0983C110.289 12.3295 112.151 9.9422 112.151 7.10982ZM105.879 9.82081H101.388V4.39883H105.879C107.376 4.39883 108.59 5.61271 108.59 7.10982C108.59 8.60694 107.376 9.82081 105.879 9.82081Z" fill="#BCAF8A"/>
<path d="M128.497 0.838135L123.278 8.40462L118.058 0.838135H113.81L121.497 11.9653V19.5318H125.058V11.9653L132.746 0.838135H128.497Z" fill="#BCAF8A"/>
<path d="M151.682 10.185L151.763 10.0637C152.411 9.13301 152.775 8.00006 152.775 6.78619C152.775 6.30064 152.734 5.85555 152.613 5.37C151.966 2.7804 149.659 0.878662 146.867 0.878662C143.59 0.878662 140.96 3.50872 140.96 6.78619C140.96 6.86711 140.96 6.94804 140.96 6.9885H144.52C144.52 6.90757 144.52 6.82665 144.52 6.78619C144.52 5.49139 145.572 4.43936 146.867 4.43936C148.162 4.43936 149.255 5.41046 149.214 6.78619C149.174 7.39313 148.648 8.32376 148.445 8.607C148.243 8.89024 140.838 19.5723 140.838 19.5723H153.099V16.0116H147.636L151.682 10.185Z" fill="#BCAF8A"/>
</svg>
