<svg width="59" height="33" viewBox="0 0 59 33" fill="none" xmlns="http://www.w3.org/2000/svg">
<g clip-path="url(#clip0_29_66)">
<path d="M16.5674 21.4107H19.1456V31.4819H16.5674V21.4107ZM39.6104 24.3112C39.5298 24.2306 38.7241 23.7472 37.435 23.7472C35.8236 23.7472 34.6151 24.8752 34.6151 26.406C34.6151 27.9368 35.7431 29.0648 37.435 29.0648C38.6436 29.0648 39.4493 28.5814 39.6104 28.5008V31.2402C39.2881 31.3208 38.4019 31.5625 37.2739 31.5625C34.3734 31.5625 31.8757 29.6288 31.8757 26.3254C31.8757 23.3443 34.1317 21.0884 37.2739 21.0884C38.4824 21.0884 39.3687 21.4107 39.6104 21.4107V24.3112ZM13.0223 24.3112C12.9417 24.2306 12.136 23.7472 10.8469 23.7472C9.23553 23.7472 8.02698 24.8752 8.02698 26.406C8.02698 27.9368 9.15496 29.0648 10.8469 29.0648C12.0555 29.0648 12.8612 28.5814 13.0223 28.5008V31.2402C12.7 31.3208 11.8138 31.5625 10.6858 31.5625C7.86584 31.5625 5.2876 29.6288 5.2876 26.3254C5.2876 23.3443 7.54356 21.0884 10.6858 21.0884C11.8943 21.0884 12.7806 21.4107 13.0223 21.4107V24.3112ZM52.9045 26.4866C52.9045 29.3871 50.6485 31.7236 47.5868 31.7236C44.5252 31.7236 42.2692 29.3871 42.2692 26.4866C42.2692 23.586 44.5252 21.2495 47.5868 21.2495C50.7291 21.2495 52.9045 23.586 52.9045 26.4866ZM47.5868 23.8278C46.056 23.8278 44.928 25.0363 44.928 26.4866C44.928 27.9368 46.056 29.1454 47.5868 29.1454C49.1177 29.1454 50.2457 27.9368 50.2457 26.4866C50.2457 25.0363 49.1177 23.8278 47.5868 23.8278ZM28.7335 23.7472C28.7335 23.7472 27.6055 23.4249 26.7192 23.4249C25.6718 23.4249 25.1078 23.7472 25.1078 24.2306C25.1078 24.8752 25.8329 25.0363 26.2358 25.1974L26.9609 25.4392C28.5723 26.0031 29.378 27.1311 29.378 28.3397C29.378 30.8373 27.1221 31.7236 25.1884 31.7236C23.8187 31.7236 22.5296 31.4819 22.449 31.4819V29.1454C22.6907 29.2259 23.7381 29.5482 24.8661 29.5482C26.1552 29.5482 26.7192 29.1454 26.7192 28.5814C26.7192 28.098 26.2358 27.7757 25.5912 27.6146C25.4301 27.534 25.1884 27.4534 25.0272 27.4534C23.577 26.97 22.449 26.1643 22.449 24.4723C22.449 22.6192 23.8993 21.3301 26.2358 21.3301C27.4443 21.3301 28.6529 21.6524 28.7335 21.6524V23.7472Z" fill="#0096D6"/>
<path d="M2.62864 10.6144C2.6308 10.4445 2.59893 10.2759 2.53492 10.1185C2.4709 9.96116 2.37602 9.81819 2.25588 9.69805C2.13575 9.57791 1.99277 9.48304 1.83539 9.41902C1.67801 9.355 1.50941 9.32313 1.33952 9.3253C1.16963 9.32313 1.00102 9.355 0.843642 9.41902C0.686261 9.48304 0.543287 9.57791 0.423148 9.69805C0.303008 9.81819 0.208134 9.96116 0.144116 10.1185C0.0800977 10.2759 0.0482318 10.4445 0.0503963 10.6144V13.2732C0.0482318 13.4431 0.0800977 13.6117 0.144116 13.7691C0.208134 13.9265 0.303008 14.0695 0.423148 14.1896C0.543287 14.3097 0.686261 14.4046 0.843642 14.4686C1.00102 14.5326 1.16963 14.5645 1.33952 14.5623C1.50941 14.5645 1.67801 14.5326 1.83539 14.4686C1.99277 14.4046 2.13575 14.3097 2.25588 14.1896C2.37602 14.0695 2.4709 13.9265 2.53492 13.7691C2.59893 13.6117 2.6308 13.4431 2.62864 13.2732V10.6144Z" fill="#0096D6"/>
<path d="M9.55783 7.14979C9.56 6.9799 9.52813 6.81129 9.46411 6.65391C9.40009 6.49653 9.30522 6.35356 9.18508 6.23342C9.06494 6.11328 8.92197 6.0184 8.76459 5.95439C8.60721 5.89037 8.4386 5.8585 8.26871 5.86067C7.54358 5.86067 7.06016 6.42466 7.06016 7.14979V13.2731C7.058 13.443 7.08986 13.6116 7.15388 13.769C7.2179 13.9264 7.31277 14.0693 7.43291 14.1895C7.55305 14.3096 7.69603 14.4045 7.85341 14.4685C8.01079 14.5325 8.17939 14.5644 8.34928 14.5622C8.51917 14.5644 8.68777 14.5325 8.84516 14.4685C9.00254 14.4045 9.14551 14.3096 9.26565 14.1895C9.38579 14.0693 9.48066 13.9264 9.54468 13.769C9.6087 13.6116 9.64057 13.443 9.6384 13.2731V7.14979H9.55783ZM16.5674 2.39616C16.5696 2.22627 16.5377 2.05766 16.4737 1.90028C16.4097 1.7429 16.3148 1.59993 16.1947 1.47979C16.0745 1.35965 15.9316 1.26477 15.7742 1.20076C15.6168 1.13674 15.4482 1.10487 15.2783 1.10704C15.1084 1.10487 14.9398 1.13674 14.7824 1.20076C14.625 1.26477 14.4821 1.35965 14.3619 1.47979C14.2418 1.59993 14.1469 1.7429 14.0829 1.90028C14.0189 2.05766 13.987 2.22627 13.9892 2.39616V15.7708C13.987 15.9407 14.0189 16.1093 14.0829 16.2667C14.1469 16.424 14.2418 16.567 14.3619 16.6871C14.4821 16.8073 14.625 16.9022 14.7824 16.9662C14.9398 17.0302 15.1084 17.0621 15.2783 17.0599C15.4482 17.0621 15.6168 17.0302 15.7742 16.9662C15.9316 16.9022 16.0745 16.8073 16.1947 16.6871C16.3148 16.567 16.4097 16.424 16.4737 16.2667C16.5377 16.1093 16.5696 15.9407 16.5674 15.7708V2.39616ZM23.4964 7.14979C23.4986 6.9799 23.4667 6.81129 23.4027 6.65391C23.3387 6.49653 23.2438 6.35356 23.1237 6.23342C23.0036 6.11328 22.8606 6.0184 22.7032 5.95439C22.5458 5.89037 22.3772 5.8585 22.2073 5.86067C22.0374 5.8585 21.8688 5.89037 21.7114 5.95439C21.5541 6.0184 21.4111 6.11328 21.291 6.23342C21.1708 6.35356 21.0759 6.49653 21.0119 6.65391C20.9479 6.81129 20.916 6.9799 20.9182 7.14979V13.2731C20.916 13.443 20.9479 13.6116 21.0119 13.769C21.0759 13.9264 21.1708 14.0693 21.291 14.1895C21.4111 14.3096 21.5541 14.4045 21.7114 14.4685C21.8688 14.5325 22.0374 14.5644 22.2073 14.5622C22.3772 14.5644 22.5458 14.5325 22.7032 14.4685C22.8606 14.4045 23.0036 14.3096 23.1237 14.1895C23.2438 14.0693 23.3387 13.9264 23.4027 13.769C23.4667 13.6116 23.4986 13.443 23.4964 13.2731V7.14979Z" fill="#0096D6"/>
<path d="M30.4255 10.6144C30.4277 10.4445 30.3958 10.2759 30.3318 10.1185C30.2678 9.96116 30.1729 9.81819 30.0528 9.69805C29.9326 9.57791 29.7896 9.48304 29.6323 9.41902C29.4749 9.355 29.3063 9.32313 29.1364 9.3253C28.9665 9.32313 28.7979 9.355 28.6405 9.41902C28.4831 9.48304 28.3402 9.57791 28.22 9.69805C28.0999 9.81819 28.005 9.96116 27.941 10.1185C27.877 10.2759 27.8451 10.4445 27.8473 10.6144V13.2732C27.8451 13.4431 27.877 13.6117 27.941 13.7691C28.005 13.9265 28.0999 14.0695 28.22 14.1896C28.3402 14.3097 28.4831 14.4046 28.6405 14.4686C28.7979 14.5326 28.9665 14.5645 29.1364 14.5623C29.3063 14.5645 29.4749 14.5326 29.6323 14.4686C29.7896 14.4046 29.9326 14.3097 30.0528 14.1896C30.1729 14.0695 30.2678 13.9265 30.3318 13.7691C30.3958 13.6117 30.4277 13.4431 30.4255 13.2732V10.6144Z" fill="#0096D6"/>
<path d="M37.3541 7.14968C37.3541 6.80779 37.2183 6.4799 36.9765 6.23814C36.7348 5.99638 36.4069 5.86056 36.065 5.86056C35.7231 5.86056 35.3952 5.99638 35.1535 6.23814C34.9117 6.4799 34.7759 6.80779 34.7759 7.14968V13.273C34.7759 13.6149 34.9117 13.9428 35.1535 14.1845C35.3952 14.4263 35.7231 14.5621 36.065 14.5621C36.4069 14.5621 36.7348 14.4263 36.9765 14.1845C37.2183 13.9428 37.3541 13.6149 37.3541 13.273V7.14968ZM44.2831 2.39605C44.2831 2.05416 44.1473 1.72627 43.9056 1.48451C43.6638 1.24275 43.3359 1.10693 42.994 1.10693C42.6521 1.10693 42.3242 1.24275 42.0825 1.48451C41.8407 1.72627 41.7049 2.05416 41.7049 2.39605V15.7707C41.7049 16.1126 41.8407 16.4405 42.0825 16.6822C42.3242 16.924 42.6521 17.0598 42.994 17.0598C43.3359 17.0598 43.6638 16.924 43.9056 16.6822C44.1473 16.4405 44.2831 16.1126 44.2831 15.7707V2.39605ZM51.2122 7.14968C51.2122 6.98039 51.1788 6.81276 51.114 6.65636C51.0492 6.49996 50.9543 6.35784 50.8346 6.23814C50.7149 6.11843 50.5728 6.02348 50.4164 5.95869C50.26 5.89391 50.0923 5.86056 49.923 5.86056C49.7537 5.86056 49.5861 5.89391 49.4297 5.95869C49.2733 6.02348 49.1312 6.11843 49.0115 6.23814C48.8918 6.35784 48.7968 6.49996 48.732 6.65636C48.6673 6.81276 48.6339 6.98039 48.6339 7.14968V13.273C48.6339 13.4423 48.6673 13.6099 48.732 13.7663C48.7968 13.9227 48.8918 14.0648 49.0115 14.1845C49.1312 14.3043 49.2733 14.3992 49.4297 14.464C49.5861 14.5288 49.7537 14.5621 49.923 14.5621C50.0923 14.5621 50.26 14.5288 50.4164 14.464C50.5728 14.3992 50.7149 14.3043 50.8346 14.1845C50.9543 14.0648 51.0492 13.9227 51.114 13.7663C51.1788 13.6099 51.2122 13.4423 51.2122 13.273V7.14968ZM58.1412 10.6142C58.1412 10.2723 58.0054 9.9444 57.7636 9.70265C57.5218 9.46089 57.194 9.32507 56.8521 9.32507C56.5102 9.32507 56.1823 9.46089 55.9405 9.70265C55.6988 9.9444 55.5629 10.2723 55.5629 10.6142V13.273C55.5629 13.6149 55.6988 13.9428 55.9405 14.1845C56.1823 14.4263 56.5102 14.5621 56.8521 14.5621C57.194 14.5621 57.5218 14.4263 57.7636 14.1845C58.0054 13.9428 58.1412 13.6149 58.1412 13.273V10.6142Z" fill="#0096D6"/>
</g>
<defs>
<clipPath id="clip0_29_66">
<rect width="58.515" height="32.37" fill="white"/>
</clipPath>
</defs>
</svg>
