<svg width="80" height="33" viewBox="0 0 80 33" fill="none" xmlns="http://www.w3.org/2000/svg">
<g clip-path="url(#clip0_27_203)">
<path d="M15.7388 29.7964H0.317383V32.003H15.7388V29.7964Z" fill="#0062FF"/>
<path d="M15.7388 25.6064H0.317383V27.813H15.7388V25.6064Z" fill="#0062FF"/>
<path d="M11.3503 21.3916H4.73047V23.5982H11.3503V21.3916Z" fill="#0062FF"/>
<path d="M11.3503 17.1768H4.73047V19.3834H11.3503V17.1768Z" fill="#0062FF"/>
<path d="M11.3503 12.9866H4.73047V15.1932H11.3503V12.9866Z" fill="#0062FF"/>
<path d="M11.3503 8.77173H4.73047V10.9783H11.3503V8.77173Z" fill="#0062FF"/>
<path d="M15.7388 4.55688H0.317383V6.76348H15.7388V4.55688Z" fill="#0062FF"/>
<path d="M15.7388 0.366943H0.317383V2.57354H15.7388V0.366943Z" fill="#0062FF"/>
<path d="M17.9453 27.813H41.4741C41.8707 27.1188 42.1683 26.375 42.3666 25.6064H17.9701V27.813H17.9453Z" fill="#0062FF"/>
<path d="M39.6145 17.1768H22.3584V19.3834H41.474C40.9781 18.5652 40.3583 17.8214 39.6145 17.1768Z" fill="#0062FF"/>
<path d="M22.3584 12.9866V15.1932H39.6145C40.3583 14.5733 40.9781 13.8295 41.4492 12.9866H22.3584Z" fill="#0062FF"/>
<path d="M41.4742 4.55688H17.9702V6.76348H42.3667C42.1684 5.99489 41.8709 5.25109 41.4742 4.55688Z" fill="#0062FF"/>
<path d="M34.1849 0.366943H17.9453V2.57354H39.8625C38.3005 1.13553 36.2675 0.366943 34.1849 0.366943Z" fill="#0062FF"/>
<path d="M28.9782 8.77173H22.3584V10.9783H28.9782V8.77173Z" fill="#0062FF"/>
<path d="M35.1768 10.9783H42.2924C42.4907 10.2593 42.5899 9.51552 42.5899 8.77173H35.1768V10.9783Z" fill="#0062FF"/>
<path d="M28.9782 21.3916H22.3584V23.5982H28.9782V21.3916Z" fill="#0062FF"/>
<path d="M35.1768 21.3916V23.5982H42.5899C42.5899 22.8544 42.4907 22.1106 42.2924 21.3916H35.1768Z" fill="#0062FF"/>
<path d="M17.9453 32.0031L34.1849 32.0279C36.2923 32.0279 38.3253 31.2345 39.8625 29.8213H17.9453V32.0031Z" fill="#0062FF"/>
<path d="M62.0279 32.003L62.7965 29.7964H61.2593L62.0279 32.003Z" fill="#0062FF"/>
<path d="M60.5649 27.813H63.4905L64.2591 25.6064H59.7715L60.5649 27.813Z" fill="#0062FF"/>
<path d="M59.0772 23.5982H64.978L65.7466 21.3916H58.3086L59.0772 23.5982Z" fill="#0062FF"/>
<path d="M57.5899 19.3834H66.4411L67.2344 17.1768H56.8213L57.5899 19.3834Z" fill="#0062FF"/>
<path d="M48.813 10.9783H60.7137L59.9451 8.77173H48.813V10.9783Z" fill="#0062FF"/>
<path d="M64.8047 6.76348H79.6558V4.55688H65.5733L64.8047 6.76348Z" fill="#0062FF"/>
<path d="M67.0357 0.366943L66.2671 2.57354H79.6554V0.366943H67.0357Z" fill="#0062FF"/>
<path d="M55.4081 29.7964H44.3999V32.003H55.4081V29.7964Z" fill="#0062FF"/>
<path d="M55.4081 25.6064H44.3999V27.813H55.4081V25.6064Z" fill="#0062FF"/>
<path d="M55.4328 21.3916H48.813V23.5982H55.4328V21.3916Z" fill="#0062FF"/>
<path d="M55.4328 17.1768H48.813V19.3834H55.4328V17.1768Z" fill="#0062FF"/>
<path d="M75.2425 8.77173H64.1104L63.3418 10.9783H75.2425V8.77173Z" fill="#0062FF"/>
<path d="M68.6475 15.1932H75.2425V12.9866H68.6475H62.6476L62.0278 14.7717L61.4079 12.9866H55.408H48.813V15.1932H55.408V13.1601L56.127 15.1932H67.9285L68.6475 13.1601V15.1932Z" fill="#0062FF"/>
<path d="M75.2672 17.1768H68.6475V19.3834H75.2672V17.1768Z" fill="#0062FF"/>
<path d="M75.2672 21.3916H68.6475V23.5982H75.2672V21.3916Z" fill="#0062FF"/>
<path d="M79.6556 25.6064H68.6475V27.813H79.6556V25.6064Z" fill="#0062FF"/>
<path d="M79.6556 29.7964H68.6475V32.003H79.6556V29.7964Z" fill="#0062FF"/>
<path d="M59.251 6.76348L58.4824 4.55688H44.3999V6.76348H59.251Z" fill="#0062FF"/>
<path d="M57.7882 2.57354L57.0196 0.366943H44.3999V2.57354H57.7882Z" fill="#0062FF"/>
</g>
<defs>
<clipPath id="clip0_27_203">
<rect width="79.9729" height="32.37" fill="white"/>
</clipPath>
</defs>
</svg>
