<svg width="89" height="33" viewBox="0 0 89 33" fill="none" xmlns="http://www.w3.org/2000/svg">
<g clip-path="url(#clip0_29_92)">
<path fill-rule="evenodd" clip-rule="evenodd" d="M38.4551 5.54078H45.2505V31.8252H38.4551V5.54078ZM55.277 11.2864H56.9272C61.281 11.2864 64.3814 13.9939 64.3814 18.6828C64.3814 23.7681 60.8845 26.0133 56.7946 26.0133H55.277V11.2864ZM48.4821 31.8252H58.1795C65.4362 31.8252 71.4402 26.0796 71.4402 18.6823C71.4402 11.2859 65.4362 5.54028 58.1795 5.54028H48.4821V31.8252Z" fill="#313C93"/>
<path fill-rule="evenodd" clip-rule="evenodd" d="M75.9262 31.8253H82.7874V11.2865H88.3949V5.5409H70.3187V11.2865H75.9262V31.8253ZM0.654096 17.4281C0.654096 17.3839 0.654268 17.3397 0.654612 17.2955V17.6023C0.654136 17.5443 0.653964 17.4862 0.654096 17.4281ZM2.1855 17.1782H0.65593C0.667558 16.3863 0.734342 15.6075 0.852599 14.8455V15.1692H2.1855V17.1782ZM2.1855 14.6692H0.880931C1.12832 13.1804 1.57242 11.7571 2.1855 10.4271V12.1592H1.51189V12.6592H2.1855V14.6692ZM2.6855 10.2298H2.27802C2.37095 10.0349 2.46752 9.84212 2.56766 9.65146V10.1497H4.62618V12.1592H2.6855V10.2298ZM4.62618 9.64965H2.56861C3.00812 8.81306 3.51617 8.01789 4.08523 7.27168V7.64015H4.62618V9.64965ZM4.62618 7.14015H4.18656C4.32942 6.95659 4.476 6.77607 4.62618 6.5987V7.14015ZM5.12618 6.33338H4.85559C5.33498 5.79045 5.84886 5.27871 6.39375 4.80163V5.19648H7.13319V7.14015H5.12618V6.33338ZM7.13319 4.69648H6.515C6.71697 4.52301 6.92309 4.35425 7.13319 4.19039V4.69648ZM7.63319 3.95604H7.44088C8.26831 3.34069 9.15408 2.79977 10.0882 2.3433V2.68697H12.1472V4.69648H10.1402V2.70179H9.6402V4.69648H7.63319V3.95604ZM12.1472 2.18697H10.4171C10.9779 1.92794 11.5553 1.69905 12.1472 1.50237V2.18697ZM12.6472 1.44654H12.3183C13.8494 0.956158 15.4754 0.68072 17.1607 0.655893V2.18697H15.1537V0.918404H14.6537V2.18697H12.6472V1.44654ZM17.4458 0.654089H17.3756L17.4107 0.654053L17.4458 0.654089ZM17.6607 2.18697V0.655894C18.4511 0.667543 19.2279 0.73433 19.9877 0.852576H19.6019V2.18697H17.6607ZM20.1019 2.18697V0.870764C28.0524 2.16506 34.1014 9.09999 34.101 17.4281C34.101 23.5039 30.8684 28.8535 26.0528 31.759H12.6472V30.4901C12.8218 30.5096 13.0033 30.5144 13.1891 30.5048C13.7301 30.488 14.2165 30.3998 14.6537 30.2517V31.6932H15.1537V30.0465C17.757 28.7795 18.3576 25.1551 18.4665 22.3813C18.6977 17.6103 18.702 14.5939 18.7066 11.3035C18.7086 9.90282 18.7106 8.45253 18.7303 6.79614C18.7303 5.07859 18.9941 3.758 20.1157 3.758C20.5244 3.72887 20.7006 4.08765 20.9015 4.49673C21.1546 5.01206 21.4468 5.60722 22.2926 5.60722C23.4137 5.54089 23.876 4.94643 23.8096 3.95599C23.7544 2.83905 22.8019 2.33609 21.8308 2.24737V2.18697H20.1019ZM19.4216 2.68697H17.6607V4.35039C18.1521 3.57502 18.7456 3.0293 19.4216 2.68697ZM16.0946 22.6313C16.0805 23.3351 16.0606 24.0103 16.033 24.6413H15.1537V22.6313H16.0946ZM16.1226 20.1223C16.1199 20.8048 16.114 21.4784 16.1036 22.1313H15.1537V20.1223H16.1226ZM16.1213 17.6782C16.1239 18.3249 16.1252 18.9762 16.124 19.6223H15.1537V17.6782H16.1213ZM16.1063 15.1692C16.1064 15.1887 16.1066 15.2083 16.1067 15.228C16.1111 15.8632 16.1156 16.5169 16.1189 17.1782H15.1537V15.1692H16.1063ZM16.0924 12.6592C16.0941 13.2916 16.0982 13.9667 16.1029 14.6692H15.1537V12.6592H16.0924ZM16.1508 10.1497C16.1117 10.7535 16.0916 11.3961 16.0916 12.079C16.0916 12.1056 16.0916 12.1323 16.0916 12.1592H15.1537V10.1497H16.1508ZM16.4615 7.64015C16.3424 8.25156 16.2506 8.92047 16.1883 9.64965H15.1537V7.64015H16.4615ZM17.1607 5.30083C16.9271 5.83606 16.7284 6.44759 16.5679 7.14015H15.1537V5.19648H17.1607V5.30083ZM16.009 25.1413C15.9943 25.4207 15.9778 25.6898 15.9595 25.9471C15.9304 26.3995 15.8916 26.8004 15.8388 27.1503H15.1537V25.1413H16.009ZM15.7457 27.6503H15.1537V28.8045C15.4286 28.5984 15.6163 28.2154 15.7457 27.6503ZM14.6537 28.9826V27.6503H13.3625C13.4925 27.8239 13.5873 28.0217 13.6779 28.211C13.8809 28.6347 14.0633 29.0154 14.574 28.9852C14.6011 28.9852 14.6277 28.9843 14.6537 28.9826ZM11.1935 27.6503H10.1402V29.6598H11.1262C10.9455 29.3907 10.8339 29.0564 10.8138 28.655C10.8138 28.2532 10.9584 27.9093 11.1935 27.6503ZM11.6462 30.1598H10.1402V31.6932H9.6402V30.1598H7.63319V30.7023H7.20653C7.70539 31.0827 8.22678 31.4356 8.76858 31.759H12.1472V30.3872C11.9665 30.331 11.7982 30.2554 11.6462 30.1598ZM7.13319 30.1598V30.646C6.929 30.4885 6.72863 30.3264 6.53224 30.1598H7.13319ZM6.39375 29.6598V30.0411C5.80474 29.5302 5.25245 28.9788 4.74095 28.3908H5.12618V27.6503H7.13319V29.6598H6.39375ZM4.62618 27.6503V28.2574C4.45726 28.0591 4.29293 27.8566 4.13335 27.6503H4.62618ZM4.08523 27.1503V27.5878C3.61946 26.9798 3.19472 26.3383 2.81483 25.6674C2.60973 25.3052 2.41872 24.9362 2.24203 24.5612H2.6855V22.6313H4.62618V24.6413H2.56766V25.1413H4.62618V27.1503H4.08523ZM2.1855 22.6313V24.44C1.91346 23.8504 1.67662 23.2465 1.47582 22.6313H2.1855ZM1.44606 22.1313V22.5393C0.944697 20.9726 0.676527 19.3346 0.655406 17.6782H2.1855V19.6223H0.918428V20.1223H2.1855V22.1313H1.44606ZM17.1607 2.68697H15.1537V4.69648H17.1607V2.68697ZM14.6537 24.6413V22.6313H12.6472V24.6413H14.6537ZM12.1472 24.6413V22.6313H10.1402V24.6413H12.1472ZM10.1402 25.1413H12.1472V27.1503H10.1402V25.1413ZM9.6402 24.6413V22.6313H7.63319V24.6413H9.6402ZM7.63319 25.1413H9.6402V27.1503H7.63319V25.1413ZM7.13319 24.6413V22.6313H5.12618V24.6413H7.13319ZM5.12618 25.1413H7.13319V27.1503H5.12618V25.1413ZM5.12618 22.1313H7.13319V20.1223H5.12618V22.1313ZM5.12618 19.6223H7.13319V17.6782H5.12618V19.6223ZM4.62618 17.6782V19.6223H2.6855V17.6782H4.62618ZM4.62618 15.1692V17.1782H2.6855V15.1692H4.62618ZM5.12618 14.6692H7.13319V12.6592H5.12618V14.6692ZM4.62618 12.6592V14.6692H2.6855V12.6592H4.62618ZM5.12618 12.1592H7.13319V10.1497H5.12618V12.1592ZM5.12618 9.64965H7.13319V7.64015H5.12618V9.64965ZM7.63319 7.64015V9.64965H9.6402V7.64015H7.63319ZM10.1402 7.64015V9.64965H12.1472V7.64015H10.1402ZM12.1472 7.14015H10.1402V5.19648H12.1472V7.14015ZM14.6537 7.14015H12.6472V5.19648H14.6537V7.14015ZM14.6537 4.69648V2.68697H12.6472V4.69648H14.6537ZM14.6537 10.1497H12.6472V12.1592H14.6537V10.1497ZM14.6537 12.6592H12.6472V14.6692H14.6537V12.6592ZM14.6537 15.1692H12.6472V17.1782H14.6537V15.1692ZM14.6537 17.6782H12.6472V19.6223H14.6537V17.6782ZM14.6537 20.1223H12.6472V22.1313H14.6537V20.1223ZM12.1472 22.1313V20.1223H10.1402V22.1313H12.1472ZM9.6402 22.1313V20.1223H7.63319V22.1313H9.6402ZM7.63319 19.6223H9.6402V17.6782H7.63319V19.6223ZM7.63319 17.1782H9.6402V15.1692H7.63319V17.1782ZM7.63319 14.6692H9.6402V12.6592H7.63319V14.6692ZM7.63319 12.1592H9.6402V10.1497H7.63319V12.1592ZM10.1402 10.1497V12.1592H12.1472V10.1497H10.1402ZM12.1472 12.6592H10.1402V14.6692H12.1472V12.6592ZM12.1472 15.1692H10.1402V17.1782H12.1472V15.1692ZM12.1472 17.6782H10.1402V19.6223H12.1472V17.6782ZM9.6402 5.19648V7.14015H7.63319V5.19648H9.6402ZM2.6855 20.1223H4.62618V22.1313H2.6855V20.1223ZM7.63319 27.6503V29.6598H9.6402V27.6503H7.63319ZM12.6472 27.1503V25.1413H14.6537V27.1503H12.6472Z" fill="#313C93"/>
<path d="M8.31822 32.483L8.55651 32.6268H8.83479H25.9869H26.2652L26.5034 32.483C31.6118 29.4012 34.9697 23.7973 34.9697 17.428C34.9692 7.7027 27.1388 -0.213867 17.4106 -0.213867C7.68757 -0.213867 -0.213867 7.697 -0.213867 17.428C-0.213867 23.8049 3.2166 29.4052 8.31822 32.483Z" stroke="#313C93" stroke-width="2" stroke-miterlimit="2.613"/>
<path fill-rule="evenodd" clip-rule="evenodd" d="M86.4156 31.4293L86.9438 30.1087H87.4056V31.8911H87.1417V30.4388H87.0754L86.5483 31.8911H86.3498L85.7568 30.4388V31.8911H85.4266V30.1087H85.9548L86.4156 31.4293ZM85.1618 30.372H84.5688V31.8906H84.3049V30.372H83.7109V30.1082H85.1623L85.1618 30.372Z" fill="#313C93"/>
</g>
<defs>
<clipPath id="clip0_29_92">
<rect width="88.6088" height="32.37" fill="white"/>
</clipPath>
</defs>
</svg>
