<svg width="83" height="33" viewBox="0 0 83 33" fill="none" xmlns="http://www.w3.org/2000/svg">
<path d="M6.82662 1.07959H0.978027V6.91408H6.82662V1.07959Z" fill="#0068B5"/>
<path d="M6.68092 31.4771V10.4646H1.14453V31.4771H6.68092ZM43.4792 31.6847V26.5354C42.6675 26.5354 41.9806 26.4939 41.4811 26.4108C40.8983 26.3278 40.4612 26.1201 40.1699 25.8294C39.8785 25.5388 39.6911 25.1235 39.5871 24.5837C39.5038 24.0646 39.4622 23.3794 39.4622 22.5488V15.1986H43.4792V10.4646H39.4622V2.26309H33.905V22.5904C33.905 24.3137 34.0507 25.7672 34.3421 26.9299C34.6335 28.0719 35.133 29.0062 35.8198 29.7122C36.5067 30.4181 37.4225 30.9165 38.5256 31.2279C39.6495 31.5394 41.0648 31.6847 42.7507 31.6847H43.4792ZM75.2822 31.4771V0.643555H69.725V31.4771H75.2822ZM28.5559 12.5202C27.0157 10.8591 24.8511 10.0286 22.1037 10.0286C20.7717 10.0286 19.5645 10.2985 18.4614 10.8383C17.3791 11.3782 16.4425 12.1257 15.714 13.0808L15.4018 13.4753V13.1223V10.4646H9.92783V31.4771H15.4434V20.2856V21.0539C15.4434 20.9293 15.4434 20.8047 15.4434 20.6801C15.5058 18.7076 15.9846 17.2542 16.9004 16.3199C17.8786 15.3232 19.065 14.8249 20.4178 14.8249C22.0205 14.8249 23.2485 15.3232 24.0602 16.2783C24.8511 17.2334 25.2674 18.5831 25.2674 20.3064V20.3479V31.4563H30.8662V19.5382C30.887 16.5482 30.0961 14.1812 28.5559 12.5202ZM66.8528 20.9293C66.8528 19.4136 66.5822 18.0017 66.0619 16.6728C65.5207 15.3647 64.7714 14.202 63.8348 13.2054C62.8774 12.2087 61.7326 11.4405 60.4006 10.8799C59.0685 10.3193 57.5908 10.0493 55.9881 10.0493C54.4687 10.0493 53.0326 10.34 51.7005 10.9006C50.3685 11.482 49.2029 12.2502 48.2247 13.2261C47.2464 14.202 46.4555 15.3647 45.8936 16.6936C45.3108 18.0224 45.0402 19.4551 45.0402 20.9708C45.0402 22.4866 45.3108 23.9192 45.8519 25.2481C46.3931 26.5769 47.1632 27.7397 48.1206 28.7155C49.078 29.6914 50.2644 30.4804 51.6381 31.041C53.0118 31.6224 54.5312 31.9131 56.1546 31.9131C60.8585 31.9131 63.7724 29.7745 65.5207 27.7812L61.5245 24.7498C60.692 25.7464 58.6939 27.096 56.1963 27.096C54.6352 27.096 53.3448 26.743 52.3666 26.0163C51.3883 25.3104 50.7223 24.3137 50.3685 23.0887L50.306 22.9018H66.8528V20.9293ZM50.3477 18.9983C50.3477 17.4618 52.1168 14.7834 55.9257 14.7626C59.7346 14.7626 61.5245 17.4411 61.5245 18.9776L50.3477 18.9983Z" fill="black"/>
<path d="M81.6097 28.7363C81.5057 28.4871 81.36 28.2795 81.1726 28.0926C80.9853 27.9057 80.7772 27.7604 80.5274 27.6566C80.2777 27.5528 80.0071 27.4905 79.7365 27.4905C79.4451 27.4905 79.1953 27.5528 78.9456 27.6566C78.6958 27.7604 78.4877 27.9057 78.3004 28.0926C78.1131 28.2795 77.9674 28.4871 77.8633 28.7363C77.7592 28.9854 77.6968 29.2554 77.6968 29.5253C77.6968 29.816 77.7592 30.0651 77.8633 30.3143C77.9674 30.5634 78.1131 30.7711 78.3004 30.958C78.4877 31.1448 78.6958 31.2902 78.9456 31.394C79.1953 31.4978 79.4659 31.5601 79.7365 31.5601C80.0279 31.5601 80.2777 31.4978 80.5274 31.394C80.7772 31.2902 80.9853 31.1448 81.1726 30.958C81.36 30.7711 81.5057 30.5634 81.6097 30.3143C81.7138 30.0651 81.7762 29.7952 81.7762 29.5253C81.7762 29.2554 81.7138 28.9854 81.6097 28.7363ZM81.2767 30.1897C81.1934 30.3973 81.0686 30.5842 80.9229 30.7296C80.7772 30.8749 80.5899 30.9995 80.3817 31.0825C80.1736 31.1656 79.9655 31.2071 79.7157 31.2071C79.4867 31.2071 79.2578 31.1656 79.0497 31.0825C78.8415 30.9995 78.6542 30.8749 78.5085 30.7296C78.3628 30.5842 78.2379 30.3973 78.1547 30.1897C78.0714 29.9821 78.0298 29.7744 78.0298 29.5253C78.0298 29.2969 78.0714 29.0685 78.1547 28.8609C78.2379 28.6532 78.3628 28.4664 78.5085 28.321C78.6542 28.1757 78.8415 28.0511 79.0497 27.968C79.2578 27.885 79.4659 27.8435 79.7157 27.8435C79.9446 27.8435 80.1736 27.885 80.3817 27.968C80.5899 28.0511 80.7772 28.1757 80.9229 28.321C81.0686 28.4664 81.1934 28.6532 81.2767 28.8609C81.36 29.0685 81.4016 29.2761 81.4016 29.5253C81.4224 29.7744 81.36 29.9821 81.2767 30.1897ZM80.1111 29.6914C80.2777 29.6706 80.4025 29.6083 80.5066 29.5045C80.6107 29.4007 80.6731 29.2554 80.6731 29.0477C80.6731 28.8193 80.6107 28.6532 80.465 28.5286C80.3401 28.4041 80.1111 28.3418 79.8406 28.3418H78.9248V30.688H79.3619V29.7329H79.6741L80.2568 30.688H80.7147L80.1111 29.6914ZM79.8822 29.3592C79.8198 29.3592 79.7573 29.3592 79.6741 29.3592H79.3619V28.6948H79.6741C79.7365 28.6948 79.7989 28.6948 79.8822 28.6948C79.9446 28.6948 80.0071 28.7155 80.0695 28.7363C80.132 28.757 80.1736 28.7986 80.1944 28.8401C80.2152 28.8816 80.236 28.9439 80.236 29.027C80.236 29.11 80.2152 29.1723 80.1944 29.2138C80.1528 29.2554 80.1111 29.2969 80.0695 29.3177C80.0071 29.3384 79.9446 29.3592 79.8822 29.3592Z" fill="black"/>
</svg>
