<svg width="114" height="33" viewBox="0 0 114 33" fill="none" xmlns="http://www.w3.org/2000/svg">
<g clip-path="url(#clip0_27_245)">
<path d="M28.2108 16.5639C28.208 17.534 28.1561 18.5464 28.0872 19.4995C28.0178 20.4241 28.0023 21.6205 27.8484 22.5484C27.2695 26.0969 25.0126 27.5628 22.0922 27.7184L20.5766 27.8194L19.061 27.7184C16.1393 27.5628 13.8814 26.0969 13.3006 22.5484C13.1496 21.6205 13.1335 20.4241 13.0656 19.4995C12.9967 18.5459 12.9429 17.5336 12.9391 16.5639C12.9363 16.4424 12.9391 16.3642 12.9363 16.2418C12.9391 16.1189 12.9363 15.996 12.9391 15.8746C12.9429 14.9049 12.9962 13.8911 13.0656 12.9376C13.1335 12.0154 13.1491 10.8185 13.3006 9.89056C13.881 6.33971 16.1388 4.87762 19.061 4.72059L20.5766 4.66699L22.0922 4.72059C25.0126 4.87809 27.2695 6.34018 27.8484 9.89056C28.0023 10.8185 28.0178 12.0154 28.0872 12.9376C28.1561 13.8911 28.208 14.9049 28.2108 15.8746C28.2132 15.9965 28.2132 16.1194 28.2132 16.2418C28.2136 16.3642 28.2136 16.4424 28.2108 16.5639ZM39.8355 8.39906C38.8087 5.59633 36.2928 3.11476 33.8981 2.05639C33.2639 1.66975 32.1136 1.29546 30.4597 0.988996C28.292 0.55777 25.0517 0.284043 21.1542 0.264119C21.0301 0.262695 20.9055 0.264119 20.7809 0.264119C20.7106 0.262695 20.6441 0.262695 20.5762 0.262695C20.5044 0.262695 20.4365 0.262695 20.37 0.264119C20.2449 0.264119 20.1222 0.262695 19.9958 0.264119C16.0968 0.283569 12.8599 0.557295 10.6888 0.988521C9.03734 1.29498 7.88695 1.66928 7.25277 2.05591C4.85809 3.11429 2.3379 5.59586 1.31397 8.39859C0.519831 10.4176 0.23011 13.1871 0.158388 15.6886C0.158388 15.8699 0.150366 16.0549 0.155557 16.2413C0.150366 16.4287 0.158388 16.5682 0.158388 16.7503C0.23011 19.2513 0.519831 22.019 1.31397 24.0385C2.3379 26.8422 4.85809 29.3242 7.25277 30.3802C7.88695 30.7683 9.03734 31.1445 10.6888 31.45C12.8594 31.8807 16.0968 32.154 19.9958 32.1744C20.1227 32.1744 20.2449 32.1744 20.37 32.1744C20.4365 32.1744 20.5044 32.1744 20.5762 32.1744C20.6441 32.1744 20.7106 32.1744 20.7809 32.1744C20.905 32.1744 21.0301 32.1744 21.1542 32.1744C25.0517 32.154 28.292 31.8807 30.4597 31.45C32.1136 31.144 33.2639 30.7683 33.8981 30.3802C36.2928 29.3237 38.8087 26.8422 39.8355 24.0385C40.6287 22.019 40.9415 19.2513 41.0147 16.7503C41.0147 16.5682 41.0435 16.4282 41.0411 16.2413C41.0435 16.0549 41.0147 15.8699 41.0147 15.6886C40.9415 13.1876 40.6287 10.4181 39.8355 8.39906ZM70.9479 11.8152L81.1896 5.19689H86.088V1.0222H68.3551V5.19689H72.0804L59.1109 13.6075V5.19689H63.1623V1.0222H43.4112V5.19689H47.4621V27.2297H43.4112V31.4063H63.1618V27.2297H59.1104V19.4625L63.0198 16.9368L71.4203 27.2297H68.3551V31.4063H88.3637V27.2297H84.855L70.9479 11.8152ZM113.606 5.19167V1.01699H91.9362V5.19167H96.4004V27.2297H91.9362V31.4063H113.606V27.2297H109.142V5.19167H113.606Z" fill="#DE1F27"/>
</g>
<defs>
<clipPath id="clip0_27_245">
<rect width="113.88" height="32.37" fill="white"/>
</clipPath>
</defs>
</svg>
