<svg width="172" height="33" viewBox="0 0 172 33" fill="none" xmlns="http://www.w3.org/2000/svg">
<g clip-path="url(#clip0_27_264)">
<path fill-rule="evenodd" clip-rule="evenodd" d="M34.8675 1.68605C34.8675 1.68605 31.5931 6.19655 31.1842 6.19655C30.7743 5.78684 12.3559 4.14616 13.1747 7.83724C13.1747 9.47792 17.2679 9.88763 18.4956 9.88763C22.9978 10.708 36.0962 11.1177 35.6863 17.2698C35.2774 22.1891 31.1842 23.421 29.5475 23.8307C23.8166 25.8802 15.6311 25.8802 9.08148 25.4704C5.39815 25.0607 0.486135 24.2404 0.486135 24.2404C0.895088 23.0103 1.71391 21.3687 3.35064 19.3193C11.1272 20.959 18.9046 20.5493 20.5422 20.1396C21.3611 19.7299 22.5888 19.3193 22.5888 18.0901C22.9978 16.0388 18.4956 15.6291 17.2679 15.6291C12.7657 14.8088 -1.15059 13.9893 0.0762663 7.83815C0.486135 3.73736 3.76051 2.50731 7.85279 1.27726C16.4481 -1.18468 29.5465 0.455083 34.8675 1.68605ZM39.7795 0.865708H50.0125V19.729H39.7795V0.865708ZM54.5147 0.865708H79.8917V4.9665H64.3378V8.24695H73.7519L71.7054 11.9371H64.3378V15.6282H79.8917V19.729H54.5147V0.865708ZM115.91 0.865708H141.288V4.9665H125.735V8.24695H135.148L133.101 11.9371H125.735V15.6282H141.288V19.729H115.91V0.865708ZM145.381 0.865708H154.794V15.6282H171.168V19.729H145.381V0.865708ZM84.3939 0.865708C88.4871 0.865708 105.269 0.455082 109.361 2.09576C111.818 3.32582 113.455 5.37621 111.818 7.83724C111 9.06729 108.134 9.88763 106.906 9.88763C106.906 9.88763 113.046 10.2973 113.046 14.3981C113.046 20.959 99.9488 19.729 84.3948 19.729L84.3939 0.865708ZM93.8081 4.55587V8.24603C95.8537 8.24603 103.221 8.65574 103.221 6.60535C103.221 3.73553 95.8547 4.55587 93.8081 4.55587ZM93.8081 11.9371V16.037C95.8537 16.037 103.221 16.037 103.221 13.9875C103.632 11.9371 98.7201 11.9371 97.0833 11.9371H93.8081ZM41.8252 27.9296C41.8252 28.3393 41.8252 29.1615 43.053 29.1615C43.8718 29.1615 44.6906 28.7518 44.6906 28.3403C44.6906 27.5199 43.8718 27.5199 43.4628 27.5199L42.644 27.1102C41.4163 27.1102 40.5974 26.7005 40.5974 25.0607C40.5974 24.651 41.0073 23.0113 43.0539 23.0113C45.1005 23.0113 45.5104 24.651 45.5104 25.4714H44.2826C44.2826 25.0616 44.2826 24.2413 43.0548 24.2413C42.6459 24.2413 41.827 24.651 41.827 25.0616C41.827 25.4723 42.2369 25.882 42.6459 25.882L44.2835 26.2917C45.1023 26.2917 45.9211 26.7014 45.9211 27.9315C45.9211 29.9828 43.8745 29.9828 43.0557 29.9828C41.0091 29.9828 40.5993 28.7527 40.5993 27.9315H41.8252V27.9296ZM48.7838 25.0598H49.6026V25.8802H48.7838V28.7518C48.7838 28.7518 48.7838 29.1615 49.6026 29.1615V29.9819H48.7838C47.965 29.9819 47.556 29.5721 47.556 29.1615V25.8802H47.1471V25.0598H47.556V23.8298H48.7838V25.0598ZM51.2394 25.0598H52.4671V25.8802C52.8761 25.4704 52.8761 25.0598 53.6949 25.0598H54.1039V26.2899H53.6949C52.8761 26.2899 52.4671 26.6996 52.4671 27.5199V29.9819H51.2394V25.0598ZM58.198 28.3393C58.198 28.7509 57.789 29.1606 56.9702 29.1606C56.9702 29.1606 56.5613 29.1606 56.5613 28.7509C56.5613 27.9296 56.9702 27.9296 57.3801 27.9296C57.7899 27.9296 58.1989 27.5199 58.1989 27.5199L58.198 28.3393ZM59.4267 26.2899C59.4267 25.0598 58.198 25.0598 57.3801 25.0598C56.5622 25.0598 55.3335 25.0598 55.3335 26.6996H56.5613C56.5613 26.2899 56.5613 25.8792 57.3801 25.8792C57.789 25.8792 58.1989 25.8792 58.1989 26.6996C58.1989 26.6996 57.7899 26.6996 57.7899 27.1093H56.5622C55.7434 27.1093 55.3344 27.519 55.3344 28.7509C55.3344 29.5712 55.7434 29.9809 56.5622 29.9809C57.381 29.9809 57.7899 29.5712 58.1989 29.5712V29.9809H59.8366V29.5712C59.4276 29.5712 59.4276 29.5712 59.4276 29.1615L59.4267 26.2899ZM62.7001 25.0598H63.519V25.8802H62.7001V28.7518C62.7001 28.7518 62.7001 29.1615 63.11 29.1615H63.519V29.9819H62.7001C61.4724 29.9819 61.4724 29.5721 61.4724 29.1615V25.8802H60.6535V25.0598H61.4724V23.8298H62.7001V25.0598ZM65.9754 27.1093C65.9754 26.289 66.3844 25.8792 66.7942 25.8792C67.2041 25.8792 68.022 26.289 68.022 27.1093H65.9754ZM68.0211 28.3393C67.6122 28.7509 67.6122 29.1606 67.2023 29.1606C65.9745 29.1606 65.9745 28.3393 65.9745 27.9287H69.2489V27.519C69.2489 25.4695 68.0202 25.0589 66.7924 25.0589C64.7458 25.0589 64.7458 26.6987 64.7458 27.519C64.7458 29.5703 65.5646 29.9809 67.2014 29.9809C68.0202 29.9809 68.839 29.5712 69.248 28.3393H68.0211ZM72.1143 27.5199C72.1143 26.2899 72.5233 25.8802 72.9331 25.8802C73.7519 25.8802 74.1609 26.7005 74.1609 27.5199C74.1609 28.3393 73.7519 28.7518 72.9331 28.7518C72.1143 28.7509 72.1143 28.3393 72.1143 27.5199ZM74.1609 25.0598V25.8802C73.7519 25.4704 73.3421 25.0598 72.5233 25.0598C71.7044 25.0598 70.4767 25.8802 70.4767 27.5199C70.4767 29.1615 71.7044 29.9819 72.5233 29.9819C73.3421 29.9819 73.751 29.5721 74.1609 29.1615V29.9819C74.1609 30.8022 73.7519 30.8022 72.9331 30.8022C72.1143 30.8022 72.1143 30.8022 72.1143 30.3925H70.8865C70.8865 31.6225 71.7053 32.0323 72.9331 32.0323C75.3887 32.0323 75.3887 30.3925 75.3887 29.5721V25.0607L74.1609 25.0598ZM77.0263 29.9809V25.0598H78.2541V29.9809H77.0263ZM77.0263 24.6501V23.42H78.2541V24.6501H77.0263ZM84.3939 28.3393C84.3939 28.7509 83.9849 29.9809 82.3473 29.9809C80.3007 29.9809 79.8908 28.7509 79.8908 27.519C79.8908 25.8792 80.7096 25.0589 82.3473 25.0589C83.1661 25.0589 84.3939 25.4686 84.3939 26.6987H83.1661C83.1661 26.6987 83.1661 25.8783 82.3473 25.8783C81.5285 25.8783 81.5285 26.6987 81.5285 27.5181C81.5285 27.9278 81.5285 29.1597 82.3473 29.1597C83.1661 29.1597 83.1661 28.3384 83.1661 28.3384L84.3939 28.3393ZM90.9436 26.2899V24.6501H92.1713C92.9901 24.6501 92.9901 24.6501 92.9901 25.4704C92.9901 25.8802 92.9901 26.2908 92.1713 26.2908L90.9436 26.2899ZM90.9436 27.5199H92.5803C94.217 27.5199 94.626 25.8802 94.626 25.4704C94.626 24.2404 93.8071 23.421 92.5803 23.421H89.305V29.9819H90.9436V27.5199ZM97.4932 29.9809V23.42H96.2636V29.9809H97.4932ZM101.994 28.3393C101.994 28.7509 101.585 29.1606 101.175 29.1606C100.765 29.1606 100.356 29.1606 100.356 28.7509C100.356 27.9296 100.765 27.9296 101.175 27.9296C101.994 27.9296 101.994 27.5199 101.994 27.5199V28.3393ZM103.221 26.2899C103.221 25.0598 101.994 25.0598 101.585 25.0598C100.357 25.0598 99.5389 25.0598 99.129 26.6996H100.357C100.357 26.2899 100.766 25.8792 101.176 25.8792C101.585 25.8792 101.994 25.8792 101.994 26.6996L101.585 27.1093H100.358C99.5389 27.1093 99.1299 27.519 99.1299 28.7509C99.1299 29.5712 99.9488 29.9809 100.767 29.9809C101.585 29.9809 101.994 29.5712 101.994 29.5712C102.403 29.5712 102.403 29.5712 102.403 29.9809H103.633V29.5712C103.633 29.5712 103.222 29.5712 103.222 29.1615L103.221 26.2899ZM106.497 25.0598H107.315V25.8802H106.497V28.7518C106.497 28.7518 106.497 29.1615 107.315 29.1615V29.9819H106.906C105.679 29.9819 105.27 29.5721 105.27 29.1615V25.8802H104.861V25.0598H105.27V23.8298H106.498L106.497 25.0598ZM110.591 29.9809H109.361V25.8792H108.542V25.0589H109.361V24.6492C109.361 23.8288 109.77 23.4191 110.591 23.4191H111.41V24.2395H111.001C110.592 24.2395 110.592 24.6492 110.592 25.0598H111.41V25.8802H110.592L110.591 29.9809ZM115.91 27.5199C115.91 28.3403 115.91 29.1615 114.682 29.1615C113.863 29.1615 113.454 28.3403 113.454 27.5199C113.454 26.6996 113.863 25.8802 114.682 25.8802C115.91 25.8802 115.91 26.6996 115.91 27.5199ZM117.139 27.5199C117.139 25.8802 115.91 25.0598 114.682 25.0598C113.454 25.0598 112.227 25.8802 112.227 27.5199C112.227 29.1615 113.454 29.9819 114.682 29.9819C115.91 29.9819 117.139 29.1615 117.139 27.5199ZM118.776 25.0598H120.004V25.8802C120.413 25.4704 120.823 25.0598 121.232 25.0598H121.641V26.2899H121.232C120.413 26.2899 120.004 26.6996 120.004 27.5199V29.9819H118.776V25.0598ZM130.238 29.9809H129.01V27.1093C129.01 26.289 128.599 25.8792 128.19 25.8792C127.372 25.8792 127.372 26.289 127.372 27.1093V29.9809H126.144V27.1093C126.144 26.6996 126.144 25.8792 125.325 25.8792C124.506 25.8792 124.506 26.289 124.506 27.1093V29.9809H123.278V25.0598H124.506V25.8802C124.506 25.4704 124.915 25.0598 125.734 25.0598C126.553 25.0598 126.962 25.0598 126.962 25.8802C127.371 25.4704 127.78 25.0598 128.598 25.0598C129.418 25.0598 130.237 25.4695 130.237 26.6996L130.238 29.9809ZM136.787 26.2899V24.6501H137.605C138.833 24.6501 138.833 24.6501 138.833 25.4704C138.833 25.8802 138.833 26.2908 138.014 26.2908L136.787 26.2899ZM136.787 27.5199H138.423C140.06 27.5199 140.469 25.8802 140.469 25.4704C140.469 24.2404 139.65 23.421 138.423 23.421H135.148V29.9819H136.787V27.5199ZM144.563 28.3393C144.563 28.7509 143.744 29.1606 143.335 29.1606C142.926 29.1606 142.517 29.1606 142.517 28.7509C142.517 27.9296 142.925 27.9296 143.744 27.9296C144.153 27.9296 144.153 27.5199 144.563 27.5199V28.3393ZM145.791 26.2899C145.791 25.0598 144.563 25.0598 143.745 25.0598C142.927 25.0598 141.698 25.0598 141.698 26.6996H142.927C142.927 26.2899 142.927 25.8792 143.746 25.8792C143.746 25.8792 144.565 25.8792 144.565 26.6996C144.565 26.6996 144.156 26.6996 144.156 27.1093H142.928C142.108 27.1093 141.29 27.519 141.29 28.7509C141.29 29.5712 142.108 29.9809 142.928 29.9809C143.747 29.9809 144.156 29.5712 144.565 29.5712V29.9809H146.202V29.5712C145.793 29.5712 145.793 29.5712 145.793 29.1615V26.2899H145.791ZM147.428 25.0598H148.657V25.8802C149.066 25.4704 149.476 25.0598 150.294 25.0598V26.2899H149.885C149.066 26.2899 148.657 26.6996 148.657 27.5199V29.9819H147.428V25.0598ZM153.567 25.0598H154.386V25.8802H153.567V28.7518C153.567 28.7518 153.567 29.1615 153.976 29.1615H154.385V29.9819H153.566C152.339 29.9819 152.339 29.5721 152.339 29.1615V25.8802H151.52V25.0598H152.339V23.8298H153.566L153.567 25.0598ZM160.116 29.9809H158.888V27.1093C158.888 26.6996 158.888 25.8792 158.07 25.8792C157.661 25.8792 156.842 26.289 156.842 27.1093V29.9809H155.614V25.0598H156.842V25.8802C157.251 25.4704 157.661 25.0598 158.479 25.0598C159.296 25.0598 160.115 25.4695 160.115 26.6996L160.116 29.9809ZM162.982 27.1093C162.982 26.289 163.391 25.8792 163.801 25.8792C164.211 25.8792 165.029 26.289 165.029 27.1093H162.982ZM165.028 28.3393C164.619 28.7509 164.619 29.1606 164.209 29.1606C162.982 29.1606 162.982 28.3393 162.982 27.9287H166.255V27.519C166.255 25.4695 165.027 25.0589 163.799 25.0589C161.754 25.0589 161.754 26.6987 161.754 27.519C161.754 29.5703 162.573 29.9809 164.209 29.9809C165.028 29.9809 165.846 29.5712 166.255 28.3393H165.028ZM167.895 25.0598H169.122V25.8802C169.531 25.4704 169.531 25.0598 170.35 25.0598H170.759V26.2899H170.35C169.122 26.2899 169.122 26.6996 169.122 27.5199V29.9819H167.895V25.0598Z" fill="#15548B"/>
</g>
<defs>
<clipPath id="clip0_27_264">
<rect width="171.177" height="32.37" fill="white"/>
</clipPath>
</defs>
</svg>
