<svg width="155" height="33" viewBox="0 0 155 33" fill="none" xmlns="http://www.w3.org/2000/svg">
<g clip-path="url(#clip0_27_248)">
<path d="M84.3386 3.36134C85.5889 1.193 88.1071 0.049871 90.5467 0.0281485C92.7729 -0.115826 95.291 0.255015 96.8506 2.01761C96.0578 3.06468 95.2997 4.1336 94.5068 5.18065C93.6224 4.16411 92.8949 2.73301 91.4659 2.44506C90.0587 2.00878 88.2901 2.74174 87.924 4.25129C87.3315 6.64648 87.6887 9.15067 87.6016 11.594H92.1717V14.3209H87.5972C87.5972 18.4307 87.5972 22.5404 87.5929 26.6503C87.5754 27.8152 87.7628 28.967 87.9806 30.11C89.0262 30.5942 90.1545 30.8429 91.309 30.8647C91.3047 31.1483 91.3003 31.7199 91.296 32.0078C87.5581 31.7635 83.8156 31.6893 80.082 32.0034C80.082 31.7635 80.0907 31.2836 80.0907 31.0436C81.2714 30.8342 82.7351 30.2845 82.7831 28.8622C83.2406 24.0326 82.9312 19.1679 83.0227 14.3209C82.1122 14.3209 81.2017 14.3209 80.2911 14.3166C80.2954 13.9065 80.3041 13.492 80.3085 13.0819C81.2321 12.6543 82.1339 12.1788 83.0226 11.6901C83.0226 8.88914 82.857 5.86126 84.3383 3.36149L84.3386 3.36134Z" fill="#8C1515"/>
<path d="M151.721 0.0236816C149.304 0.582118 146.855 1.05316 144.372 1.16223C144.346 1.3891 144.298 1.84272 144.276 2.0696C145.2 2.34883 146.707 2.27501 146.772 3.56642C147.143 6.18422 146.881 8.84064 146.955 11.4758C143.396 10.865 139.418 10.9043 136.391 13.125C133.075 15.4504 131.938 19.7873 132.269 23.6529C132.457 26.6501 133.955 29.726 136.669 31.1875C139.902 32.9675 144.036 32.601 147.064 30.5505C147.086 31.1569 147.099 31.7633 147.103 32.3697C149.447 31.772 151.844 31.4361 154.253 31.2964V30.2491C150.839 29.6668 151.783 28.0844 151.543 25.3937C151.547 16.9386 151.417 8.47889 151.721 0.0242608L151.721 0.0236816ZM142.864 13.6586C144.305 13.6433 145.772 14.1046 146.955 14.9096C146.96 19.4599 146.947 24.0103 146.964 28.5607C144.429 29.7256 141 29.6426 139.013 27.4874C137.31 25.6637 137.022 22.9937 137.175 20.6115C137.345 18.4432 137.798 15.9651 139.689 14.6212C140.636 13.9703 141.742 13.6702 142.864 13.6583L142.864 13.6586Z" fill="#8C1515"/>
<path d="M8.00573 2.80287C10.8767 2.62836 13.7563 2.81596 16.5969 3.21734C16.427 5.2417 16.4445 7.2792 16.6013 9.30349C16.3268 9.30349 15.7779 9.30785 15.5034 9.30785C15.2856 8.04264 15.0591 6.50686 13.7129 5.94401C11.7176 5.10197 9.38231 5.01909 7.31295 5.62117C4.60756 6.42393 4.16313 10.4115 6.17589 12.1524C8.69402 14.36 11.7785 15.8042 14.3576 17.9463C18.3961 21.166 17.869 28.6615 13.0768 30.917C9.04267 32.7843 4.30697 32.3131 0.141989 31.1395C0.168018 29.1338 0.0940271 27.1281 0.00244141 25.1248C0.303035 25.1204 0.90861 25.1073 1.21357 25.103C1.42704 26.3638 1.62307 27.9126 2.89956 28.5626C5.18241 29.8453 8.12742 29.95 10.4976 28.8462C13.4558 27.2101 12.9111 22.4808 10.1447 20.8883C7.74416 19.0371 4.98646 17.6685 2.76888 15.5784C0.311736 13.2922 0.00685188 9.28705 1.58839 6.42933C2.88216 4.15185 5.49187 3.01335 8.00566 2.80385L8.00573 2.80287Z" fill="#8C1515"/>
<path d="M25.044 7.09155C25.2705 7.10464 25.728 7.12646 25.9545 7.13954C25.9502 8.66217 25.9502 10.1804 25.9502 11.7032H32.9208V14.321H25.9502C25.9763 17.9858 25.8935 21.655 25.9894 25.3241C26.0852 26.7203 26.1244 28.4611 27.4271 29.3163C29.0695 30.2935 31.0343 29.6827 32.6768 29.0414C33.1822 30.2804 31.897 30.9741 31.0039 31.489C28.9084 32.5056 26.3511 32.6146 24.1858 31.7683C22.3343 31.0746 21.4412 29.046 21.3452 27.1872C21.1231 22.9028 21.3452 18.61 21.3801 14.3213H18.6571C18.6527 14.0333 18.6484 13.7497 18.644 13.4661C21.6023 12.3492 23.5974 9.79697 25.044 7.09204L25.044 7.09155Z" fill="#8C1515"/>
<path d="M43.6986 11.011C40.5577 10.9787 37.39 12.541 36.3809 15.6994C36.6554 15.8565 37.213 16.1661 37.4918 16.3232C38.6986 14.1898 41.5173 13.0948 43.739 14.3252C45.4816 15.1192 45.63 17.2524 45.5952 18.9236C42.8548 19.8049 40.0185 20.4987 37.4308 21.7902C34.3289 23.4307 33.9281 28.0813 36.15 30.5987C38.7684 33.0026 43.138 32.6142 45.7258 30.3411C46.5143 31.903 48.3789 32.5008 50.0038 32.0427C51.4197 31.7678 52.3562 30.5856 53.2842 29.5864C53.123 29.4031 52.7966 29.0322 52.6354 28.8446C52.0516 28.9929 51.3936 29.4554 50.8229 29.006C50.0822 28.4955 50.1736 27.4703 50.1213 26.6806C50.1736 23.2951 50.3609 19.901 50.1823 16.5111C50.0952 14.7573 49.3111 12.9639 47.7601 12.0433C46.5484 11.3698 45.1264 11.0257 43.6986 11.011ZM45.5469 21.5674C45.5643 23.8492 45.5471 26.1308 45.5646 28.4126C44.1051 29.0627 42.3711 29.6648 40.8332 28.9187C38.9512 27.9153 39.0298 24.9138 40.5851 23.653C42.0794 22.6233 43.8521 22.1389 45.5469 21.5674Z" fill="#8C1515"/>
<path d="M103.743 11.0968C101.447 11.123 99.0766 11.6945 97.2815 13.191C94.6108 15.355 93.4523 18.9325 93.5699 22.2917C93.5568 25.1668 94.4499 28.234 96.711 30.1451C99.3817 32.4749 103.263 32.706 106.587 32.0123C110.094 31.24 112.73 28.1643 113.475 24.7176C114.277 21.1402 113.941 16.9825 111.484 14.0944C109.593 11.8781 106.566 11.0401 103.743 11.0968ZM103.773 13.5386C105.007 13.5627 106.228 14.0701 107.019 15.0539C108.452 16.8122 108.835 19.1769 108.94 21.3843C108.957 23.7883 108.652 26.3839 107.141 28.3471C105.655 30.2711 102.453 30.4849 100.741 28.7529C99.4297 27.5357 98.9416 25.7253 98.6453 24.0237C98.336 21.7637 98.4146 19.412 99.1247 17.2349C99.6214 15.7777 100.588 14.3031 102.122 13.8057C102.649 13.6162 103.212 13.5274 103.773 13.5383L103.773 13.5386Z" fill="#8C1515"/>
<path d="M54.9225 12.4841C57.358 12.4448 59.8282 12.1918 62.0761 11.1839C62.1545 11.7642 62.2155 12.3445 62.2634 12.9334C64.8469 11.2407 68.184 10.5819 71.1422 11.629C73.2595 12.3401 74.7408 14.4169 74.9281 16.6157C75.3637 20.7997 74.732 25.0404 75.2897 29.2157C75.3507 30.5289 76.7622 30.8256 77.7861 31.0394C77.7905 31.2837 77.7905 31.7724 77.7948 32.0167C74.3357 31.7418 67.4087 32.0036 67.4087 32.0036L67.3956 31.0143C67.3956 31.0143 69.8942 30.3108 70.0531 29.5909C70.6238 26.4846 70.4887 23.2735 70.4582 20.1192C70.345 18.2345 70.3929 15.8785 68.5936 14.7311C66.6637 13.6185 64.298 14.1333 62.3246 14.8532C62.3377 18.9368 62.3246 23.0247 62.3246 27.1085C62.3812 28.1993 62.3028 29.4427 63.0129 30.35C63.6098 30.7645 64.3591 30.8387 65.0431 31.0306C65.0475 31.275 65.0518 31.7679 65.0518 32.0166C61.6405 31.7941 58.2207 31.6502 54.8137 32.0123C54.8137 31.7679 54.8225 31.2837 54.8225 31.0437C55.8593 30.8038 57.2273 30.4765 57.4232 29.22C57.8981 26.2098 57.5322 23.1339 57.6454 20.0973C57.6019 18.3653 57.7936 16.6114 57.4886 14.9011C57.249 13.7318 55.8244 13.7973 54.9268 13.566C54.9268 13.2955 54.9225 12.7546 54.9225 12.4841Z" fill="#8C1515"/>
<path d="M115.801 12.3923C118.24 12.3574 120.68 12.0258 122.998 11.2449L123.063 13.0424C125.407 11.1533 128.94 10.6733 131.436 12.545L128.833 16.5236C127.618 14.6476 125.152 14.1938 123.205 15.1493C123.205 15.1493 123.192 23.4082 123.218 27.5354C123.318 28.456 123.174 29.6514 124.037 30.2534C124.869 30.742 125.88 30.7159 126.808 30.8642C126.808 31.1478 126.803 31.7237 126.803 32.0072C123.061 31.7542 119.31 31.7018 115.568 31.9985L115.567 30.8642C116.773 30.6582 118.029 30.2403 118.212 29.5204C118.73 27.7447 118.478 25.8643 118.53 24.0362C118.478 21.1261 118.635 18.2117 118.46 15.3062C118.447 13.8926 116.848 13.7661 115.812 13.561C115.813 13.1604 115.805 12.7489 115.803 12.3918L115.801 12.3923Z" fill="#8C1515"/>
</g>
<defs>
<clipPath id="clip0_27_248">
<rect width="154.255" height="32.37" fill="white"/>
</clipPath>
</defs>
</svg>
