<svg width="74" height="33" viewBox="0 0 74 33" fill="none" xmlns="http://www.w3.org/2000/svg">
<g clip-path="url(#clip0_27_274)">
<path fill-rule="evenodd" clip-rule="evenodd" d="M42.2036 8.75495C42.3099 8.64823 42.381 8.57748 42.4166 8.50633L43.198 5.52291C43.3399 4.9901 43.5886 4.42172 43.5886 3.81776C43.5886 3.64067 43.4466 3.49838 43.3047 3.3561C41.6004 2.46834 40.6059 2.36201 39.0778 2.32605C35.1355 2.2549 32.3296 5.02528 32.2944 8.00871C32.2232 11.5961 35.1711 13.7625 36.6632 16.3554C37.2316 17.3139 37.5865 18.2732 37.5509 19.4096C37.5509 20.5815 36.6632 23.6361 33.5727 23.565C32.0102 23.5294 30.5185 22.4638 30.554 19.8001V17.8823C30.5185 17.7048 30.5185 17.5274 30.377 17.3855C30.305 17.2787 30.0924 17.2076 29.9505 17.2787C29.6667 17.421 29.5951 17.7404 29.4888 18.025C29.311 18.8416 29.1331 19.6942 28.9564 20.5108C28.9208 20.5823 29.0271 20.5823 28.9564 20.5823C28.8493 21.1863 28.7426 21.8254 28.707 22.429C28.6714 22.7843 28.9208 23.1037 29.2394 23.3171C30.5821 24.0067 32.0636 24.3832 33.5727 24.4183C37.5861 24.4895 40.8541 20.9728 40.9249 17.5281C40.9249 17.1017 40.8893 16.7111 40.8537 16.3562C40.4988 14.2605 39.1486 12.8751 37.728 11.1348C36.8755 10.0336 35.1351 8.5419 35.2067 6.58853C35.2067 4.9901 36.5205 3.25015 38.9004 3.25015C42.0617 3.32091 41.5648 6.73043 41.6 8.2581C41.6 8.43557 41.6 8.57786 41.7419 8.64862C41.8842 8.79052 42.0617 8.82609 42.2036 8.75495Z" fill="#5565A6"/>
<path fill-rule="evenodd" clip-rule="evenodd" d="M57.2982 17.9894C56.9077 17.9894 56.7658 18.5933 56.3753 19.3032C55.5938 20.5108 54.3507 22.1092 53.7464 22.1092C53.5334 22.1092 53.5334 21.8606 53.5334 21.6475C53.5334 20.9728 54.2085 18.7712 54.9895 16.3913C56.0907 13.017 57.4053 9.3233 57.4053 9.14544C57.4053 8.89682 57.3697 8.75492 57.0148 8.75492C56.7302 8.75492 56.3397 8.71935 55.7709 8.71935C54.7053 8.71935 54.6346 8.86125 54.5634 9.07429C54.0302 10.0332 53.2847 13.1945 51.7571 15.9293C51.6859 16.0712 51.5796 16.2131 51.5084 16.3558C49.4839 19.7301 46.8914 22.3578 45.7547 22.3578C45.3286 22.3578 45.0796 22.038 45.0796 21.5764C45.0796 20.8309 45.8965 18.6645 46.7847 16.3558C47.8147 13.6917 48.9167 10.8502 48.9167 9.74939C48.9167 9.28773 48.6673 8.32882 47.5309 8.32882C44.4416 8.32882 41.8483 13.3368 41.8483 13.9052C41.8483 14.0826 41.9546 14.2249 42.1677 14.2249C42.5582 14.2249 42.8072 13.4079 43.802 12.0581C44.37 11.2055 45.1159 10.5308 45.4708 10.5308C45.7547 10.5308 45.7902 10.7439 45.7902 10.9217C45.7902 11.419 44.7957 13.7984 43.8372 16.3562C42.9847 18.6293 42.2028 21.0439 42.2028 22.4649C42.2028 23.3886 42.5578 24.2768 43.7305 24.2768C46.5361 24.2768 49.5543 20.7605 51.6855 17.5992C51.7919 17.4929 51.8638 17.4929 51.8274 17.6704C51.3662 18.9491 50.7618 21.4349 50.7618 22.9625C50.7618 23.6017 50.8689 24.3479 51.8982 24.3479C54.3496 24.3479 57.5816 19.4819 57.5816 18.3455C57.5828 18.1672 57.512 17.9894 57.2982 17.9894ZM73.3525 18.2384C73.319 18.1732 73.2679 18.1188 73.205 18.0811C73.1422 18.0435 73.07 18.0241 72.9968 18.0253C72.8904 18.0253 72.7837 18.1317 72.7482 18.2384C72.0731 19.4103 70.6169 21.9681 69.6224 22.0384C69.445 22.0384 69.3386 21.861 69.3386 21.6831C69.3386 21.0795 70.2975 18.7712 71.2213 16.3562C72.0731 14.1542 72.8901 11.8451 72.8901 10.6375C72.8901 8.96796 71.9663 8.3644 70.8655 8.3644C67.7762 8.3644 64.5085 13.266 63.4074 14.8996C63.3354 15.0415 63.301 15.006 63.3354 14.8641C63.8686 12.9107 64.5082 11.1703 64.5082 9.85611C64.5082 9.07468 64.1524 8.25768 63.1224 8.25768C60.9564 8.25768 57.8306 12.5198 57.8306 13.5854C57.8306 13.7984 57.9018 13.9403 58.0437 13.9403C58.4342 13.9403 58.7544 13.2301 59.3223 12.4486C60.033 11.5609 60.9212 10.4241 61.4892 10.4241C61.5603 10.4241 61.6666 10.4952 61.6666 10.8146C61.6666 11.4897 60.9567 13.798 60.1042 16.3558C59.2872 18.842 58.3634 21.5764 57.7954 23.3882C57.6535 23.8143 57.9374 23.921 59.1449 23.921C59.9974 23.921 60.388 24.0274 60.5654 23.3527C61.1694 21.1151 62.3062 18.5933 63.5848 16.3558C63.6912 16.1068 63.8334 15.8941 63.9753 15.6455C65.2892 13.3368 68.06 10.0336 69.6224 10.0336C69.9782 10.0336 70.1912 10.3178 70.1912 10.8506C70.1912 11.632 69.1967 13.9052 68.2019 16.3562C67.2074 18.8068 66.1773 21.4349 66.2481 22.891C66.2837 23.7076 66.5675 24.312 67.6331 24.312C70.0489 24.312 72.1438 20.9728 73.1383 19.1973C73.3173 18.9131 73.5655 18.5937 73.3525 18.2384ZM3.91594 15.255C3.02818 16.1783 1.53608 16.1783 0.61275 15.255C-0.20425 14.3312 -0.20425 12.8395 0.61275 11.9518L6.04718 6.51735L7.46775 7.97388L2.03332 13.4435L2.42423 13.834L7.89384 8.3644L9.35037 9.82092L3.91594 15.255ZM8.14285 11.8806C9.06618 10.9573 10.5223 10.9573 11.4456 11.8806C12.3694 12.804 12.3694 14.2961 11.4456 15.1838L6.04718 20.6179L4.59104 19.1617L10.0251 13.6921L9.63456 13.3012L4.16494 18.7356L2.74438 17.3147L8.14285 11.8806ZM15.1749 23.1392C16.0986 24.0274 16.0986 25.5191 15.1749 26.4068C14.2516 27.295 12.7599 27.295 11.8721 26.4068L6.43809 21.008L7.89423 19.5522L13.3638 25.0218L13.7544 24.5954L8.28475 19.1613L9.74089 17.7048L15.1749 23.1392ZM11.801 18.9131C10.8773 17.9894 10.8773 16.4981 11.801 15.6099C12.7243 14.6866 14.1805 14.6866 15.1038 15.6099L20.5382 21.0084L19.0821 22.4649L13.6125 16.9953L13.2219 17.4218L18.656 22.8558L17.235 24.3123L11.801 18.9131ZM18.8331 15.255C17.9097 16.1783 16.4184 16.1783 15.5299 15.255C14.6062 14.3312 14.6062 12.8395 15.5299 11.9518L20.9283 6.51735L22.3849 7.97388L16.9153 13.4435L17.3417 13.834L22.8114 8.3644L24.2319 9.82092L18.8331 15.255ZM23.0604 11.8806C23.9477 10.9573 25.4394 10.9573 26.3632 11.8806C27.2869 12.804 27.2869 14.2605 26.3632 15.1838L20.9287 20.6179L19.4726 19.1617L24.9422 13.6921L24.5521 13.3012L19.0821 18.7356L17.6255 17.3147L23.0604 11.8806ZM15.1749 8.22211C16.0986 9.14544 16.0986 10.6016 15.1749 11.5253C14.2516 12.4486 12.7599 12.4486 11.8721 11.5253L6.4377 6.12644L7.89384 4.6703L13.3635 10.1043L13.754 9.71343L8.28475 4.24459L9.74089 2.78807L15.1749 8.22211ZM11.801 3.99598C10.8773 3.10783 10.8773 1.61612 11.801 0.692788C12.7243 -0.230929 14.1805 -0.230929 15.1038 0.692788L20.5382 6.12683L19.0821 7.54739L13.6125 2.11336L13.2219 2.50388L18.656 7.97349L17.235 9.42963L11.801 3.99598ZM34.2478 30.6337V28.5381C34.2478 28.0764 34.1063 27.7922 33.6794 27.7922C33.1822 27.7922 32.7205 28.2895 32.7205 29.0709V30.6337H32.1166V28.5381C32.1166 28.1116 32.0454 27.7922 31.5838 27.7922C31.051 27.7922 30.6249 28.325 30.6249 29.0709V30.6337H30.0209V27.3661H30.6249C30.6249 27.544 30.5893 27.8278 30.5537 28.0408C30.7668 27.5792 31.1936 27.295 31.7612 27.295C32.4715 27.295 32.6498 27.7567 32.6846 28.0408C32.8269 27.7215 33.1818 27.295 33.8213 27.295C34.4605 27.295 34.8518 27.6148 34.8518 28.3606V30.6337H34.2478ZM39.4336 30.6693C38.6522 30.6693 37.9767 30.314 37.9767 29.1065C37.9767 28.0408 38.5455 27.295 39.6463 27.295C39.8949 27.295 40.1787 27.3306 40.3918 27.4013L40.3206 27.9341C40.1076 27.863 39.8593 27.7922 39.6107 27.7922C38.9712 27.7922 38.6162 28.2895 38.6162 29.0353C38.6162 29.6745 38.8649 30.1717 39.5751 30.1717C39.8589 30.1717 40.1431 30.1006 40.3562 29.9942L40.4273 30.527C40.1041 30.6195 39.7698 30.6674 39.4336 30.6693ZM43.0206 27.8634C42.2752 27.757 41.955 28.2543 41.955 29.3199V30.6337H41.351V27.3661H41.9198C41.9198 27.544 41.9198 27.8634 41.8487 28.1476H41.8842C42.0261 27.6863 42.3455 27.2242 43.0206 27.2954V27.8634ZM45.2226 27.295C44.1926 27.295 43.553 28.0408 43.553 28.9998V29.0353C43.553 30.1717 44.157 30.7045 45.0799 30.7045C46.0388 30.7045 46.7143 29.9587 46.7495 28.9998V28.9286C46.7499 27.757 46.0748 27.295 45.2226 27.295ZM45.1519 30.2077C44.5479 30.2077 44.193 29.7464 44.193 29.0001V28.9646C44.193 28.1476 44.6542 27.7926 45.1519 27.7926C45.7906 27.7926 46.1108 28.2191 46.1108 28.9646V29.0001C46.1108 29.8171 45.6487 30.2077 45.1519 30.2077ZM48.3124 30.7049C48.0638 30.7049 47.8155 30.6693 47.6025 30.6337L47.638 30.1009C47.8511 30.1721 48.0993 30.2073 48.3835 30.2073C48.8104 30.2073 49.1298 30.0298 49.1298 29.71C49.1298 28.9998 47.5673 29.4262 47.5673 28.2895C47.5673 27.7211 48.0286 27.295 48.9175 27.295C49.0942 27.295 49.3428 27.3306 49.5555 27.3661V27.8634C49.3259 27.7907 49.0863 27.7548 48.8456 27.757C48.4187 27.757 48.1712 27.9345 48.1712 28.2187C48.1712 28.929 49.7693 28.5381 49.7693 29.6393C49.7689 30.2428 49.2357 30.7049 48.3124 30.7049ZM51.9713 30.9531C51.58 31.9832 51.2606 32.3029 50.5144 32.3029C50.3732 32.3029 50.195 32.3029 50.0531 32.2674L50.1242 31.7346C50.2661 31.7701 50.408 31.8057 50.5503 31.8057C50.9416 31.8057 51.1199 31.6282 51.3673 30.9891L51.5092 30.6337L50.2306 27.3661H50.9412L51.58 29.0709C51.6863 29.3551 51.7575 29.6037 51.8286 29.8523C51.8997 29.6393 52.0424 29.2132 52.1843 28.8582L52.7167 27.3665H53.3918L51.9713 30.9531ZM54.6346 30.7049C54.3859 30.7049 54.1377 30.6693 53.9239 30.6337L53.9595 30.1009C54.1377 30.1721 54.4215 30.2073 54.6701 30.2073C55.1314 30.2073 55.4515 30.0298 55.4515 29.71C55.4515 28.9998 53.8527 29.4262 53.8527 28.2895C53.8527 27.7211 54.3504 27.295 55.2385 27.295C55.416 27.295 55.6646 27.3306 55.8773 27.3661L55.8417 27.8634C55.6244 27.7907 55.3965 27.7548 55.1674 27.757C54.7405 27.757 54.4923 27.9345 54.4923 28.2187C54.4923 28.929 56.0903 28.5381 56.0903 29.6393C56.0907 30.2428 55.5227 30.7049 54.6346 30.7049ZM58.1152 30.7049C57.4409 30.7049 57.2271 30.4211 57.2271 29.7104V27.8282H56.5172V27.3665H57.2271V26.3009L57.831 26.1234V27.3665H58.7899V27.8282H57.831V29.4974C57.831 30.0302 57.9374 30.1721 58.3279 30.1721C58.4705 30.1721 58.648 30.1365 58.7899 30.1365V30.6337C58.5777 30.6693 58.3283 30.7049 58.1152 30.7049ZM62.3065 28.68C62.3065 28.4669 62.271 28.2895 62.2354 28.1116C62.0579 27.6503 61.6666 27.295 60.9567 27.295C60.3172 27.295 59.8911 27.6148 59.6421 28.1116C59.5255 28.3932 59.4652 28.695 59.4646 28.9998C59.4646 30.1717 60.0334 30.7045 61.0635 30.7045C61.4895 30.7045 61.8797 30.6334 62.1998 30.4915L62.1279 29.9942C61.8793 30.1361 61.4892 30.2073 61.1694 30.2073C60.4232 30.2073 60.0682 29.8519 60.1038 28.9642H62.3058C62.3065 28.8578 62.3065 28.7511 62.3065 28.68ZM60.1045 28.5381C60.1401 28.3962 60.1757 28.2543 60.2465 28.1116C60.3884 27.863 60.637 27.7211 60.9571 27.7211C61.2765 27.7211 61.4895 27.863 61.6314 28.1116C61.667 28.2539 61.7026 28.3958 61.7026 28.5381H60.1045ZM67.456 30.6337V28.5381C67.456 28.0764 67.3497 27.7922 66.888 27.7922C66.426 27.7922 65.9643 28.2895 65.9643 29.0709V30.6337H65.3248V28.5381C65.3248 28.1116 65.2536 27.7922 64.7924 27.7922C64.2592 27.7922 63.8334 28.325 63.8334 29.0709V30.6337H63.2295V27.3661H63.8334C63.8334 27.544 63.7979 27.8278 63.7623 28.0408H63.7979C63.9753 27.5792 64.4014 27.295 64.9698 27.295C65.6805 27.295 65.858 27.7567 65.8935 28.0408C66.0354 27.7215 66.3904 27.295 67.0655 27.295C67.705 27.295 68.06 27.6148 68.06 28.3606V30.6337H67.456ZM69.7292 30.7049C69.4805 30.7049 69.2323 30.6693 69.0192 30.6337L69.0548 30.1009C69.2679 30.1721 69.5161 30.2073 69.8003 30.2073C70.2272 30.2073 70.5465 30.0298 70.5465 29.71C70.5465 28.9998 68.9833 29.4262 68.9833 28.2895C68.9833 27.7211 69.4453 27.295 70.3343 27.295C70.511 27.295 70.7596 27.3306 70.9722 27.3661V27.8634C70.7427 27.7907 70.5031 27.7548 70.2624 27.757C69.8355 27.757 69.5872 27.9345 69.5872 28.2187C69.5872 28.929 71.1861 28.5381 71.1861 29.6393C71.1861 30.2428 70.6529 30.7049 69.7292 30.7049ZM36.5561 26.7978C36.8048 26.7978 36.9822 26.6203 36.9822 26.4068C36.9822 26.1938 36.8048 26.0519 36.5561 26.0519C36.3435 26.0519 36.1656 26.1938 36.1656 26.4068C36.1656 26.6558 36.3439 26.7978 36.5561 26.7978ZM35.7751 27.3306V27.7926H36.2723V30.6337H36.8759V27.3661L35.7751 27.3306Z" fill="#5565A6"/>
</g>
<defs>
<clipPath id="clip0_27_274">
<rect width="73.4246" height="32.37" fill="white"/>
</clipPath>
</defs>
</svg>
