<svg width="95" height="33" viewBox="0 0 95 33" fill="none" xmlns="http://www.w3.org/2000/svg">
<g clip-path="url(#clip0_27_258)">
<path d="M37.9836 24.0952C36.0528 24.0952 34.8039 23.37 34.2407 22.9274L34.2002 22.8869L34.2407 22.8068L35.046 21.5193L35.0865 21.4393L35.1665 21.4798C35.6497 21.8424 36.6151 22.4056 37.992 22.4056C39.1599 22.4056 39.8032 21.8819 39.8032 21.0371C39.8032 20.0708 39.0384 19.7891 37.5899 19.306L37.4298 19.2655C36.0208 18.7823 34.6928 18.0581 34.6928 16.1263C34.6928 14.3952 36.0114 13.2688 38.1135 13.2688C39.321 13.2688 40.2873 13.5099 41.0916 13.994L41.1717 14.0345L41.1312 14.1146L40.487 15.4331L40.4465 15.5132L40.3664 15.4727C39.6826 15.1101 38.9179 14.949 38.1126 14.949C37.3874 14.949 36.5115 15.1506 36.5115 16.1169C36.5115 17.0427 37.1952 17.2848 38.5647 17.718C40.0528 18.2012 41.6727 18.9255 41.6727 21.0588C41.7132 22.95 40.3043 24.0773 37.9996 24.0773L37.9836 24.0952ZM43.1354 26.7107C42.7728 26.7107 42.4516 26.6702 42.0485 26.5902H41.9685V26.5101L42.17 25.2622V25.1821H42.3716C42.5731 25.2226 42.7342 25.2226 42.9348 25.2226C43.66 25.2226 44.1027 24.9401 44.4229 24.3373L41.6859 16.2375H43.7391V16.278L45.2998 21.929L46.7088 16.294V16.2139H48.6395L48.5595 16.374L46.1446 24.2629C45.6614 25.9535 44.6961 26.7183 43.126 26.7183L43.1354 26.7107ZM59.6364 23.9728H57.7057V18.8209C57.7057 18.1767 57.5851 17.7341 56.9409 17.7341C56.4982 17.7341 55.9746 18.0166 55.4528 18.4988V23.9728H53.522V18.8209C53.522 18.1767 53.4015 17.7341 52.7572 17.7341C52.2741 17.7341 51.7514 18.0166 51.2691 18.5393V23.9737H49.2913V16.246H50.4987V16.2865L50.8208 17.3225C51.6261 16.4776 52.422 16.035 53.3167 16.035C54.4036 16.035 54.8462 16.6378 55.1279 17.2029C55.6515 16.6396 56.4964 16.035 57.5427 16.035C59.2738 16.035 59.6355 17.5231 59.6355 18.772V23.8428L59.6364 23.9728ZM62.9771 24.0952C61.5682 24.0952 60.5623 23.1694 60.5623 21.8819C60.5623 21.0371 60.8448 20.4334 61.4881 20.0303C62.1323 19.5876 63.1787 19.2655 64.8288 19.0244V18.8228C64.8288 17.978 64.5067 17.6549 63.7014 17.6549C62.9762 17.6549 62.2924 17.9375 61.6087 18.2577L61.5286 18.2982L61.4881 18.2182L60.8448 16.9702L60.9249 16.9297C61.8912 16.327 62.8161 16.0444 63.8634 16.0444C65.7546 16.0444 66.7615 17.0107 66.7615 18.9019V23.9728H65.554L65.5135 23.9323L65.1914 23.1675C64.7487 23.6102 63.984 24.0934 62.9781 24.0934L62.9771 24.0952ZM64.8288 20.3119C63.5809 20.553 62.9376 20.795 62.6955 21.1171C62.5354 21.3187 62.494 21.4393 62.494 21.7614C62.494 22.3246 62.8161 22.6467 63.3793 22.6467C63.8625 22.6467 64.3852 22.4451 64.8279 22.0835L64.8288 20.3119ZM74.7304 23.9728H72.7996V18.8209C72.7996 18.0562 72.517 17.7341 71.9143 17.7341C71.3906 17.7341 70.7869 18.0562 70.3442 18.5393V23.9737H68.4134V16.246H69.6209V16.2865L69.943 17.3225C70.7483 16.4776 71.5931 16.035 72.5189 16.035C73.9675 16.035 74.7322 16.9608 74.7322 18.772V23.8428L74.7304 23.9728ZM78.7953 24.0952C77.2658 24.0952 76.5415 23.3305 76.5415 21.8009V17.6531H75.4141V16.2441H76.582L76.9446 14.1513V14.0712H78.5147V16.245H80.1158V17.654H78.5147V21.719C78.5147 22.3632 78.6352 22.6043 79.2794 22.6043C79.5551 22.5981 79.8276 22.5439 80.0847 22.4442L80.1648 22.4037V22.4838L80.4059 23.7317V23.8117L80.3258 23.8522C80.0847 23.8927 79.5205 24.0934 78.7963 24.0934L78.7953 24.0952ZM84.1487 24.0952C81.975 24.0952 80.647 22.5657 80.647 20.1508C80.647 17.6954 81.9656 16.0858 84.0376 16.0858C86.1096 16.0858 87.2964 17.5739 87.2964 20.1508V20.6745H82.6682C82.7887 21.9224 83.271 22.4856 84.2693 22.4856C85.1141 22.4856 85.6378 22.1635 86.2415 21.8019L86.3216 21.7614L86.3621 21.8414L87.0873 22.9688L87.1278 23.0489L87.0873 23.0894C86.3225 23.6526 85.5992 24.0952 84.1487 24.0952ZM82.6606 19.4265H85.2771C85.2366 18.139 84.8344 17.5353 83.9896 17.5353C83.2248 17.5353 82.7821 18.1795 82.671 19.4265H82.6606ZM91.5535 24.0952C88.9776 24.0952 88.0922 22.042 88.0922 20.1508C88.0922 18.2596 89.0181 16.0858 91.5535 16.0858C92.5895 16.0858 93.3646 16.327 94.0494 16.9307L94.0899 16.9712L94.0494 17.0117L93.2441 18.1795L93.2036 18.2596L93.1235 18.2191C92.6809 17.897 92.2787 17.6954 91.594 17.6954C90.5881 17.6954 90.1059 18.5007 90.1059 20.1508C90.1059 21.7209 90.6295 22.5243 91.6354 22.5243C92.3192 22.5243 92.7628 22.2831 93.2055 21.88L93.2855 21.8395L93.326 21.9196L94.1709 23.0065L94.2114 23.047L94.1709 23.0875C93.4456 23.7712 92.6413 24.0934 91.5544 24.0934L91.5535 24.0952Z" fill="#231F20"/>
<path d="M14.0494 32.2657C6.37619 32.2657 0.157227 26.0458 0.157227 18.3736C0.157227 10.7014 6.37713 4.48145 14.0494 4.48145C21.7216 4.48145 27.9415 10.7014 27.9415 18.3736C27.9415 26.0458 21.6632 32.2657 14.0494 32.2657ZM14.0494 8.83934C11.4913 8.83934 9.10847 9.82827 7.36418 11.63C5.56244 13.4317 4.57351 15.8155 4.57351 18.3736C4.57351 20.9316 5.56244 23.3145 7.36418 25.1171C9.16592 26.9198 11.5497 27.9078 14.0494 27.9078C16.6074 27.9078 18.9902 26.9189 20.7929 25.1171C21.6821 24.2343 22.3867 23.1835 22.8658 22.0257C23.3449 20.868 23.5889 19.6265 23.5836 18.3736C23.5836 15.8155 22.5947 13.4327 20.7929 11.63C18.9328 9.82827 16.549 8.83934 14.0494 8.83934ZM29.163 2.32935H30.2678V3.43413H29.163V2.32935ZM29.163 0.177246H30.2678V1.28202H29.163V0.177246ZM26.0832 3.37479H27.0722V4.41081H26.0832V3.37479Z" fill="#FFB71B"/>
<path d="M24.1063 5.46756H25.1424V6.45649H24.1063V5.46756ZM27.1202 4.47863H28.2824V5.51465H27.1202V4.47863ZM23.1099 4.47957H24.0988V5.4685H23.1099V4.47957ZM26.0729 5.4685H27.0618V6.45743H26.0729V5.4685ZM28.0602 1.22363H29.0962V2.25966H28.0602V1.22363ZM26.0823 2.32935H28.0583V3.43413H26.0823V2.32935Z" fill="#231F20"/>
<path d="M25.1442 3.37476H26.1331V5.46752H25.1442V3.37476ZM25.1442 6.45457V7.49059H24.1082V6.45457H22.4129V7.20992H21.4823V8.14046H22.4713V9.12939H21.4823V8.14046H20.4463V9.70957H19.4103V10.6985H18.7133V11.7345H17.958C17.1442 12.9551 15.0515 16.8487 14.412 18.4197C12.1449 15.2221 10.3432 13.993 8.9474 13.5372C8.19205 13.3046 7.2521 14.1183 8.54053 15.3973C11.3887 18.5365 12.3192 21.1425 13.1913 23.2447C13.6566 24.3495 15.691 24.5237 16.1562 23.419C17.0284 21.0361 18.3074 18.3613 19.8181 16.2111V15.1063H20.6319V14.0703H21.504V12.9081H22.4929V11.7458H21.4569V10.7098H22.4929V11.7458H23.4819V10.7098H24.354V9.47787H25.2845V8.66412H26.0983V6.51296H25.1678L25.1442 6.45457Z" fill="#231F20"/>
</g>
<defs>
<clipPath id="clip0_27_258">
<rect width="94.3668" height="32.37" fill="white"/>
</clipPath>
</defs>
</svg>
