<svg width="149" height="149" viewBox="0 0 149 149" fill="none" xmlns="http://www.w3.org/2000/svg">
<g filter="url(#filter0_d_94_2900)">
<circle cx="74.5" cy="65.5" r="54.5" fill="white"/>
</g>
<circle cx="74.5" cy="65.5" r="45" fill="white" stroke="#E8E8E8"/>
<g clip-path="url(#clip0_94_2900)">
<path d="M74 88.7273C86.5523 88.7273 96.7273 78.5522 96.7273 66C96.7273 53.4477 86.5523 43.2727 74 43.2727C61.4477 43.2727 51.2727 53.4477 51.2727 66C51.2727 78.5522 61.4477 88.7273 74 88.7273Z" stroke="#277FD0" stroke-width="4"/>
<path d="M53.5454 73.9387C56.5363 75.1375 58.6898 75.1375 60.0045 73.9387C61.9773 72.1387 60.275 66.6796 63.0386 65.1739C65.8 63.6682 70.0102 70.3421 73.9443 68.1466C77.8784 65.95 73.5739 60.0932 76.3034 57.7194C79.0341 55.3444 82.5841 58.0228 83.2045 54.0523C83.825 50.083 80.3091 51.8046 79.6341 48.0523C79.1852 45.5523 79.1852 44.2375 79.6341 44.1091M79.7045 87.9887C77.5761 85.8091 76.8091 83.7841 77.4057 81.9114C78.3 79.1023 79.7761 79.2682 80.4193 77.5319C81.0625 75.7955 79.2454 73.3216 83.2773 71.208C85.9659 69.7989 89.6625 71.4307 94.367 76.1069" stroke="#277FD0" stroke-width="4" stroke-linecap="round"/>
</g>
<defs>
<filter id="filter0_d_94_2900" x="0" y="0" width="149" height="149" filterUnits="userSpaceOnUse" color-interpolation-filters="sRGB">
<feFlood flood-opacity="0" result="BackgroundImageFix"/>
<feColorMatrix in="SourceAlpha" type="matrix" values="0 0 0 0 0 0 0 0 0 0 0 0 0 0 0 0 0 0 127 0" result="hardAlpha"/>
<feOffset dy="9"/>
<feGaussianBlur stdDeviation="10"/>
<feComposite in2="hardAlpha" operator="out"/>
<feColorMatrix type="matrix" values="0 0 0 0 0.153125 0 0 0 0 0.498167 0 0 0 0 0.816667 0 0 0 0.07 0"/>
<feBlend mode="normal" in2="BackgroundImageFix" result="effect1_dropShadow_94_2900"/>
<feBlend mode="normal" in="SourceGraphic" in2="effect1_dropShadow_94_2900" result="shape"/>
</filter>
<clipPath id="clip0_94_2900">
<rect width="50" height="50" fill="white" transform="translate(49 41)"/>
</clipPath>
</defs>
</svg>
