<svg width="197" height="148" viewBox="0 0 197 148" fill="none" xmlns="http://www.w3.org/2000/svg">
<g clip-path="url(#clip0_47_69)">
<path d="M54.6584 2.90469C55.9466 1.93886 57.4126 1.23613 58.9725 0.836629C60.5324 0.437127 62.1557 0.348673 63.7498 0.576322C65.3439 0.803971 66.8776 1.34326 68.2632 2.16341C69.6488 2.98355 70.8592 4.06848 71.8254 5.35626C72.7916 6.64403 73.4946 8.10944 73.8942 9.66879C74.2939 11.2282 74.3823 12.8509 74.1546 14.4445C73.9269 16.038 73.3874 17.5711 72.567 18.9562C71.7465 20.3414 70.6612 21.5514 69.373 22.5172C50.195 36.8956 39.2081 50.8818 32.9176 63.0906C41.5547 60.8681 50.6699 61.3906 58.9963 64.5855C67.3226 67.7804 74.4464 73.4891 79.3775 80.9179C84.3086 88.3468 86.802 97.1268 86.5112 106.038C86.2203 114.948 83.1597 123.547 77.7547 130.639C72.3496 137.731 64.8687 142.963 56.3518 145.609C47.8348 148.254 38.7049 148.182 30.2312 145.401C21.7574 142.62 14.3606 137.27 9.06909 130.093C3.77754 122.916 0.854056 114.27 0.704992 105.356C-0.866251 90.3021 1.27237 75.0929 6.93416 61.0558C14.2547 42.5955 28.5646 22.4682 54.6584 2.90469ZM165.018 2.90469C166.306 1.93886 167.772 1.23613 169.332 0.836629C170.892 0.437127 172.515 0.348673 174.109 0.576322C175.703 0.803971 177.237 1.34326 178.622 2.16341C180.008 2.98355 181.219 4.06848 182.185 5.35626C183.151 6.64403 183.854 8.10944 184.253 9.66879C184.653 11.2282 184.742 12.8509 184.514 14.4445C184.286 16.038 183.747 17.5711 182.926 18.9562C182.106 20.3414 181.021 21.5514 179.732 22.5172C160.554 36.8956 149.567 50.8818 143.277 63.0906C151.914 60.8681 161.029 61.3906 169.356 64.5855C177.682 67.7804 184.806 73.4891 189.737 80.9179C194.668 88.3468 197.161 97.1268 196.87 106.038C196.58 114.948 193.519 123.547 188.114 130.639C182.709 137.731 175.228 142.963 166.711 145.609C158.194 148.254 149.064 148.182 140.59 145.401C132.117 142.62 124.72 137.27 119.428 130.093C114.137 122.916 111.213 114.27 111.064 105.356C109.493 90.3021 111.632 75.0929 117.293 61.0558C124.626 42.5955 138.924 22.4682 165.018 2.90469Z" fill="#CAE4FF"/>
</g>
<defs>
<clipPath id="clip0_47_69">
<rect width="197" height="148" fill="white"/>
</clipPath>
</defs>
</svg>
