<svg width="149" height="149" viewBox="0 0 149 149" fill="none" xmlns="http://www.w3.org/2000/svg">
<g filter="url(#filter0_d_94_2895)">
<circle cx="74.5" cy="65.5" r="54.5" fill="white"/>
</g>
<circle cx="74.5" cy="65.5" r="45" fill="white" stroke="#E8E8E8"/>
<g clip-path="url(#clip0_94_2895)">
<path d="M49.5455 43.5V41C48.8704 41 48.2229 41.2634 47.7455 41.7322C47.2682 42.2011 47 42.837 47 43.5H49.5455ZM77.5455 43.5H80.0909C80.0909 42.837 79.8227 42.2011 79.3454 41.7322C78.868 41.2634 78.2206 41 77.5455 41V43.5ZM77.5455 58.5V56C76.8704 56 76.2229 56.2634 75.7455 56.7322C75.2682 57.2011 75 57.837 75 58.5H77.5455ZM49.5455 46H77.5455V41H49.5455V46ZM75 43.5V83.5H80.0909V43.5H75ZM52.0909 78.5V43.5H47V78.5H52.0909ZM77.5455 61H90.2727V56H77.5455V61ZM97.9091 68.5V78.5H103V68.5H97.9091ZM80.0909 83.5V58.5H75V83.5H80.0909ZM92.0724 85.2675C91.595 85.7362 90.9477 85.9995 90.2727 85.9995C89.5978 85.9995 88.9504 85.7362 88.4731 85.2675L84.8738 88.8025C86.3058 90.2085 88.2478 90.9984 90.2727 90.9984C92.2976 90.9984 94.2396 90.2085 95.6716 88.8025L92.0724 85.2675ZM88.4731 81.7325C88.9504 81.2638 89.5978 81.0005 90.2727 81.0005C90.9477 81.0005 91.595 81.2638 92.0724 81.7325L95.6716 78.1975C94.2396 76.7915 92.2976 76.0016 90.2727 76.0016C88.2478 76.0016 86.3058 76.7915 84.8738 78.1975L88.4731 81.7325ZM61.5269 85.2675C61.0496 85.7362 60.4022 85.9995 59.7273 85.9995C59.0523 85.9995 58.405 85.7362 57.9276 85.2675L54.3284 88.8025C55.7604 90.2085 57.7024 90.9984 59.7273 90.9984C61.7522 90.9984 63.6942 90.2085 65.1262 88.8025L61.5269 85.2675ZM57.9276 81.7325C58.405 81.2638 59.0523 81.0005 59.7273 81.0005C60.4022 81.0005 61.0496 81.2638 61.5269 81.7325L65.1262 78.1975C63.6942 76.7915 61.7522 76.0016 59.7273 76.0016C57.7024 76.0016 55.7604 76.7915 54.3284 78.1975L57.9276 81.7325ZM92.0724 81.7325C92.5713 82.22 92.8182 82.8575 92.8182 83.5H97.9091C97.9091 81.585 97.1633 79.66 95.6716 78.1975L92.0724 81.7325ZM92.8182 83.5C92.8189 83.8284 92.7534 84.1537 92.6254 84.4571C92.4974 84.7605 92.3094 85.0359 92.0724 85.2675L95.6716 88.8025C96.3815 88.1067 96.9445 87.2802 97.3284 86.3703C97.7124 85.4603 97.9097 84.485 97.9091 83.5H92.8182ZM85.1818 81H77.5455V86H85.1818V81ZM88.4731 85.2675C88.236 85.0359 88.0481 84.7605 87.92 84.4571C87.792 84.1537 87.7265 83.8284 87.7273 83.5H82.6364C82.6364 85.415 83.3822 87.34 84.8738 88.8025L88.4731 85.2675ZM87.7273 83.5C87.7259 83.1715 87.7912 82.8461 87.9193 82.5426C88.0473 82.2392 88.2356 81.9638 88.4731 81.7325L84.8738 78.1975C84.164 78.8933 83.601 79.7198 83.217 80.6297C82.8331 81.5397 82.6357 82.515 82.6364 83.5H87.7273ZM57.9276 85.2675C57.6906 85.0359 57.5026 84.7605 57.3746 84.4571C57.2466 84.1537 57.1811 83.8284 57.1818 83.5H52.0909C52.0909 85.415 52.8367 87.34 54.3284 88.8025L57.9276 85.2675ZM57.1818 83.5C57.1805 83.1715 57.2457 82.8461 57.3738 82.5426C57.5018 82.2392 57.6901 81.9638 57.9276 81.7325L54.3284 78.1975C53.6185 78.8933 53.0555 79.7198 52.6716 80.6297C52.2876 81.5397 52.0903 82.515 52.0909 83.5H57.1818ZM77.5455 81H64.8182V86H77.5455V81ZM61.5269 81.7325C62.0258 82.22 62.2727 82.8575 62.2727 83.5H67.3636C67.3636 81.585 66.6178 79.66 65.1262 78.1975L61.5269 81.7325ZM62.2727 83.5C62.2735 83.8284 62.208 84.1537 62.08 84.4571C61.9519 84.7605 61.764 85.0359 61.5269 85.2675L65.1262 88.8025C65.836 88.1067 66.399 87.2802 66.783 86.3703C67.1669 85.4603 67.3643 84.485 67.3636 83.5H62.2727ZM97.9091 78.5C97.9091 79.163 97.6409 79.7989 97.1635 80.2678C96.6862 80.7366 96.0387 81 95.3636 81V86C97.3889 86 99.3313 85.2098 100.763 83.8033C102.195 82.3968 103 80.4891 103 78.5H97.9091ZM90.2727 61C92.298 61 94.2404 61.7902 95.6725 63.1967C97.1045 64.6032 97.9091 66.5109 97.9091 68.5H103C103 66.8585 102.671 65.233 102.031 63.7165C101.392 62.1999 100.454 60.8219 99.2723 59.6612C98.0904 58.5004 96.6874 57.5797 95.1432 56.9515C93.5991 56.3233 91.9441 56 90.2727 56V61ZM47 78.5C47 80.4891 47.8045 82.3968 49.2366 83.8033C50.6687 85.2098 52.6111 86 54.6364 86V81C53.9613 81 53.3138 80.7366 52.8365 80.2678C52.3591 79.7989 52.0909 79.163 52.0909 78.5H47Z" fill="#277FD0"/>
</g>
<defs>
<filter id="filter0_d_94_2895" x="0" y="0" width="149" height="149" filterUnits="userSpaceOnUse" color-interpolation-filters="sRGB">
<feFlood flood-opacity="0" result="BackgroundImageFix"/>
<feColorMatrix in="SourceAlpha" type="matrix" values="0 0 0 0 0 0 0 0 0 0 0 0 0 0 0 0 0 0 127 0" result="hardAlpha"/>
<feOffset dy="9"/>
<feGaussianBlur stdDeviation="10"/>
<feComposite in2="hardAlpha" operator="out"/>
<feColorMatrix type="matrix" values="0 0 0 0 0.153125 0 0 0 0 0.498167 0 0 0 0 0.816667 0 0 0 0.07 0"/>
<feBlend mode="normal" in2="BackgroundImageFix" result="effect1_dropShadow_94_2895"/>
<feBlend mode="normal" in="SourceGraphic" in2="effect1_dropShadow_94_2895" result="shape"/>
</filter>
<clipPath id="clip0_94_2895">
<rect width="56" height="50" fill="white" transform="translate(47 41)"/>
</clipPath>
</defs>
</svg>
